<svg xmlns="http://www.w3.org/2000/svg" width="805" height="600"><rect width="805" height="600" x="0" y="0" fill="#FFFFFF" id="backgorund"/><g id="viz"><g transform="translate(0,0)"><g transform="translate(10,20)"><g><path fill="#1f77b4" d="M0,270C14.342265529841656,270,14.342265529841656,236.4,28.684531059683312,236.4C43.50487210718636,236.4,43.50487210718636,289.2,58.32521315468941,289.2C72.66747868453106,289.2,72.66747868453106,286,87.00974421437272,286C101.83008526187577,286,101.83008526187577,297.2,116.65042630937882,297.2C131.47076735688185,297.2,131.47076735688185,350,146.2911084043849,350C159.67722289890378,350,159.67722289890378,262,173.06333739342264,262C187.88367844092568,262,187.88367844092568,209.2,202.70401948842874,209.2C217.0462850182704,209.2,217.0462850182704,270,231.38855054811205,270C246.20889159561509,270,246.20889159561509,254,261.0292326431181,254C275.37149817295983,254,275.37149817295983,265.2,289.7137637028015,265.2C304.53410475030455,265.2,304.53410475030455,262,319.35444579780756,262C334.17478684531056,262,334.17478684531056,354.8,348.9951278928136,354.8C363.3373934226553,354.8,363.3373934226553,122.80000000000001,377.67965895249694,122.80000000000001C392.5,122.80000000000001,392.5,68.39999999999998,407.32034104750306,68.39999999999998C421.6626065773447,68.39999999999998,421.6626065773447,212.40000000000003,436.0048721071864,212.40000000000003C450.82521315468944,212.40000000000003,450.82521315468944,210.8,465.64555420219244,210.8C480.4658952496955,210.8,480.4658952496955,284.40000000000003,495.28623629719857,284.40000000000003C508.6723507917174,284.40000000000003,508.6723507917174,310,522.0584652862362,310C536.8788063337392,310,536.8788063337392,305.2,551.6991473812424,305.2C566.0414129110841,305.2,566.0414129110841,260.4,580.3836784409257,260.4C595.2040194884287,260.4,595.2040194884287,231.6,610.0243605359318,231.6C624.3666260657735,231.6,624.3666260657735,329.2,638.7088915956151,329.2C653.5292326431181,329.2,653.5292326431181,255.59999999999997,668.3495736906211,255.59999999999997C683.1699147381241,255.59999999999997,683.1699147381241,332.40000000000003,697.9902557856273,332.40000000000003C712.332521315469,332.40000000000003,712.332521315469,322.80000000000007,726.6747868453107,322.80000000000007C741.4951278928137,322.80000000000007,741.4951278928137,297.2,756.3154689403167,297.2C770.6577344701584,297.2,770.6577344701584,218.79999999999998,785,218.79999999999998L785,412.4C770.6577344701584,412.4,770.6577344701584,457.20000000000005,756.3154689403167,457.20000000000005C741.4951278928137,457.20000000000005,741.4951278928137,481.2,726.6747868453107,481.2C712.332521315469,481.2,712.332521315469,463.59999999999997,697.9902557856273,463.59999999999997C683.1699147381241,463.59999999999997,683.1699147381241,430,668.3495736906211,430C653.5292326431181,430,653.5292326431181,470,638.7088915956151,470C624.3666260657735,470,624.3666260657735,422,610.0243605359318,422C595.2040194884287,422,595.2040194884287,452.4,580.3836784409257,452.4C566.0414129110841,452.4,566.0414129110841,468.4,551.6991473812424,468.4C536.8788063337392,468.4,536.8788063337392,465.2,522.0584652862362,465.2C508.6723507917174,465.2,508.6723507917174,434.8,495.28623629719857,434.8C480.4658952496955,434.8,480.4658952496955,420.4,465.64555420219244,420.4C450.82521315468944,420.4,450.82521315468944,433.2,436.0048721071864,433.2C421.6626065773447,433.2,421.6626065773447,345.2,407.32034104750306,345.2C392.5,345.2,392.5,370.8,377.67965895249694,370.8C363.3373934226553,370.8,363.3373934226553,473.2,348.9951278928136,473.2C334.17478684531056,473.2,334.17478684531056,452.4,319.35444579780756,452.4C304.53410475030455,452.4,304.53410475030455,434.8,289.7137637028015,434.8C275.37149817295983,434.8,275.37149817295983,446,261.0292326431181,446C246.20889159561509,446,246.20889159561509,454,231.38855054811205,454C217.0462850182704,454,217.0462850182704,423.6,202.70401948842874,423.6C187.88367844092568,423.6,187.88367844092568,430,173.06333739342264,430C159.67722289890378,430,159.67722289890378,474.8,146.2911084043849,474.8C131.47076735688185,474.8,131.47076735688185,428.4,116.65042630937882,428.4C101.83008526187577,428.4,101.83008526187577,460.40000000000003,87.00974421437272,460.40000000000003C72.66747868453106,460.40000000000003,72.66747868453106,450.8,58.32521315468941,450.8C43.50487210718636,450.8,43.50487210718636,412.4,28.684531059683312,412.4C14.342265529841656,412.4,14.342265529841656,441.2,0,441.2Z"><title>Centro</title></path><path fill="#ff7f0e" d="M0,502.4C14.342265529841656,502.4,14.342265529841656,413.4,28.684531059683312,413.4C43.50487210718636,413.4,43.50487210718636,510.40000000000003,58.32521315468941,510.40000000000003C72.66747868453106,510.40000000000003,72.66747868453106,461.40000000000003,87.00974421437272,461.40000000000003C101.83008526187577,461.40000000000003,101.83008526187577,429.4,116.65042630937882,429.4C131.47076735688185,429.4,131.47076735688185,524.8000000000001,146.2911084043849,524.8000000000001C159.67722289890378,524.8000000000001,159.67722289890378,496,173.06333739342264,496C187.88367844092568,496,187.88367844092568,424.6,202.70401948842874,424.6C217.0462850182704,424.6,217.0462850182704,455,231.38855054811205,455C246.20889159561509,455,246.20889159561509,510.40000000000003,261.0292326431181,510.40000000000003C275.37149817295983,510.40000000000003,275.37149817295983,504,289.7137637028015,504C304.53410475030455,504,304.53410475030455,453.4,319.35444579780756,453.4C334.17478684531056,453.4,334.17478684531056,529.6,348.9951278928136,529.6C363.3373934226553,529.6,363.3373934226553,371.8,377.67965895249694,371.8C392.5,371.8,392.5,456,407.32034104750306,456C421.6626065773447,456,421.6626065773447,512,436.0048721071864,512C450.82521315468944,512,450.82521315468944,497.6,465.64555420219244,497.6C480.4658952496955,497.6,480.4658952496955,507.2,495.28623629719857,507.2C508.6723507917174,507.2,508.6723507917174,513.6,522.0584652862362,513.6C536.8788063337392,513.6,536.8788063337392,469.4,551.6991473812424,469.4C566.0414129110841,469.4,566.0414129110841,507.2,580.3836784409257,507.2C595.2040194884287,507.2,595.2040194884287,496,610.0243605359318,496C624.3666260657735,496,624.3666260657735,471,638.7088915956151,471C653.5292326431181,471,653.5292326431181,496,668.3495736906211,496C683.1699147381241,496,683.1699147381241,464.59999999999997,697.9902557856273,464.59999999999997C712.332521315469,464.59999999999997,712.332521315469,482.2,726.6747868453107,482.2C741.4951278928137,482.2,741.4951278928137,513.6,756.3154689403167,513.6C770.6577344701584,513.6,770.6577344701584,489.6,785,489.6L785,560C770.6577344701584,560,770.6577344701584,560,756.3154689403167,560C741.4951278928137,560,741.4951278928137,525.4,726.6747868453107,525.4C712.332521315469,525.4,712.332521315469,514.2,697.9902557856273,514.2C683.1699147381241,514.2,683.1699147381241,560,668.3495736906211,560C653.5292326431181,560,653.5292326431181,527,638.7088915956151,527C624.3666260657735,527,624.3666260657735,560,610.0243605359318,560C595.2040194884287,560,595.2040194884287,560,580.3836784409257,560C566.0414129110841,560,566.0414129110841,520.6,551.6991473812424,520.6C536.8788063337392,520.6,536.8788063337392,560,522.0584652862362,560C508.6723507917174,560,508.6723507917174,560,495.28623629719857,560C480.4658952496955,560,480.4658952496955,560,465.64555420219244,560C450.82521315468944,560,450.82521315468944,560,436.0048721071864,560C421.6626065773447,560,421.6626065773447,560,407.32034104750306,560C392.5,560,392.5,472.6,377.67965895249694,472.6C363.3373934226553,472.6,363.3373934226553,560,348.9951278928136,560C334.17478684531056,560,334.17478684531056,509.40000000000003,319.35444579780756,509.40000000000003C304.53410475030455,509.40000000000003,304.53410475030455,560,289.7137637028015,560C275.37149817295983,560,275.37149817295983,560,261.0292326431181,560C246.20889159561509,560,246.20889159561509,509.40000000000003,231.38855054811205,509.40000000000003C217.0462850182704,509.40000000000003,217.0462850182704,493.40000000000003,202.70401948842874,493.40000000000003C187.88367844092568,493.40000000000003,187.88367844092568,560,173.06333739342264,560C159.67722289890378,560,159.67722289890378,560,146.2911084043849,560C131.47076735688185,560,131.47076735688185,499.79999999999995,116.65042630937882,499.79999999999995C101.83008526187577,499.79999999999995,101.83008526187577,517.4,87.00974421437272,517.4C72.66747868453106,517.4,72.66747868453106,560,58.32521315468941,560C43.50487210718636,560,43.50487210718636,487,28.684531059683312,487C14.342265529841656,487,14.342265529841656,560,0,560Z"><title>Norte</title></path><path fill="#2ca02c" d="M0,442.2C14.342265529841656,442.2,14.342265529841656,488,28.684531059683312,488C43.50487210718636,488,43.50487210718636,451.8,58.32521315468941,451.8C72.66747868453106,451.8,72.66747868453106,518.4,87.00974421437272,518.4C101.83008526187577,518.4,101.83008526187577,500.79999999999995,116.65042630937882,500.79999999999995C131.47076735688185,500.79999999999995,131.47076735688185,475.8,146.2911084043849,475.8C159.67722289890378,475.8,159.67722289890378,431,173.06333739342264,431C187.88367844092568,431,187.88367844092568,494.40000000000003,202.70401948842874,494.40000000000003C217.0462850182704,494.40000000000003,217.0462850182704,510.40000000000003,231.38855054811205,510.40000000000003C246.20889159561509,510.40000000000003,246.20889159561509,447,261.0292326431181,447C275.37149817295983,447,275.37149817295983,435.8,289.7137637028015,435.8C304.53410475030455,435.8,304.53410475030455,510.40000000000003,319.35444579780756,510.40000000000003C334.17478684531056,510.40000000000003,334.17478684531056,474.2,348.9951278928136,474.2C363.3373934226553,474.2,363.3373934226553,473.6,377.67965895249694,473.6C392.5,473.6,392.5,346.2,407.32034104750306,346.2C421.6626065773447,346.2,421.6626065773447,434.2,436.0048721071864,434.2C450.82521315468944,434.2,450.82521315468944,421.4,465.64555420219244,421.4C480.4658952496955,421.4,480.4658952496955,435.8,495.28623629719857,435.8C508.6723507917174,435.8,508.6723507917174,466.2,522.0584652862362,466.2C536.8788063337392,466.2,536.8788063337392,521.6,551.6991473812424,521.6C566.0414129110841,521.6,566.0414129110841,453.4,580.3836784409257,453.4C595.2040194884287,453.4,595.2040194884287,423,610.0243605359318,423C624.3666260657735,423,624.3666260657735,528,638.7088915956151,528C653.5292326431181,528,653.5292326431181,431,668.3495736906211,431C683.1699147381241,431,683.1699147381241,515.2,697.9902557856273,515.2C712.332521315469,515.2,712.332521315469,526.4,726.6747868453107,526.4C741.4951278928137,526.4,741.4951278928137,458.20000000000005,756.3154689403167,458.20000000000005C770.6577344701584,458.20000000000005,770.6577344701584,413.4,785,413.4L785,488.6C770.6577344701584,488.6,770.6577344701584,512.6,756.3154689403167,512.6C741.4951278928137,512.6,741.4951278928137,560,726.6747868453107,560C712.332521315469,560,712.332521315469,560,697.9902557856273,560C683.1699147381241,560,683.1699147381241,495,668.3495736906211,495C653.5292326431181,495,653.5292326431181,560,638.7088915956151,560C624.3666260657735,560,624.3666260657735,495,610.0243605359318,495C595.2040194884287,495,595.2040194884287,506.2,580.3836784409257,506.2C566.0414129110841,506.2,566.0414129110841,560,551.6991473812424,560C536.8788063337392,560,536.8788063337392,512.6,522.0584652862362,512.6C508.6723507917174,512.6,508.6723507917174,506.2,495.28623629719857,506.2C480.4658952496955,506.2,480.4658952496955,496.6,465.64555420219244,496.6C450.82521315468944,496.6,450.82521315468944,511,436.0048721071864,511C421.6626065773447,511,421.6626065773447,455,407.32034104750306,455C392.5,455,392.5,560,377.67965895249694,560C363.3373934226553,560,363.3373934226553,528.6,348.9951278928136,528.6C334.17478684531056,528.6,334.17478684531056,560,319.35444579780756,560C304.53410475030455,560,304.53410475030455,503,289.7137637028015,503C275.37149817295983,503,275.37149817295983,509.40000000000003,261.0292326431181,509.40000000000003C246.20889159561509,509.40000000000003,246.20889159561509,560,231.38855054811205,560C217.0462850182704,560,217.0462850182704,560,202.70401948842874,560C187.88367844092568,560,187.88367844092568,495,173.06333739342264,495C159.67722289890378,495,159.67722289890378,523.8000000000001,146.2911084043849,523.8000000000001C131.47076735688185,523.8000000000001,131.47076735688185,560,116.65042630937882,560C101.83008526187577,560,101.83008526187577,560,87.00974421437272,560C72.66747868453106,560,72.66747868453106,509.40000000000003,58.32521315468941,509.40000000000003C43.50487210718636,509.40000000000003,43.50487210718636,560,28.684531059683312,560C14.342265529841656,560,14.342265529841656,501.4,0,501.4Z"><title>Sur</title></path></g><g id="xAxis" transform="translate(0,560)" fill="none" font-size="10" font-family="sans-serif" text-anchor="middle"><path class="domain" stroke="currentColor" d="M0,0H785"/><g class="tick" opacity="1" transform="translate(28.684531059683312,0)"><line stroke="currentColor" y2="6"/><text fill="currentColor" y="9" dy="0.71em">October</text></g><g class="tick" opacity="1" transform="translate(116.65042630937882,0)"><line stroke="currentColor" y2="6"/><text fill="currentColor" y="9" dy="0.71em">2018</text></g><g class="tick" opacity="1" transform="translate(202.70401948842874,0)"><line stroke="currentColor" y2="6"/><text fill="currentColor" y="9" dy="0.71em">April</text></g><g class="tick" opacity="1" transform="translate(289.7137637028015,0)"><line stroke="currentColor" y2="6"/><text fill="currentColor" y="9" dy="0.71em">July</text></g><g class="tick" opacity="1" transform="translate(377.67965895249694,0)"><line stroke="currentColor" y2="6"/><text fill="currentColor" y="9" dy="0.71em">October</text></g><g class="tick" opacity="1" transform="translate(465.64555420219244,0)"><line stroke="currentColor" y2="6"/><text fill="currentColor" y="9" dy="0.71em">2019</text></g><g class="tick" opacity="1" transform="translate(551.6991473812424,0)"><line stroke="currentColor" y2="6"/><text fill="currentColor" y="9" dy="0.71em">April</text></g><g class="tick" opacity="1" transform="translate(638.7088915956151,0)"><line stroke="currentColor" y2="6"/><text fill="currentColor" y="9" dy="0.71em">July</text></g><g class="tick" opacity="1" transform="translate(726.6747868453107,0)"><line stroke="currentColor" y2="6"/><text fill="currentColor" y="9" dy="0.71em">October</text></g></g><text y="556" x="785" text-anchor="end" style="font-family: Arial, sans-serif; font-size: 12px; fill: rgb(123, 123, 123); font-weight: bold;">Mes Año</text><text x="4" text-anchor="start" dominant-baseline="hanging" style="font-family: Arial, sans-serif; font-size: 12px; fill: rgb(123, 123, 123); font-weight: bold;">Q</text><g id="labels"><text x="407.32034104750306" y="208.8" text-anchor="middle" alignment-baseline="middle" style="font-family: Arial, sans-serif; font-size: 10px; fill: black; font-weight: bold;">Centro</text><text x="407.32034104750306" y="508" text-anchor="middle" alignment-baseline="middle" style="font-family: Arial, sans-serif; font-size: 10px; fill: black; font-weight: bold;">Norte</text><text x="407.32034104750306" y="401.59999999999997" text-anchor="middle" alignment-baseline="middle" style="font-family: Arial, sans-serif; font-size: 10px; fill: black; font-weight: bold;">Sur</text></g></g><text x="4" y="4" style="font-family: Arial, sans-serif; font-size: 12px; fill: black; font-weight: bold; dominant-baseline: hanging;"/></g></g></svg>