<svg xmlns="http://www.w3.org/2000/svg" width="805" height="600"><rect width="805" height="600" x="0" y="0" fill="#FFFFFF" id="backgorund"/><g id="viz"><g transform="translate(0,0)"><g transform="translate(10,20)"><g><path fill="#4a90e2" d="M0,529.8C14.342265529841656,529.8,14.342265529841656,528.2,28.684531059683312,528.2C43.50487210718636,528.2,43.50487210718636,531.4,58.32521315468941,531.4C72.66747868453106,531.4,72.66747868453106,547.8,87.00974421437272,547.8C101.83008526187577,547.8,101.83008526187577,549.4,116.65042630937882,549.4C131.47076735688185,549.4,131.47076735688185,551,146.2911084043849,551C159.67722289890378,551,159.67722289890378,517.6,173.06333739342264,517.6C187.88367844092568,517.6,187.88367844092568,522.4,202.70401948842874,522.4C217.0462850182704,522.4,217.0462850182704,474.59999999999997,231.38855054811205,474.59999999999997C246.20889159561509,474.59999999999997,246.20889159561509,555.2,261.0292326431181,555.2C275.37149817295983,555.2,275.37149817295983,506.40000000000003,289.7137637028015,506.40000000000003C304.53410475030455,506.40000000000003,304.53410475030455,497.4,319.35444579780756,497.4C334.17478684531056,497.4,334.17478684531056,539.4,348.9951278928136,539.4C363.3373934226553,539.4,363.3373934226553,515.4,377.67965895249694,515.4C392.5,515.4,392.5,519.6,407.32034104750306,519.6C421.6626065773447,519.6,421.6626065773447,549.4,436.0048721071864,549.4C450.82521315468944,549.4,450.82521315468944,530.8,465.64555420219244,530.8C480.4658952496955,530.8,480.4658952496955,505.40000000000003,495.28623629719857,505.40000000000003C508.6723507917174,505.40000000000003,508.6723507917174,525.6,522.0584652862362,525.6C536.8788063337392,525.6,536.8788063337392,540.4,551.6991473812424,540.4C566.0414129110841,540.4,566.0414129110841,534.6,580.3836784409257,534.6C595.2040194884287,534.6,595.2040194884287,483,610.0243605359318,483C624.3666260657735,483,624.3666260657735,489,638.7088915956151,489C653.5292326431181,489,653.5292326431181,521.8000000000001,668.3495736906211,521.8000000000001C683.1699147381241,521.8000000000001,683.1699147381241,543.6,697.9902557856273,543.6C712.332521315469,543.6,712.332521315469,551,726.6747868453107,551C741.4951278928137,551,741.4951278928137,502.2,756.3154689403167,502.2C770.6577344701584,502.2,770.6577344701584,509.6,785,509.6L785,524C770.6577344701584,524,770.6577344701584,515,756.3154689403167,515C741.4951278928137,515,741.4951278928137,555.8000000000001,726.6747868453107,555.8000000000001C712.332521315469,555.8000000000001,712.332521315469,551.6,697.9902557856273,551.6C683.1699147381241,551.6,683.1699147381241,534.6,668.3495736906211,534.6C653.5292326431181,534.6,653.5292326431181,500.2,638.7088915956151,500.2C624.3666260657735,500.2,624.3666260657735,499,610.0243605359318,499C595.2040194884287,499,595.2040194884287,544.1999999999999,580.3836784409257,544.1999999999999C566.0414129110841,544.1999999999999,566.0414129110841,548.4,551.6991473812424,548.4C536.8788063337392,548.4,536.8788063337392,535.2,522.0584652862362,535.2C508.6723507917174,535.2,508.6723507917174,519.8000000000001,495.28623629719857,519.8000000000001C480.4658952496955,519.8000000000001,480.4658952496955,542,465.64555420219244,542C450.82521315468944,542,450.82521315468944,557.4,436.0048721071864,557.4C421.6626065773447,557.4,421.6626065773447,535.6,407.32034104750306,535.6C392.5,535.6,392.5,528.2,377.67965895249694,528.2C363.3373934226553,528.2,363.3373934226553,547.4,348.9951278928136,547.4C334.17478684531056,547.4,334.17478684531056,511.79999999999995,319.35444579780756,511.79999999999995C304.53410475030455,511.79999999999995,304.53410475030455,520.8000000000001,289.7137637028015,520.8000000000001C275.37149817295983,520.8000000000001,275.37149817295983,560,261.0292326431181,560C246.20889159561509,560,246.20889159561509,490.6,231.38855054811205,490.6C217.0462850182704,490.6,217.0462850182704,533.6,202.70401948842874,533.6C187.88367844092568,533.6,187.88367844092568,528.8,173.06333739342264,528.8C159.67722289890378,528.8,159.67722289890378,555.8000000000001,146.2911084043849,555.8000000000001C131.47076735688185,555.8000000000001,131.47076735688185,555.8000000000001,116.65042630937882,555.8000000000001C101.83008526187577,555.8000000000001,101.83008526187577,554.2,87.00974421437272,554.2C72.66747868453106,554.2,72.66747868453106,542.6,58.32521315468941,542.6C43.50487210718636,542.6,43.50487210718636,537.8000000000001,28.684531059683312,537.8000000000001C14.342265529841656,537.8000000000001,14.342265529841656,539.4,0,539.4Z"><title>1</title></path><path fill="#f5a623" d="M0,549.4C14.342265529841656,549.4,14.342265529841656,538.8000000000001,28.684531059683312,538.8000000000001C43.50487210718636,538.8000000000001,43.50487210718636,556.8000000000001,58.32521315468941,556.8000000000001C72.66747868453106,556.8000000000001,72.66747868453106,531.4,87.00974421437272,531.4C101.83008526187577,531.4,101.83008526187577,556.8000000000001,116.65042630937882,556.8000000000001C131.47076735688185,556.8000000000001,131.47076735688185,556.8000000000001,146.2911084043849,556.8000000000001C159.67722289890378,556.8000000000001,159.67722289890378,558.4,173.06333739342264,558.4C187.88367844092568,558.4,187.88367844092568,543.6,202.70401948842874,543.6C217.0462850182704,543.6,217.0462850182704,555.2,231.38855054811205,555.2C246.20889159561509,555.2,246.20889159561509,549.4,261.0292326431181,549.4C275.37149817295983,549.4,275.37149817295983,521.8000000000001,289.7137637028015,521.8000000000001C304.53410475030455,521.8000000000001,304.53410475030455,537.2,319.35444579780756,537.2C334.17478684531056,537.2,334.17478684531056,558.4,348.9951278928136,558.4C363.3373934226553,558.4,363.3373934226553,553.6,377.67965895249694,553.6C392.5,553.6,392.5,502.59999999999997,407.32034104750306,502.59999999999997C421.6626065773447,502.59999999999997,421.6626065773447,558.4,436.0048721071864,558.4C450.82521315468944,558.4,450.82521315468944,552,465.64555420219244,552C480.4658952496955,552,480.4658952496955,542,495.28623629719857,542C508.6723507917174,542,508.6723507917174,536.2,522.0584652862362,536.2C536.8788063337392,536.2,536.8788063337392,556.8000000000001,551.6991473812424,556.8000000000001C566.0414129110841,556.8000000000001,566.0414129110841,554.2,580.3836784409257,554.2C595.2040194884287,554.2,595.2040194884287,541.4,610.0243605359318,541.4C624.3666260657735,541.4,624.3666260657735,555.2,638.7088915956151,555.2C653.5292326431181,555.2,653.5292326431181,555.2,668.3495736906211,555.2C683.1699147381241,555.2,683.1699147381241,556.8000000000001,697.9902557856273,556.8000000000001C712.332521315469,556.8000000000001,712.332521315469,545.1999999999999,726.6747868453107,545.1999999999999C741.4951278928137,545.1999999999999,741.4951278928137,526.6,756.3154689403167,526.6C770.6577344701584,526.6,770.6577344701584,556.8000000000001,785,556.8000000000001L785,560C770.6577344701584,560,770.6577344701584,536.2,756.3154689403167,536.2C741.4951278928137,536.2,741.4951278928137,550,726.6747868453107,550C712.332521315469,550,712.332521315469,560,697.9902557856273,560C683.1699147381241,560,683.1699147381241,560,668.3495736906211,560C653.5292326431181,560,653.5292326431181,560,638.7088915956151,560C624.3666260657735,560,624.3666260657735,551,610.0243605359318,551C595.2040194884287,551,595.2040194884287,557.4,580.3836784409257,557.4C566.0414129110841,557.4,566.0414129110841,560,551.6991473812424,560C536.8788063337392,560,536.8788063337392,544.1999999999999,522.0584652862362,544.1999999999999C508.6723507917174,544.1999999999999,508.6723507917174,550,495.28623629719857,550C480.4658952496955,550,480.4658952496955,560,465.64555420219244,560C450.82521315468944,560,450.82521315468944,560,436.0048721071864,560C421.6626065773447,560,421.6626065773447,518.6,407.32034104750306,518.6C392.5,518.6,392.5,560,377.67965895249694,560C363.3373934226553,560,363.3373934226553,560,348.9951278928136,560C334.17478684531056,560,334.17478684531056,546.8,319.35444579780756,546.8C304.53410475030455,546.8,304.53410475030455,534.6,289.7137637028015,534.6C275.37149817295983,534.6,275.37149817295983,554.2,261.0292326431181,554.2C246.20889159561509,554.2,246.20889159561509,560,231.38855054811205,560C217.0462850182704,560,217.0462850182704,550,202.70401948842874,550C187.88367844092568,550,187.88367844092568,560,173.06333739342264,560C159.67722289890378,560,159.67722289890378,560,146.2911084043849,560C131.47076735688185,560,131.47076735688185,560,116.65042630937882,560C101.83008526187577,560,101.83008526187577,539.4,87.00974421437272,539.4C72.66747868453106,539.4,72.66747868453106,560,58.32521315468941,560C43.50487210718636,560,43.50487210718636,546.8,28.684531059683312,546.8C14.342265529841656,546.8,14.342265529841656,555.8000000000001,0,555.8000000000001Z"><title>2</title></path><path fill="#4a90e2" d="M0,540.4C14.342265529841656,540.4,14.342265529841656,555.2,28.684531059683312,555.2C43.50487210718636,555.2,43.50487210718636,519.2,58.32521315468941,519.2C72.66747868453106,519.2,72.66747868453106,555.2,87.00974421437272,555.2C101.83008526187577,555.2,101.83008526187577,542,116.65042630937882,542C131.47076735688185,542,131.47076735688185,545.1999999999999,146.2911084043849,545.1999999999999C159.67722289890378,545.1999999999999,159.67722289890378,549.4,173.06333739342264,549.4C187.88367844092568,549.4,187.88367844092568,556.8000000000001,202.70401948842874,556.8000000000001C217.0462850182704,556.8000000000001,217.0462850182704,507,231.38855054811205,507C246.20889159561509,507,246.20889159561509,517.6,261.0292326431181,517.6C275.37149817295983,517.6,275.37149817295983,553.6,289.7137637028015,553.6C304.53410475030455,553.6,304.53410475030455,547.8,319.35444579780756,547.8C334.17478684531056,547.8,334.17478684531056,555.8000000000001,348.9951278928136,555.8000000000001C363.3373934226553,555.8000000000001,363.3373934226553,541.4,377.67965895249694,541.4C392.5,541.4,392.5,548.8,407.32034104750306,548.8C421.6626065773447,548.8,421.6626065773447,508,436.0048721071864,508C450.82521315468944,508,450.82521315468944,517,465.64555420219244,517C480.4658952496955,517,480.4658952496955,556.8000000000001,495.28623629719857,556.8000000000001C508.6723507917174,556.8000000000001,508.6723507917174,515,522.0584652862362,515C536.8788063337392,515,536.8788063337392,496.4,551.6991473812424,496.4C566.0414129110841,496.4,566.0414129110841,545.1999999999999,580.3836784409257,545.1999999999999C595.2040194884287,545.1999999999999,595.2040194884287,515.4,610.0243605359318,515.4C624.3666260657735,515.4,624.3666260657735,522.4,638.7088915956151,522.4C653.5292326431181,522.4,653.5292326431181,535.6,668.3495736906211,535.6C683.1699147381241,535.6,683.1699147381241,534.6,697.9902557856273,534.6C712.332521315469,534.6,712.332521315469,537.8000000000001,726.6747868453107,537.8000000000001C741.4951278928137,537.8000000000001,741.4951278928137,555.2,756.3154689403167,555.2C770.6577344701584,555.2,770.6577344701584,525,785,525L785,537.8000000000001C770.6577344701584,537.8000000000001,770.6577344701584,560,756.3154689403167,560C741.4951278928137,560,741.4951278928137,544.1999999999999,726.6747868453107,544.1999999999999C712.332521315469,544.1999999999999,712.332521315469,542.6,697.9902557856273,542.6C683.1699147381241,542.6,683.1699147381241,546.8,668.3495736906211,546.8C653.5292326431181,546.8,653.5292326431181,532,638.7088915956151,532C624.3666260657735,532,624.3666260657735,528.2,610.0243605359318,528.2C595.2040194884287,528.2,595.2040194884287,553.2,580.3836784409257,553.2C566.0414129110841,553.2,566.0414129110841,509.20000000000005,551.6991473812424,509.20000000000005C536.8788063337392,509.20000000000005,536.8788063337392,524.6,522.0584652862362,524.6C508.6723507917174,524.6,508.6723507917174,560,495.28623629719857,560C480.4658952496955,560,480.4658952496955,529.8,465.64555420219244,529.8C450.82521315468944,529.8,450.82521315468944,524,436.0048721071864,524C421.6626065773447,524,421.6626065773447,560,407.32034104750306,560C392.5,560,392.5,552.6,377.67965895249694,552.6C363.3373934226553,552.6,363.3373934226553,557.4,348.9951278928136,557.4C334.17478684531056,557.4,334.17478684531056,555.8000000000001,319.35444579780756,555.8000000000001C304.53410475030455,555.8000000000001,304.53410475030455,560,289.7137637028015,560C275.37149817295983,560,275.37149817295983,528.8,261.0292326431181,528.8C246.20889159561509,528.8,246.20889159561509,518.2,231.38855054811205,518.2C217.0462850182704,518.2,217.0462850182704,560,202.70401948842874,560C187.88367844092568,560,187.88367844092568,557.4,173.06333739342264,557.4C159.67722289890378,557.4,159.67722289890378,550,146.2911084043849,550C131.47076735688185,550,131.47076735688185,548.4,116.65042630937882,548.4C101.83008526187577,548.4,101.83008526187577,560,87.00974421437272,560C72.66747868453106,560,72.66747868453106,530.4,58.32521315468941,530.4C43.50487210718636,530.4,43.50487210718636,560,28.684531059683312,560C14.342265529841656,560,14.342265529841656,548.4,0,548.4Z"><title>3</title></path><path fill="#17becf" d="M0,519.2C14.342265529841656,519.2,14.342265529841656,517.6,28.684531059683312,517.6C43.50487210718636,517.6,43.50487210718636,462.4,58.32521315468941,462.4C72.66747868453106,462.4,72.66747868453106,540.4,87.00974421437272,540.4C101.83008526187577,540.4,101.83008526187577,522.4,116.65042630937882,522.4C131.47076735688185,522.4,131.47076735688185,537.8000000000001,146.2911084043849,537.8000000000001C159.67722289890378,537.8000000000001,159.67722289890378,438.4,173.06333739342264,438.4C187.88367844092568,438.4,187.88367844092568,534.6,202.70401948842874,534.6C217.0462850182704,534.6,217.0462850182704,540.4,231.38855054811205,540.4C246.20889159561509,540.4,246.20889159561509,540.4,261.0292326431181,540.4C275.37149817295983,540.4,275.37149817295983,535.6,289.7137637028015,535.6C304.53410475030455,535.6,304.53410475030455,449.6,319.35444579780756,449.6C334.17478684531056,449.6,334.17478684531056,528.8,348.9951278928136,528.8C363.3373934226553,528.8,363.3373934226553,493.6,377.67965895249694,493.6C392.5,493.6,392.5,485.6,407.32034104750306,485.6C421.6626065773447,485.6,421.6626065773447,525,436.0048721071864,525C450.82521315468944,525,450.82521315468944,486.2,465.64555420219244,486.2C480.4658952496955,486.2,480.4658952496955,520.8000000000001,495.28623629719857,520.8000000000001C508.6723507917174,520.8000000000001,508.6723507917174,552.6,522.0584652862362,552.6C536.8788063337392,552.6,536.8788063337392,531.4,551.6991473812424,531.4C566.0414129110841,531.4,566.0414129110841,524,580.3836784409257,524C595.2040194884287,524,595.2040194884287,500,610.0243605359318,500C624.3666260657735,500,624.3666260657735,542,638.7088915956151,542C653.5292326431181,542,653.5292326431181,397.40000000000003,668.3495736906211,397.40000000000003C683.1699147381241,397.40000000000003,683.1699147381241,499.59999999999997,697.9902557856273,499.59999999999997C712.332521315469,499.59999999999997,712.332521315469,518.2,726.6747868453107,518.2C741.4951278928137,518.2,741.4951278928137,516,756.3154689403167,516C770.6577344701584,516,770.6577344701584,447.4,785,447.4L785,469.8C770.6577344701584,469.8,770.6577344701584,525.6,756.3154689403167,525.6C741.4951278928137,525.6,741.4951278928137,529.4,726.6747868453107,529.4C712.332521315469,529.4,712.332521315469,512.4,697.9902557856273,512.4C683.1699147381241,512.4,683.1699147381241,421.4,668.3495736906211,421.4C653.5292326431181,421.4,653.5292326431181,548.4,638.7088915956151,548.4C624.3666260657735,548.4,624.3666260657735,514.4,610.0243605359318,514.4C595.2040194884287,514.4,595.2040194884287,533.6,580.3836784409257,533.6C566.0414129110841,533.6,566.0414129110841,539.4,551.6991473812424,539.4C536.8788063337392,539.4,536.8788063337392,557.4,522.0584652862362,557.4C508.6723507917174,557.4,508.6723507917174,532,495.28623629719857,532C480.4658952496955,532,480.4658952496955,502.2,465.64555420219244,502.2C450.82521315468944,502.2,450.82521315468944,537.8000000000001,436.0048721071864,537.8000000000001C421.6626065773447,537.8000000000001,421.6626065773447,501.59999999999997,407.32034104750306,501.59999999999997C392.5,501.59999999999997,392.5,514.4,377.67965895249694,514.4C363.3373934226553,514.4,363.3373934226553,538.4,348.9951278928136,538.4C334.17478684531056,538.4,334.17478684531056,465.6,319.35444579780756,465.6C304.53410475030455,465.6,304.53410475030455,545.1999999999999,289.7137637028015,545.1999999999999C275.37149817295983,545.1999999999999,275.37149817295983,548.4,261.0292326431181,548.4C246.20889159561509,548.4,246.20889159561509,548.4,231.38855054811205,548.4C217.0462850182704,548.4,217.0462850182704,542.6,202.70401948842874,542.6C187.88367844092568,542.6,187.88367844092568,459.2,173.06333739342264,459.2C159.67722289890378,459.2,159.67722289890378,544.1999999999999,146.2911084043849,544.1999999999999C131.47076735688185,544.1999999999999,131.47076735688185,532,116.65042630937882,532C101.83008526187577,532,101.83008526187577,546.8,87.00974421437272,546.8C72.66747868453106,546.8,72.66747868453106,478.4,58.32521315468941,478.4C43.50487210718636,478.4,43.50487210718636,527.2,28.684531059683312,527.2C14.342265529841656,527.2,14.342265529841656,528.8,0,528.8Z"><title>4</title></path><path fill="#4a90e2" d="M0,440C14.342265529841656,440,14.342265529841656,485.2,28.684531059683312,485.2C43.50487210718636,485.2,43.50487210718636,493.20000000000005,58.32521315468941,493.20000000000005C72.66747868453106,493.20000000000005,72.66747868453106,511.79999999999995,87.00974421437272,511.79999999999995C101.83008526187577,511.79999999999995,101.83008526187577,511.79999999999995,116.65042630937882,511.79999999999995C131.47076735688185,511.79999999999995,131.47076735688185,530.4,146.2911084043849,530.4C159.67722289890378,530.4,159.67722289890378,529.8,173.06333739342264,529.8C187.88367844092568,529.8,187.88367844092568,508.6,202.70401948842874,508.6C217.0462850182704,508.6,217.0462850182704,529.8,231.38855054811205,529.8C246.20889159561509,529.8,246.20889159561509,353.8,261.0292326431181,353.8C275.37149817295983,353.8,275.37149817295983,467.6,289.7137637028015,467.6C304.53410475030455,467.6,304.53410475030455,482,319.35444579780756,482C334.17478684531056,482,334.17478684531056,492.20000000000005,348.9951278928136,492.20000000000005C363.3373934226553,492.20000000000005,363.3373934226553,445.2,377.67965895249694,445.2C392.5,445.2,392.5,463.8,407.32034104750306,463.8C421.6626065773447,463.8,421.6626065773447,442.59999999999997,436.0048721071864,442.59999999999997C450.82521315468944,442.59999999999997,450.82521315468944,503.2,465.64555420219244,503.2C480.4658952496955,503.2,480.4658952496955,533,495.28623629719857,533C508.6723507917174,533,508.6723507917174,545.1999999999999,522.0584652862362,545.1999999999999C536.8788063337392,545.1999999999999,536.8788063337392,482.6,551.6991473812424,482.6C566.0414129110841,482.6,566.0414129110841,510.20000000000005,580.3836784409257,510.20000000000005C595.2040194884287,510.20000000000005,595.2040194884287,529.2,610.0243605359318,529.2C624.3666260657735,529.2,624.3666260657735,511.79999999999995,638.7088915956151,511.79999999999995C653.5292326431181,511.79999999999995,653.5292326431181,504.8,668.3495736906211,504.8C683.1699147381241,504.8,683.1699147381241,513.4,697.9902557856273,513.4C712.332521315469,513.4,712.332521315469,456.59999999999997,726.6747868453107,456.59999999999997C741.4951278928137,456.59999999999997,741.4951278928137,488.40000000000003,756.3154689403167,488.40000000000003C770.6577344701584,488.40000000000003,770.6577344701584,538.8000000000001,785,538.8000000000001L785,550C770.6577344701584,550,770.6577344701584,501.2,756.3154689403167,501.2C741.4951278928137,501.2,741.4951278928137,474.2,726.6747868453107,474.2C712.332521315469,474.2,712.332521315469,524.6,697.9902557856273,524.6C683.1699147381241,524.6,683.1699147381241,520.8000000000001,668.3495736906211,520.8000000000001C653.5292326431181,520.8000000000001,653.5292326431181,521.4,638.7088915956151,521.4C624.3666260657735,521.4,624.3666260657735,540.4,610.0243605359318,540.4C595.2040194884287,540.4,595.2040194884287,523,580.3836784409257,523C566.0414129110841,523,566.0414129110841,495.4,551.6991473812424,495.4C536.8788063337392,495.4,536.8788063337392,551.6,522.0584652862362,551.6C508.6723507917174,551.6,508.6723507917174,541,495.28623629719857,541C480.4658952496955,541,480.4658952496955,516,465.64555420219244,516C450.82521315468944,516,450.82521315468944,465,436.0048721071864,465C421.6626065773447,465,421.6626065773447,484.6,407.32034104750306,484.6C392.5,484.6,392.5,470.8,377.67965895249694,470.8C363.3373934226553,470.8,363.3373934226553,505,348.9951278928136,505C334.17478684531056,505,334.17478684531056,496.4,319.35444579780756,496.4C304.53410475030455,496.4,304.53410475030455,486.8,289.7137637028015,486.8C275.37149817295983,486.8,275.37149817295983,381,261.0292326431181,381C246.20889159561509,381,246.20889159561509,539.4,231.38855054811205,539.4C217.0462850182704,539.4,217.0462850182704,521.4,202.70401948842874,521.4C187.88367844092568,521.4,187.88367844092568,539.4,173.06333739342264,539.4C159.67722289890378,539.4,159.67722289890378,536.8000000000001,146.2911084043849,536.8000000000001C131.47076735688185,536.8000000000001,131.47076735688185,521.4,116.65042630937882,521.4C101.83008526187577,521.4,101.83008526187577,521.4,87.00974421437272,521.4C72.66747868453106,521.4,72.66747868453106,506,58.32521315468941,506C43.50487210718636,506,43.50487210718636,504.40000000000003,28.684531059683312,504.40000000000003C14.342265529841656,504.40000000000003,14.342265529841656,460.8,0,460.8Z"><title>5</title></path><path fill="#4a90e2" d="M0,418.20000000000005C14.342265529841656,418.20000000000005,14.342265529841656,547.8,28.684531059683312,547.8C43.50487210718636,547.8,43.50487210718636,479.4,58.32521315468941,479.4C72.66747868453106,479.4,72.66747868453106,412.4,87.00974421437272,412.4C101.83008526187577,412.4,101.83008526187577,482.6,116.65042630937882,482.6C131.47076735688185,482.6,131.47076735688185,501.8,146.2911084043849,501.8C159.67722289890378,501.8,159.67722289890378,413.4,173.06333739342264,413.4C187.88367844092568,413.4,187.88367844092568,485.2,202.70401948842874,485.2C217.0462850182704,485.2,217.0462850182704,457.59999999999997,231.38855054811205,457.59999999999997C246.20889159561509,457.59999999999997,246.20889159561509,382,261.0292326431181,382C275.37149817295983,382,275.37149817295983,487.8,289.7137637028015,487.8C304.53410475030455,487.8,304.53410475030455,512.8,319.35444579780756,512.8C334.17478684531056,512.8,334.17478684531056,506,348.9951278928136,506C363.3373934226553,506,363.3373934226553,384,377.67965895249694,384C392.5,384,392.5,394.59999999999997,407.32034104750306,394.59999999999997C421.6626065773447,394.59999999999997,421.6626065773447,419.20000000000005,436.0048721071864,419.20000000000005C450.82521315468944,419.20000000000005,450.82521315468944,394.2,465.64555420219244,394.2C480.4658952496955,394.2,480.4658952496955,490,495.28623629719857,490C508.6723507917174,490,508.6723507917174,437.4,522.0584652862362,437.4C536.8788063337392,437.4,536.8788063337392,447,551.6991473812424,447C566.0414129110841,447,566.0414129110841,455.99999999999994,580.3836784409257,455.99999999999994C595.2040194884287,455.99999999999994,595.2040194884287,441,610.0243605359318,441C624.3666260657735,441,624.3666260657735,501.2,638.7088915956151,501.2C653.5292326431181,501.2,653.5292326431181,372.4,668.3495736906211,372.4C683.1699147381241,372.4,683.1699147381241,470.40000000000003,697.9902557856273,470.40000000000003C712.332521315469,470.40000000000003,712.332521315469,433.2,726.6747868453107,433.2C741.4951278928137,433.2,741.4951278928137,473.00000000000006,756.3154689403167,473.00000000000006C770.6577344701584,473.00000000000006,770.6577344701584,470.8,785,470.8L785,490C770.6577344701584,490,770.6577344701584,487.40000000000003,756.3154689403167,487.40000000000003C741.4951278928137,487.40000000000003,741.4951278928137,455.59999999999997,726.6747868453107,455.59999999999997C712.332521315469,455.59999999999997,712.332521315469,484.8,697.9902557856273,484.8C683.1699147381241,484.8,683.1699147381241,396.40000000000003,668.3495736906211,396.40000000000003C653.5292326431181,396.40000000000003,653.5292326431181,510.79999999999995,638.7088915956151,510.79999999999995C624.3666260657735,510.79999999999995,624.3666260657735,461.8,610.0243605359318,461.8C595.2040194884287,461.8,595.2040194884287,476.79999999999995,580.3836784409257,476.79999999999995C566.0414129110841,476.79999999999995,566.0414129110841,467.8,551.6991473812424,467.8C536.8788063337392,467.8,536.8788063337392,459.8,522.0584652862362,459.8C508.6723507917174,459.8,508.6723507917174,504.40000000000003,495.28623629719857,504.40000000000003C480.4658952496955,504.40000000000003,480.4658952496955,423,465.64555420219244,423C450.82521315468944,423,450.82521315468944,441.59999999999997,436.0048721071864,441.59999999999997C421.6626065773447,441.59999999999997,421.6626065773447,429.8,407.32034104750306,429.8C392.5,429.8,392.5,417.6,377.67965895249694,417.6C363.3373934226553,417.6,363.3373934226553,517.2,348.9951278928136,517.2C334.17478684531056,517.2,334.17478684531056,525.6,319.35444579780756,525.6C304.53410475030455,525.6,304.53410475030455,505.40000000000003,289.7137637028015,505.40000000000003C275.37149817295983,505.40000000000003,275.37149817295983,407.6,261.0292326431181,407.6C246.20889159561509,407.6,246.20889159561509,473.59999999999997,231.38855054811205,473.59999999999997C217.0462850182704,473.59999999999997,217.0462850182704,507.6,202.70401948842874,507.6C187.88367844092568,507.6,187.88367844092568,437.4,173.06333739342264,437.4C159.67722289890378,437.4,159.67722289890378,513,146.2911084043849,513C131.47076735688185,513,131.47076735688185,500.2,116.65042630937882,500.2C101.83008526187577,500.2,101.83008526187577,436.4,87.00974421437272,436.4C72.66747868453106,436.4,72.66747868453106,492.20000000000005,58.32521315468941,492.20000000000005C43.50487210718636,492.20000000000005,43.50487210718636,554.2,28.684531059683312,554.2C14.342265529841656,554.2,14.342265529841656,439,0,439Z"><title>6</title></path><path fill="#4a90e2" d="M0,500.59999999999997C14.342265529841656,500.59999999999997,14.342265529841656,463.4,28.684531059683312,463.4C43.50487210718636,463.4,43.50487210718636,507,58.32521315468941,507C72.66747868453106,507,72.66747868453106,437.4,87.00974421437272,437.4C101.83008526187577,437.4,101.83008526187577,501.2,116.65042630937882,501.2C131.47076735688185,501.2,131.47076735688185,489.6,146.2911084043849,489.6C159.67722289890378,489.6,159.67722289890378,480.4,173.06333739342264,480.4C187.88367844092568,480.4,187.88367844092568,372.4,202.70401948842874,372.4C217.0462850182704,372.4,217.0462850182704,519.2,231.38855054811205,519.2C246.20889159561509,519.2,246.20889159561509,478.79999999999995,261.0292326431181,478.79999999999995C275.37149817295983,478.79999999999995,275.37149817295983,422.4,289.7137637028015,422.4C304.53410475030455,422.4,304.53410475030455,466.6,319.35444579780756,466.6C334.17478684531056,466.6,334.17478684531056,548.4,348.9951278928136,548.4C363.3373934226553,548.4,363.3373934226553,418.6,377.67965895249694,418.6C392.5,418.6,392.5,430.8,407.32034104750306,430.8C421.6626065773447,430.8,421.6626065773447,328.2,436.0048721071864,328.2C450.82521315468944,328.2,450.82521315468944,469.2,465.64555420219244,469.2C480.4658952496955,469.2,480.4658952496955,424.59999999999997,495.28623629719857,424.59999999999997C508.6723507917174,424.59999999999997,508.6723507917174,389,522.0584652862362,389C536.8788063337392,389,536.8788063337392,522.4,551.6991473812424,522.4C566.0414129110841,522.4,566.0414129110841,406,580.3836784409257,406C595.2040194884287,406,595.2040194884287,462.8,610.0243605359318,462.8C624.3666260657735,462.8,624.3666260657735,475.2,638.7088915956151,475.2C653.5292326431181,475.2,653.5292326431181,445.8,668.3495736906211,445.8C683.1699147381241,445.8,683.1699147381241,525.6,697.9902557856273,525.6C712.332521315469,525.6,712.332521315469,506,726.6747868453107,506C741.4951278928137,506,741.4951278928137,457.59999999999997,756.3154689403167,457.59999999999997C770.6577344701584,457.59999999999997,770.6577344701584,422.4,785,422.4L785,446.4C770.6577344701584,446.4,770.6577344701584,472.00000000000006,756.3154689403167,472.00000000000006C741.4951278928137,472.00000000000006,741.4951278928137,517.2,726.6747868453107,517.2C712.332521315469,517.2,712.332521315469,533.6,697.9902557856273,533.6C683.1699147381241,533.6,683.1699147381241,468.2,668.3495736906211,468.2C653.5292326431181,468.2,653.5292326431181,488,638.7088915956151,488C624.3666260657735,488,624.3666260657735,482,610.0243605359318,482C595.2040194884287,482,595.2040194884287,431.6,580.3836784409257,431.6C566.0414129110841,431.6,566.0414129110841,530.4,551.6991473812424,530.4C536.8788063337392,530.4,536.8788063337392,413,522.0584652862362,413C508.6723507917174,413,508.6723507917174,447,495.28623629719857,447C480.4658952496955,447,480.4658952496955,485.2,465.64555420219244,485.2C450.82521315468944,485.2,450.82521315468944,360.2,436.0048721071864,360.2C421.6626065773447,360.2,421.6626065773447,462.8,407.32034104750306,462.8C392.5,462.8,392.5,444.2,377.67965895249694,444.2C363.3373934226553,444.2,363.3373934226553,554.8000000000001,348.9951278928136,554.8000000000001C334.17478684531056,554.8000000000001,334.17478684531056,481,319.35444579780756,481C304.53410475030455,481,304.53410475030455,444.8,289.7137637028015,444.8C275.37149817295983,444.8,275.37149817295983,499.59999999999997,261.0292326431181,499.59999999999997C246.20889159561509,499.59999999999997,246.20889159561509,528.8,231.38855054811205,528.8C217.0462850182704,528.8,217.0462850182704,402.79999999999995,202.70401948842874,402.79999999999995C187.88367844092568,402.79999999999995,187.88367844092568,499.59999999999997,173.06333739342264,499.59999999999997C159.67722289890378,499.59999999999997,159.67722289890378,500.8,146.2911084043849,500.8C131.47076735688185,500.8,131.47076735688185,510.79999999999995,116.65042630937882,510.79999999999995C101.83008526187577,510.79999999999995,101.83008526187577,459.8,87.00974421437272,459.8C72.66747868453106,459.8,72.66747868453106,518.2,58.32521315468941,518.2C43.50487210718636,518.2,43.50487210718636,484.2,28.684531059683312,484.2C14.342265529841656,484.2,14.342265529841656,518.2,0,518.2Z"><title>7</title></path><path fill="#9b9b9b" d="M0,556.8000000000001C14.342265529841656,556.8000000000001,14.342265529841656,505.40000000000003,28.684531059683312,505.40000000000003C43.50487210718636,505.40000000000003,43.50487210718636,552.6,58.32521315468941,552.6C72.66747868453106,552.6,72.66747868453106,522.4,87.00974421437272,522.4C101.83008526187577,522.4,101.83008526187577,533,116.65042630937882,533C131.47076735688185,533,131.47076735688185,514,146.2911084043849,514C159.67722289890378,514,159.67722289890378,540.4,173.06333739342264,540.4C187.88367844092568,540.4,187.88367844092568,551,202.70401948842874,551C217.0462850182704,551,217.0462850182704,549.4,231.38855054811205,549.4C246.20889159561509,549.4,246.20889159561509,529.8,261.0292326431181,529.8C275.37149817295983,529.8,275.37149817295983,546.1999999999999,289.7137637028015,546.1999999999999C304.53410475030455,546.1999999999999,304.53410475030455,556.8000000000001,319.35444579780756,556.8000000000001C334.17478684531056,556.8000000000001,334.17478684531056,478.4,348.9951278928136,478.4C363.3373934226553,478.4,363.3373934226553,529.2,377.67965895249694,529.2C392.5,529.2,392.5,536.6,407.32034104750306,536.6C421.6626065773447,536.6,421.6626065773447,538.8000000000001,436.0048721071864,538.8000000000001C450.82521315468944,538.8000000000001,450.82521315468944,543,465.64555420219244,543C480.4658952496955,543,480.4658952496955,551,495.28623629719857,551C508.6723507917174,551,508.6723507917174,558.4,522.0584652862362,558.4C536.8788063337392,558.4,536.8788063337392,510.20000000000005,551.6991473812424,510.20000000000005C566.0414129110841,510.20000000000005,566.0414129110841,558.4,580.3836784409257,558.4C595.2040194884287,558.4,595.2040194884287,552,610.0243605359318,552C624.3666260657735,552,624.3666260657735,549.4,638.7088915956151,549.4C653.5292326431181,549.4,653.5292326431181,547.8,668.3495736906211,547.8C683.1699147381241,547.8,683.1699147381241,552.6,697.9902557856273,552.6C712.332521315469,552.6,712.332521315469,556.8000000000001,726.6747868453107,556.8000000000001C741.4951278928137,556.8000000000001,741.4951278928137,546.1999999999999,756.3154689403167,546.1999999999999C770.6577344701584,546.1999999999999,770.6577344701584,551,785,551L785,555.8000000000001C770.6577344701584,555.8000000000001,770.6577344701584,554.2,756.3154689403167,554.2C741.4951278928137,554.2,741.4951278928137,560,726.6747868453107,560C712.332521315469,560,712.332521315469,555.8000000000001,697.9902557856273,555.8000000000001C683.1699147381241,555.8000000000001,683.1699147381241,554.2,668.3495736906211,554.2C653.5292326431181,554.2,653.5292326431181,554.2,638.7088915956151,554.2C624.3666260657735,554.2,624.3666260657735,560,610.0243605359318,560C595.2040194884287,560,595.2040194884287,560,580.3836784409257,560C566.0414129110841,560,566.0414129110841,521.4,551.6991473812424,521.4C536.8788063337392,521.4,536.8788063337392,560,522.0584652862362,560C508.6723507917174,560,508.6723507917174,555.8000000000001,495.28623629719857,555.8000000000001C480.4658952496955,555.8000000000001,480.4658952496955,551,465.64555420219244,551C450.82521315468944,551,450.82521315468944,548.4,436.0048721071864,548.4C421.6626065773447,548.4,421.6626065773447,547.8,407.32034104750306,547.8C392.5,547.8,392.5,540.4,377.67965895249694,540.4C363.3373934226553,540.4,363.3373934226553,491.20000000000005,348.9951278928136,491.20000000000005C334.17478684531056,491.20000000000005,334.17478684531056,560,319.35444579780756,560C304.53410475030455,560,304.53410475030455,552.6,289.7137637028015,552.6C275.37149817295983,552.6,275.37149817295983,539.4,261.0292326431181,539.4C246.20889159561509,539.4,246.20889159561509,554.2,231.38855054811205,554.2C217.0462850182704,554.2,217.0462850182704,555.8000000000001,202.70401948842874,555.8000000000001C187.88367844092568,555.8000000000001,187.88367844092568,548.4,173.06333739342264,548.4C159.67722289890378,548.4,159.67722289890378,522,146.2911084043849,522C131.47076735688185,522,131.47076735688185,541,116.65042630937882,541C101.83008526187577,541,101.83008526187577,530.4,87.00974421437272,530.4C72.66747868453106,530.4,72.66747868453106,555.8000000000001,58.32521315468941,555.8000000000001C43.50487210718636,555.8000000000001,43.50487210718636,516.6,28.684531059683312,516.6C14.342265529841656,516.6,14.342265529841656,560,0,560Z"><title>8</title></path><path fill="#9b9b9b" d="M0,369.79999999999995C14.342265529841656,369.79999999999995,14.342265529841656,410.2,28.684531059683312,410.2C43.50487210718636,410.2,43.50487210718636,423.59999999999997,58.32521315468941,423.59999999999997C72.66747868453106,423.59999999999997,72.66747868453106,499.59999999999997,87.00974421437272,499.59999999999997C101.83008526187577,499.59999999999997,101.83008526187577,460.8,116.65042630937882,460.8C131.47076735688185,460.8,131.47076735688185,453.99999999999994,146.2911084043849,453.99999999999994C159.67722289890378,453.99999999999994,159.67722289890378,460.2,173.06333739342264,460.2C187.88367844092568,460.2,187.88367844092568,458.59999999999997,202.70401948842874,458.59999999999997C217.0462850182704,458.59999999999997,217.0462850182704,434.2,231.38855054811205,434.2C246.20889159561509,434.2,246.20889159561509,455.40000000000003,261.0292326431181,455.40000000000003C275.37149817295983,455.40000000000003,275.37149817295983,320.8,289.7137637028015,320.8C304.53410475030455,320.8,304.53410475030455,526.6,319.35444579780756,526.6C334.17478684531056,526.6,334.17478684531056,444.4,348.9951278928136,444.4C363.3373934226553,444.4,363.3373934226553,349.40000000000003,377.67965895249694,349.40000000000003C392.5,349.40000000000003,392.5,356.8,407.32034104750306,356.8C421.6626065773447,356.8,421.6626065773447,293.6,436.0048721071864,293.6C450.82521315468944,293.6,450.82521315468944,449,465.64555420219244,449C480.4658952496955,449,480.4658952496955,448,495.28623629719857,448C508.6723507917174,448,508.6723507917174,414,522.0584652862362,414C536.8788063337392,414,536.8788063337392,549.4,551.6991473812424,549.4C566.0414129110841,549.4,566.0414129110841,496.4,580.3836784409257,496.4C595.2040194884287,496.4,595.2040194884287,419.20000000000005,610.0243605359318,419.20000000000005C624.3666260657735,419.20000000000005,624.3666260657735,461.4,638.7088915956151,461.4C653.5292326431181,461.4,653.5292326431181,487.8,668.3495736906211,487.8C683.1699147381241,487.8,683.1699147381241,485.8,697.9902557856273,485.8C712.332521315469,485.8,712.332521315469,492.20000000000005,726.6747868453107,492.20000000000005C741.4951278928137,492.20000000000005,741.4951278928137,442.2,756.3154689403167,442.2C770.6577344701584,442.2,770.6577344701584,491,785,491L785,508.6C770.6577344701584,508.6,770.6577344701584,456.59999999999997,756.3154689403167,456.59999999999997C741.4951278928137,456.59999999999997,741.4951278928137,505,726.6747868453107,505C712.332521315469,505,712.332521315469,498.59999999999997,697.9902557856273,498.59999999999997C683.1699147381241,498.59999999999997,683.1699147381241,503.8,668.3495736906211,503.8C653.5292326431181,503.8,653.5292326431181,474.2,638.7088915956151,474.2C624.3666260657735,474.2,624.3666260657735,440,610.0243605359318,440C595.2040194884287,440,595.2040194884287,509.20000000000005,580.3836784409257,509.20000000000005C566.0414129110841,509.20000000000005,566.0414129110841,555.8000000000001,551.6991473812424,555.8000000000001C536.8788063337392,555.8000000000001,536.8788063337392,436.4,522.0584652862362,436.4C508.6723507917174,436.4,508.6723507917174,468.8,495.28623629719857,468.8C480.4658952496955,468.8,480.4658952496955,468.2,465.64555420219244,468.2C450.82521315468944,468.2,450.82521315468944,327.2,436.0048721071864,327.2C421.6626065773447,327.2,421.6626065773447,393.59999999999997,407.32034104750306,393.59999999999997C392.5,393.59999999999997,392.5,383,377.67965895249694,383C363.3373934226553,383,363.3373934226553,463.6,348.9951278928136,463.6C334.17478684531056,463.6,334.17478684531056,536.2,319.35444579780756,536.2C304.53410475030455,536.2,304.53410475030455,347.99999999999994,289.7137637028015,347.99999999999994C275.37149817295983,347.99999999999994,275.37149817295983,477.79999999999995,261.0292326431181,477.79999999999995C246.20889159561509,477.79999999999995,246.20889159561509,456.59999999999997,231.38855054811205,456.59999999999997C217.0462850182704,456.59999999999997,217.0462850182704,484.2,202.70401948842874,484.2C187.88367844092568,484.2,187.88367844092568,479.4,173.06333739342264,479.4C159.67722289890378,479.4,159.67722289890378,471.59999999999997,146.2911084043849,471.59999999999997C131.47076735688185,471.59999999999997,131.47076735688185,481.6,116.65042630937882,481.6C101.83008526187577,481.6,101.83008526187577,510.79999999999995,87.00974421437272,510.79999999999995C72.66747868453106,510.79999999999995,72.66747868453106,442.8,58.32521315468941,442.8C43.50487210718636,442.8,43.50487210718636,437.4,28.684531059683312,437.4C14.342265529841656,437.4,14.342265529841656,393.8,0,393.8Z"><title>9</title></path><path fill="#9b9b9b" d="M0,394.8C14.342265529841656,394.8,14.342265529841656,438.4,28.684531059683312,438.4C43.50487210718636,438.4,43.50487210718636,403.4,58.32521315468941,403.4C72.66747868453106,403.4,72.66747868453106,482.6,87.00974421437272,482.6C101.83008526187577,482.6,101.83008526187577,439,116.65042630937882,439C131.47076735688185,439,131.47076735688185,472.59999999999997,146.2911084043849,472.59999999999997C159.67722289890378,472.59999999999997,159.67722289890378,500.59999999999997,173.06333739342264,500.59999999999997C187.88367844092568,500.59999999999997,187.88367844092568,403.79999999999995,202.70401948842874,403.79999999999995C217.0462850182704,403.79999999999995,217.0462850182704,491.6,231.38855054811205,491.6C246.20889159561509,491.6,246.20889159561509,432,261.0292326431181,432C275.37149817295983,432,275.37149817295983,374,289.7137637028015,374C304.53410475030455,374,304.53410475030455,427.8,319.35444579780756,427.8C334.17478684531056,427.8,334.17478684531056,464.6,348.9951278928136,464.6C363.3373934226553,464.6,363.3373934226553,471.8,377.67965895249694,471.8C392.5,471.8,392.5,227.4,407.32034104750306,227.4C421.6626065773447,227.4,421.6626065773447,466,436.0048721071864,466C450.82521315468944,466,450.82521315468944,300,465.64555420219244,300C480.4658952496955,300,480.4658952496955,308.6,495.28623629719857,308.6C508.6723507917174,308.6,508.6723507917174,482.6,522.0584652862362,482.6C536.8788063337392,482.6,536.8788063337392,468.8,551.6991473812424,468.8C566.0414129110841,468.8,566.0414129110841,347.99999999999994,580.3836784409257,347.99999999999994C595.2040194884287,347.99999999999994,595.2040194884287,337.79999999999995,610.0243605359318,337.79999999999995C624.3666260657735,337.79999999999995,624.3666260657735,533,638.7088915956151,533C653.5292326431181,533,653.5292326431181,469.2,668.3495736906211,469.2C683.1699147381241,469.2,683.1699147381241,453.40000000000003,697.9902557856273,453.40000000000003C712.332521315469,453.40000000000003,712.332521315469,530.4,726.6747868453107,530.4C741.4951278928137,530.4,741.4951278928137,418.79999999999995,756.3154689403167,418.79999999999995C770.6577344701584,418.79999999999995,770.6577344701584,391,785,391L785,421.4C770.6577344701584,421.4,770.6577344701584,441.2,756.3154689403167,441.2C741.4951278928137,441.2,741.4951278928137,536.8000000000001,726.6747868453107,536.8000000000001C712.332521315469,536.8000000000001,712.332521315469,469.40000000000003,697.9902557856273,469.40000000000003C683.1699147381241,469.40000000000003,683.1699147381241,486.8,668.3495736906211,486.8C653.5292326431181,486.8,653.5292326431181,541,638.7088915956151,541C624.3666260657735,541,624.3666260657735,366.59999999999997,610.0243605359318,366.59999999999997C595.2040194884287,366.59999999999997,595.2040194884287,376.8,580.3836784409257,376.8C566.0414129110841,376.8,566.0414129110841,481.6,551.6991473812424,481.6C536.8788063337392,481.6,536.8788063337392,500.2,522.0584652862362,500.2C508.6723507917174,500.2,508.6723507917174,342.20000000000005,495.28623629719857,342.20000000000005C480.4658952496955,342.20000000000005,480.4658952496955,332,465.64555420219244,332C450.82521315468944,332,450.82521315468944,486.8,436.0048721071864,486.8C421.6626065773447,486.8,421.6626065773447,272.20000000000005,407.32034104750306,272.20000000000005C392.5,272.20000000000005,392.5,492.6,377.67965895249694,492.6C363.3373934226553,492.6,363.3373934226553,477.4,348.9951278928136,477.4C334.17478684531056,477.4,334.17478684531056,448.6,319.35444579780756,448.6C304.53410475030455,448.6,304.53410475030455,398.00000000000006,289.7137637028015,398.00000000000006C275.37149817295983,398.00000000000006,275.37149817295983,454.40000000000003,261.0292326431181,454.40000000000003C246.20889159561509,454.40000000000003,246.20889159561509,506,231.38855054811205,506C217.0462850182704,506,217.0462850182704,431,202.70401948842874,431C187.88367844092568,431,187.88367844092568,516.6,173.06333739342264,516.6C159.67722289890378,516.6,159.67722289890378,488.6,146.2911084043849,488.6C131.47076735688185,488.6,131.47076735688185,459.8,116.65042630937882,459.8C101.83008526187577,459.8,101.83008526187577,498.59999999999997,87.00974421437272,498.59999999999997C72.66747868453106,498.59999999999997,72.66747868453106,422.59999999999997,58.32521315468941,422.59999999999997C43.50487210718636,422.59999999999997,43.50487210718636,462.4,28.684531059683312,462.4C14.342265529841656,462.4,14.342265529841656,417.20000000000005,0,417.20000000000005Z"><title>10</title></path><path fill="#4a90e2" d="M0,299C14.342265529841656,299,14.342265529841656,320.8,28.684531059683312,320.8C43.50487210718636,320.8,43.50487210718636,323,58.32521315468941,323C72.66747868453106,323,72.66747868453106,326.2,87.00974421437272,326.2C101.83008526187577,326.2,101.83008526187577,384.2,116.65042630937882,384.2C131.47076735688185,384.2,131.47076735688185,432.2,146.2911084043849,432.2C159.67722289890378,432.2,159.67722289890378,328.79999999999995,173.06333739342264,328.79999999999995C187.88367844092568,328.79999999999995,187.88367844092568,295.2,202.70401948842874,295.2C217.0462850182704,295.2,217.0462850182704,349.59999999999997,231.38855054811205,349.59999999999997C246.20889159561509,349.59999999999997,246.20889159561509,408.6,261.0292326431181,408.6C275.37149817295983,408.6,275.37149817295983,287.8,289.7137637028015,287.8C304.53410475030455,287.8,304.53410475030455,340,319.35444579780756,340C334.17478684531056,340,334.17478684531056,372.6,348.9951278928136,372.6C363.3373934226553,372.6,363.3373934226553,277,377.67965895249694,277C392.5,277,392.5,56.39999999999998,407.32034104750306,56.39999999999998C421.6626065773447,56.39999999999998,421.6626065773447,361.2,436.0048721071864,361.2C450.82521315468944,361.2,450.82521315468944,263.8,465.64555420219244,263.8C480.4658952496955,263.8,480.4658952496955,401.19999999999993,495.28623629719857,401.19999999999993C508.6723507917174,401.19999999999993,508.6723507917174,332.6,522.0584652862362,332.6C536.8788063337392,332.6,536.8788063337392,332.6,551.6991473812424,332.6C566.0414129110841,332.6,566.0414129110841,302.2,580.3836784409257,302.2C595.2040194884287,302.2,595.2040194884287,308,610.0243605359318,308C624.3666260657735,308,624.3666260657735,358.2,638.7088915956151,358.2C653.5292326431181,358.2,653.5292326431181,422.4,668.3495736906211,422.4C683.1699147381241,422.4,683.1699147381241,383.2,697.9902557856273,383.2C712.332521315469,383.2,712.332521315469,350.2,726.6747868453107,350.2C741.4951278928137,350.2,741.4951278928137,285.2,756.3154689403167,285.2C770.6577344701584,285.2,770.6577344701584,206.79999999999998,785,206.79999999999998L785,251.60000000000002C770.6577344701584,251.60000000000002,770.6577344701584,323.6,756.3154689403167,323.6C741.4951278928137,323.6,741.4951278928137,380.6,726.6747868453107,380.6C712.332521315469,380.6,712.332521315469,407.2,697.9902557856273,407.2C683.1699147381241,407.2,683.1699147381241,444.8,668.3495736906211,444.8C653.5292326431181,444.8,653.5292326431181,388.59999999999997,638.7088915956151,388.59999999999997C624.3666260657735,388.59999999999997,624.3666260657735,336.79999999999995,610.0243605359318,336.79999999999995C595.2040194884287,336.79999999999995,595.2040194884287,346.99999999999994,580.3836784409257,346.99999999999994C566.0414129110841,346.99999999999994,566.0414129110841,364.59999999999997,551.6991473812424,364.59999999999997C536.8788063337392,364.59999999999997,536.8788063337392,361.40000000000003,522.0584652862362,361.40000000000003C508.6723507917174,361.40000000000003,508.6723507917174,423.59999999999997,495.28623629719857,423.59999999999997C480.4658952496955,423.59999999999997,480.4658952496955,299,465.64555420219244,299C450.82521315468944,299,450.82521315468944,390,436.0048721071864,390C421.6626065773447,390,421.6626065773447,130,407.32034104750306,130C392.5,130,392.5,313.80000000000007,377.67965895249694,313.80000000000007C363.3373934226553,313.80000000000007,363.3373934226553,398.19999999999993,348.9951278928136,398.19999999999993C334.17478684531056,398.19999999999993,334.17478684531056,378.4,319.35444579780756,378.4C304.53410475030455,378.4,304.53410475030455,319.8,289.7137637028015,319.8C275.37149817295983,319.8,275.37149817295983,431,261.0292326431181,431C246.20889159561509,431,246.20889159561509,381.6,231.38855054811205,381.6C217.0462850182704,381.6,217.0462850182704,333.6,202.70401948842874,333.6C187.88367844092568,333.6,187.88367844092568,357.59999999999997,173.06333739342264,357.59999999999997C159.67722289890378,357.59999999999997,159.67722289890378,452.99999999999994,146.2911084043849,452.99999999999994C131.47076735688185,452.99999999999994,131.47076735688185,413,116.65042630937882,413C101.83008526187577,413,101.83008526187577,355,87.00974421437272,355C72.66747868453106,355,72.66747868453106,363.00000000000006,58.32521315468941,363.00000000000006C43.50487210718636,363.00000000000006,43.50487210718636,351.2,28.684531059683312,351.2C14.342265529841656,351.2,14.342265529841656,335.79999999999995,0,335.79999999999995Z"><title>11</title></path><path fill="#4a90e2" d="M0,258C14.342265529841656,258,14.342265529841656,224.4,28.684531059683312,224.4C43.50487210718636,224.4,43.50487210718636,277.2,58.32521315468941,277.2C72.66747868453106,277.2,72.66747868453106,274,87.00974421437272,274C101.83008526187577,274,101.83008526187577,354.40000000000003,116.65042630937882,354.40000000000003C131.47076735688185,354.40000000000003,131.47076735688185,338,146.2911084043849,338C159.67722289890378,338,159.67722289890378,250,173.06333739342264,250C187.88367844092568,250,187.88367844092568,197.2,202.70401948842874,197.2C217.0462850182704,197.2,217.0462850182704,258,231.38855054811205,258C246.20889159561509,258,246.20889159561509,242,261.0292326431181,242C275.37149817295983,242,275.37149817295983,348.99999999999994,289.7137637028015,348.99999999999994C304.53410475030455,348.99999999999994,304.53410475030455,250,319.35444579780756,250C334.17478684531056,250,334.17478684531056,342.8,348.9951278928136,342.8C363.3373934226553,342.8,363.3373934226553,110.80000000000001,377.67965895249694,110.80000000000001C392.5,110.80000000000001,392.5,315.80000000000007,407.32034104750306,315.80000000000007C421.6626065773447,315.80000000000007,421.6626065773447,200.40000000000003,436.0048721071864,200.40000000000003C450.82521315468944,200.40000000000003,450.82521315468944,198.8,465.64555420219244,198.8C480.4658952496955,198.8,480.4658952496955,272.40000000000003,495.28623629719857,272.40000000000003C508.6723507917174,272.40000000000003,508.6723507917174,298,522.0584652862362,298C536.8788063337392,298,536.8788063337392,293.2,551.6991473812424,293.2C566.0414129110841,293.2,566.0414129110841,248.39999999999998,580.3836784409257,248.39999999999998C595.2040194884287,248.39999999999998,595.2040194884287,219.6,610.0243605359318,219.6C624.3666260657735,219.6,624.3666260657735,317.2,638.7088915956151,317.2C653.5292326431181,317.2,653.5292326431181,243.59999999999997,668.3495736906211,243.59999999999997C683.1699147381241,243.59999999999997,683.1699147381241,320.40000000000003,697.9902557856273,320.40000000000003C712.332521315469,320.40000000000003,712.332521315469,310.80000000000007,726.6747868453107,310.80000000000007C741.4951278928137,310.80000000000007,741.4951278928137,392.2,756.3154689403167,392.2C770.6577344701584,392.2,770.6577344701584,288.8,785,288.8L785,324C770.6577344701584,324,770.6577344701584,417.79999999999995,756.3154689403167,417.79999999999995C741.4951278928137,417.79999999999995,741.4951278928137,349.2,726.6747868453107,349.2C712.332521315469,349.2,712.332521315469,357.2,697.9902557856273,357.2C683.1699147381241,357.2,683.1699147381241,283.59999999999997,668.3495736906211,283.59999999999997C653.5292326431181,283.59999999999997,653.5292326431181,357.2,638.7088915956151,357.2C624.3666260657735,357.2,624.3666260657735,277.2,610.0243605359318,277.2C595.2040194884287,277.2,595.2040194884287,301.2,580.3836784409257,301.2C566.0414129110841,301.2,566.0414129110841,331.6,551.6991473812424,331.6C536.8788063337392,331.6,536.8788063337392,331.6,522.0584652862362,331.6C508.6723507917174,331.6,508.6723507917174,307.6,495.28623629719857,307.6C480.4658952496955,307.6,480.4658952496955,262.8,465.64555420219244,262.8C450.82521315468944,262.8,450.82521315468944,253.2,436.0048721071864,253.2C421.6626065773447,253.2,421.6626065773447,355.8,407.32034104750306,355.8C392.5,355.8,392.5,179.60000000000002,377.67965895249694,179.60000000000002C363.3373934226553,179.60000000000002,363.3373934226553,371.6,348.9951278928136,371.6C334.17478684531056,371.6,334.17478684531056,296.4,319.35444579780756,296.4C304.53410475030455,296.4,304.53410475030455,373,289.7137637028015,373C275.37149817295983,373,275.37149817295983,283.59999999999997,261.0292326431181,283.59999999999997C246.20889159561509,283.59999999999997,246.20889159561509,312.4,231.38855054811205,312.4C217.0462850182704,312.4,217.0462850182704,254.8,202.70401948842874,254.8C187.88367844092568,254.8,187.88367844092568,291.6,173.06333739342264,291.6C159.67722289890378,291.6,159.67722289890378,376.4,146.2911084043849,376.4C131.47076735688185,376.4,131.47076735688185,383.2,116.65042630937882,383.2C101.83008526187577,383.2,101.83008526187577,325.2,87.00974421437272,325.2C72.66747868453106,325.2,72.66747868453106,322,58.32521315468941,322C43.50487210718636,322,43.50487210718636,280.4,28.684531059683312,280.4C14.342265529841656,280.4,14.342265529841656,298,0,298Z"><title>12</title></path><path fill="#f5a623" d="M0,336.79999999999995C14.342265529841656,336.79999999999995,14.342265529841656,281.4,28.684531059683312,281.4C43.50487210718636,281.4,43.50487210718636,543.6,58.32521315468941,543.6C72.66747868453106,543.6,72.66747868453106,460.8,87.00974421437272,460.8C101.83008526187577,460.8,101.83008526187577,321.40000000000003,116.65042630937882,321.40000000000003C131.47076735688185,321.40000000000003,131.47076735688185,523,146.2911084043849,523C159.67722289890378,523,159.67722289890378,358.59999999999997,173.06333739342264,358.59999999999997C187.88367844092568,358.59999999999997,187.88367844092568,334.6,202.70401948842874,334.6C217.0462850182704,334.6,217.0462850182704,409.2,231.38855054811205,409.2C246.20889159561509,409.2,246.20889159561509,324,261.0292326431181,324C275.37149817295983,324,275.37149817295983,399.00000000000006,289.7137637028015,399.00000000000006C304.53410475030455,399.00000000000006,304.53410475030455,379.4,319.35444579780756,379.4C334.17478684531056,379.4,334.17478684531056,518.2,348.9951278928136,518.2C363.3373934226553,518.2,363.3373934226553,180.60000000000002,377.67965895249694,180.60000000000002C392.5,180.60000000000002,392.5,180,407.32034104750306,180C421.6626065773447,180,421.6626065773447,487.8,436.0048721071864,487.8C450.82521315468944,487.8,450.82521315468944,333,465.64555420219244,333C480.4658952496955,333,480.4658952496955,469.8,495.28623629719857,469.8C508.6723507917174,469.8,508.6723507917174,362.40000000000003,522.0584652862362,362.40000000000003C536.8788063337392,362.40000000000003,536.8788063337392,422,551.6991473812424,422C566.0414129110841,422,566.0414129110841,432.6,580.3836784409257,432.6C595.2040194884287,432.6,595.2040194884287,278.2,610.0243605359318,278.2C624.3666260657735,278.2,624.3666260657735,417.79999999999995,638.7088915956151,417.79999999999995C653.5292326431181,417.79999999999995,653.5292326431181,284.59999999999997,668.3495736906211,284.59999999999997C683.1699147381241,284.59999999999997,683.1699147381241,358.2,697.9902557856273,358.2C712.332521315469,358.2,712.332521315469,409.8,726.6747868453107,409.8C741.4951278928137,409.8,741.4951278928137,362.40000000000003,756.3154689403167,362.40000000000003C770.6577344701584,362.40000000000003,770.6577344701584,358,785,358L785,390C770.6577344701584,390,770.6577344701584,391.2,756.3154689403167,391.2C741.4951278928137,391.2,741.4951278928137,432.2,726.6747868453107,432.2C712.332521315469,432.2,712.332521315469,382.2,697.9902557856273,382.2C683.1699147381241,382.2,683.1699147381241,319.8,668.3495736906211,319.8C653.5292326431181,319.8,653.5292326431181,441.8,638.7088915956151,441.8C624.3666260657735,441.8,624.3666260657735,307,610.0243605359318,307C595.2040194884287,307,595.2040194884287,454.99999999999994,580.3836784409257,454.99999999999994C566.0414129110841,454.99999999999994,566.0414129110841,446,551.6991473812424,446C536.8788063337392,446,536.8788063337392,388,522.0584652862362,388C508.6723507917174,388,508.6723507917174,489,495.28623629719857,489C480.4658952496955,489,480.4658952496955,363.40000000000003,465.64555420219244,363.40000000000003C450.82521315468944,363.40000000000003,450.82521315468944,507,436.0048721071864,507C421.6626065773447,507,421.6626065773447,226.4,407.32034104750306,226.4C392.5,226.4,392.5,231.8,377.67965895249694,231.8C363.3373934226553,231.8,363.3373934226553,527.8,348.9951278928136,527.8C334.17478684531056,527.8,334.17478684531056,405,319.35444579780756,405C304.53410475030455,405,304.53410475030455,421.4,289.7137637028015,421.4C275.37149817295983,421.4,275.37149817295983,352.8,261.0292326431181,352.8C246.20889159561509,352.8,246.20889159561509,433.2,231.38855054811205,433.2C217.0462850182704,433.2,217.0462850182704,371.4,202.70401948842874,371.4C187.88367844092568,371.4,187.88367844092568,385.8,173.06333739342264,385.8C159.67722289890378,385.8,159.67722289890378,529.4,146.2911084043849,529.4C131.47076735688185,529.4,131.47076735688185,353.40000000000003,116.65042630937882,353.40000000000003C101.83008526187577,353.40000000000003,101.83008526187577,481.6,87.00974421437272,481.6C72.66747868453106,481.6,72.66747868453106,551.6,58.32521315468941,551.6C43.50487210718636,551.6,43.50487210718636,319.8,28.684531059683312,319.8C14.342265529841656,319.8,14.342265529841656,368.79999999999995,0,368.79999999999995Z"><title>13</title></path><path fill="#f5a623" d="M0,461.8C14.342265529841656,461.8,14.342265529841656,382,28.684531059683312,382C43.50487210718636,382,43.50487210718636,364.00000000000006,58.32521315468941,364.00000000000006C72.66747868453106,364.00000000000006,72.66747868453106,384.2,87.00974421437272,384.2C101.83008526187577,384.2,101.83008526187577,285.2,116.65042630937882,285.2C131.47076735688185,285.2,131.47076735688185,405.6,146.2911084043849,405.6C159.67722289890378,405.6,159.67722289890378,292.6,173.06333739342264,292.6C187.88367844092568,292.6,187.88367844092568,432,202.70401948842874,432C217.0462850182704,432,217.0462850182704,382.6,231.38855054811205,382.6C246.20889159561509,382.6,246.20889159561509,500.59999999999997,261.0292326431181,500.59999999999997C275.37149817295983,500.59999999999997,275.37149817295983,445.8,289.7137637028015,445.8C304.53410475030455,445.8,304.53410475030455,406,319.35444579780756,406C334.17478684531056,406,334.17478684531056,424.2,348.9951278928136,424.2C363.3373934226553,424.2,363.3373934226553,232.8,377.67965895249694,232.8C392.5,232.8,392.5,273.20000000000005,407.32034104750306,273.20000000000005C421.6626065773447,273.20000000000005,421.6626065773447,391,436.0048721071864,391C450.82521315468944,391,450.82521315468944,424,465.64555420219244,424C480.4658952496955,424,480.4658952496955,374.6,495.28623629719857,374.6C508.6723507917174,374.6,508.6723507917174,501.2,522.0584652862362,501.2C536.8788063337392,501.2,536.8788063337392,397.00000000000006,551.6991473812424,397.00000000000006C566.0414129110841,397.00000000000006,566.0414129110841,377.8,580.3836784409257,377.8C595.2040194884287,377.8,595.2040194884287,367.59999999999997,610.0243605359318,367.59999999999997C624.3666260657735,367.59999999999997,624.3666260657735,389.59999999999997,638.7088915956151,389.59999999999997C653.5292326431181,389.59999999999997,653.5292326431181,347.40000000000003,668.3495736906211,347.40000000000003C683.1699147381241,347.40000000000003,683.1699147381241,408.2,697.9902557856273,408.2C712.332521315469,408.2,712.332521315469,475.2,726.6747868453107,475.2C741.4951278928137,475.2,741.4951278928137,537.2,756.3154689403167,537.2C770.6577344701584,537.2,770.6577344701584,252.60000000000002,785,252.60000000000002L785,287.8C770.6577344701584,287.8,770.6577344701584,545.1999999999999,756.3154689403167,545.1999999999999C741.4951278928137,545.1999999999999,741.4951278928137,491.20000000000005,726.6747868453107,491.20000000000005C712.332521315469,491.20000000000005,712.332521315469,430.6,697.9902557856273,430.6C683.1699147381241,430.6,683.1699147381241,371.4,668.3495736906211,371.4C653.5292326431181,371.4,653.5292326431181,416.79999999999995,638.7088915956151,416.79999999999995C624.3666260657735,416.79999999999995,624.3666260657735,393.2,610.0243605359318,393.2C595.2040194884287,393.2,595.2040194884287,405,580.3836784409257,405C566.0414129110841,405,566.0414129110841,421,551.6991473812424,421C536.8788063337392,421,536.8788063337392,514,522.0584652862362,514C508.6723507917174,514,508.6723507917174,400.19999999999993,495.28623629719857,400.19999999999993C480.4658952496955,400.19999999999993,480.4658952496955,448,465.64555420219244,448C450.82521315468944,448,450.82521315468944,418.20000000000005,436.0048721071864,418.20000000000005C421.6626065773447,418.20000000000005,421.6626065773447,314.80000000000007,407.32034104750306,314.80000000000007C392.5,314.80000000000007,392.5,276,377.67965895249694,276C363.3373934226553,276,363.3373934226553,443.4,348.9951278928136,443.4C334.17478684531056,443.4,334.17478684531056,426.8,319.35444579780756,426.8C304.53410475030455,426.8,304.53410475030455,466.6,289.7137637028015,466.6C275.37149817295983,466.6,275.37149817295983,516.6,261.0292326431181,516.6C246.20889159561509,516.6,246.20889159561509,408.2,231.38855054811205,408.2C217.0462850182704,408.2,217.0462850182704,457.59999999999997,202.70401948842874,457.59999999999997C187.88367844092568,457.59999999999997,187.88367844092568,327.79999999999995,173.06333739342264,327.79999999999995C159.67722289890378,327.79999999999995,159.67722289890378,431.2,146.2911084043849,431.2C131.47076735688185,431.2,131.47076735688185,320.40000000000003,116.65042630937882,320.40000000000003C101.83008526187577,320.40000000000003,101.83008526187577,411.4,87.00974421437272,411.4C72.66747868453106,411.4,72.66747868453106,402.4,58.32521315468941,402.4C43.50487210718636,402.4,43.50487210718636,409.2,28.684531059683312,409.2C14.342265529841656,409.2,14.342265529841656,481,0,481Z"><title>14</title></path><path fill="#4a90e2" d="M0,482C14.342265529841656,482,14.342265529841656,352.2,28.684531059683312,352.2C43.50487210718636,352.2,43.50487210718636,443.8,58.32521315468941,443.8C72.66747868453106,443.8,72.66747868453106,356,87.00974421437272,356C101.83008526187577,356,101.83008526187577,414,116.65042630937882,414C131.47076735688185,414,131.47076735688185,377.4,146.2911084043849,377.4C159.67722289890378,377.4,159.67722289890378,386.8,173.06333739342264,386.8C187.88367844092568,386.8,187.88367844092568,255.8,202.70401948842874,255.8C217.0462850182704,255.8,217.0462850182704,313.4,231.38855054811205,313.4C246.20889159561509,313.4,246.20889159561509,284.59999999999997,261.0292326431181,284.59999999999997C275.37149817295983,284.59999999999997,275.37149817295983,253.2,289.7137637028015,253.2C304.53410475030455,253.2,304.53410475030455,297.4,319.35444579780756,297.4C334.17478684531056,297.4,334.17478684531056,399.19999999999993,348.9951278928136,399.19999999999993C363.3373934226553,399.19999999999993,363.3373934226553,314.80000000000007,377.67965895249694,314.80000000000007C392.5,314.80000000000007,392.5,131,407.32034104750306,131C421.6626065773447,131,421.6626065773447,254.2,436.0048721071864,254.2C450.82521315468944,254.2,450.82521315468944,364.40000000000003,465.64555420219244,364.40000000000003C480.4658952496955,364.40000000000003,480.4658952496955,343.20000000000005,495.28623629719857,343.20000000000005C508.6723507917174,343.20000000000005,508.6723507917174,460.8,522.0584652862362,460.8C536.8788063337392,460.8,536.8788063337392,365.59999999999997,551.6991473812424,365.59999999999997C566.0414129110841,365.59999999999997,566.0414129110841,477.79999999999995,580.3836784409257,477.79999999999995C595.2040194884287,477.79999999999995,595.2040194884287,394.2,610.0243605359318,394.2C624.3666260657735,394.2,624.3666260657735,442.8,638.7088915956151,442.8C653.5292326431181,442.8,653.5292326431181,320.8,668.3495736906211,320.8C683.1699147381241,320.8,683.1699147381241,431.6,697.9902557856273,431.6C712.332521315469,431.6,712.332521315469,381.6,726.6747868453107,381.6C741.4951278928137,381.6,741.4951278928137,324.6,756.3154689403167,324.6C770.6577344701584,324.6,770.6577344701584,325,785,325L785,357C770.6577344701584,357,770.6577344701584,361.40000000000003,756.3154689403167,361.40000000000003C741.4951278928137,361.40000000000003,741.4951278928137,408.8,726.6747868453107,408.8C712.332521315469,408.8,712.332521315469,452.40000000000003,697.9902557856273,452.40000000000003C683.1699147381241,452.40000000000003,683.1699147381241,346.40000000000003,668.3495736906211,346.40000000000003C653.5292326431181,346.40000000000003,653.5292326431181,460.4,638.7088915956151,460.4C624.3666260657735,460.4,624.3666260657735,418.20000000000005,610.0243605359318,418.20000000000005C595.2040194884287,418.20000000000005,595.2040194884287,495.4,580.3836784409257,495.4C566.0414129110841,495.4,566.0414129110841,396.00000000000006,551.6991473812424,396.00000000000006C536.8788063337392,396.00000000000006,536.8788063337392,481.6,522.0584652862362,481.6C508.6723507917174,481.6,508.6723507917174,373.6,495.28623629719857,373.6C480.4658952496955,373.6,480.4658952496955,393.2,465.64555420219244,393.2C450.82521315468944,393.2,450.82521315468944,292.6,436.0048721071864,292.6C421.6626065773447,292.6,421.6626065773447,179,407.32034104750306,179C392.5,179,392.5,348.40000000000003,377.67965895249694,348.40000000000003C363.3373934226553,348.40000000000003,363.3373934226553,423.2,348.9951278928136,423.2C334.17478684531056,423.2,334.17478684531056,339,319.35444579780756,339C304.53410475030455,339,304.53410475030455,286.8,289.7137637028015,286.8C275.37149817295983,286.8,275.37149817295983,323,261.0292326431181,323C246.20889159561509,323,246.20889159561509,348.59999999999997,231.38855054811205,348.59999999999997C217.0462850182704,348.59999999999997,217.0462850182704,294.2,202.70401948842874,294.2C187.88367844092568,294.2,187.88367844092568,412.4,173.06333739342264,412.4C159.67722289890378,412.4,159.67722289890378,404.6,146.2911084043849,404.6C131.47076735688185,404.6,131.47076735688185,438,116.65042630937882,438C101.83008526187577,438,101.83008526187577,383.2,87.00974421437272,383.2C72.66747868453106,383.2,72.66747868453106,461.4,58.32521315468941,461.4C43.50487210718636,461.4,43.50487210718636,381,28.684531059683312,381C14.342265529841656,381,14.342265529841656,499.59999999999997,0,499.59999999999997Z"><title>15</title></path></g><g id="xAxis" transform="translate(0,560)" fill="none" font-size="10" font-family="sans-serif" text-anchor="middle"><path class="domain" stroke="currentColor" d="M0,0H785"/><g class="tick" opacity="1" transform="translate(28.684531059683312,0)"><line stroke="currentColor" y2="6"/><text fill="currentColor" y="9" dy="0.71em">October</text></g><g class="tick" opacity="1" transform="translate(116.65042630937882,0)"><line stroke="currentColor" y2="6"/><text fill="currentColor" y="9" dy="0.71em">2018</text></g><g class="tick" opacity="1" transform="translate(202.70401948842874,0)"><line stroke="currentColor" y2="6"/><text fill="currentColor" y="9" dy="0.71em">April</text></g><g class="tick" opacity="1" transform="translate(289.7137637028015,0)"><line stroke="currentColor" y2="6"/><text fill="currentColor" y="9" dy="0.71em">July</text></g><g class="tick" opacity="1" transform="translate(377.67965895249694,0)"><line stroke="currentColor" y2="6"/><text fill="currentColor" y="9" dy="0.71em">October</text></g><g class="tick" opacity="1" transform="translate(465.64555420219244,0)"><line stroke="currentColor" y2="6"/><text fill="currentColor" y="9" dy="0.71em">2019</text></g><g class="tick" opacity="1" transform="translate(551.6991473812424,0)"><line stroke="currentColor" y2="6"/><text fill="currentColor" y="9" dy="0.71em">April</text></g><g class="tick" opacity="1" transform="translate(638.7088915956151,0)"><line stroke="currentColor" y2="6"/><text fill="currentColor" y="9" dy="0.71em">July</text></g><g class="tick" opacity="1" transform="translate(726.6747868453107,0)"><line stroke="currentColor" y2="6"/><text fill="currentColor" y="9" dy="0.71em">October</text></g></g><text y="556" x="785" text-anchor="end" style="font-family: Arial, sans-serif; font-size: 12px; fill: rgb(123, 123, 123); font-weight: bold;">Mes</text><text x="4" text-anchor="start" dominant-baseline="hanging" style="font-family: Arial, sans-serif; font-size: 12px; fill: rgb(123, 123, 123); font-weight: bold;">Q</text><g id="labels"><text x="231.38855054811205" y="489.6" text-anchor="middle" alignment-baseline="middle" style="font-family: Arial, sans-serif; font-size: 10px; fill: black; font-weight: bold;">1</text><text x="407.32034104750306" y="513.6" text-anchor="middle" alignment-baseline="middle" style="font-family: Arial, sans-serif; font-size: 10px; fill: black; font-weight: bold;">2</text><text x="436.0048721071864" y="520" text-anchor="middle" alignment-baseline="middle" style="font-family: Arial, sans-serif; font-size: 10px; fill: black; font-weight: bold;">3</text><text x="668.3495736906211" y="418.4" text-anchor="middle" alignment-baseline="middle" style="font-family: Arial, sans-serif; font-size: 10px; fill: black; font-weight: bold;">4</text><text x="261.0292326431181" y="378.4" text-anchor="middle" alignment-baseline="middle" style="font-family: Arial, sans-serif; font-size: 10px; fill: black; font-weight: bold;">5</text><text x="407.32034104750306" y="419.2" text-anchor="middle" alignment-baseline="middle" style="font-family: Arial, sans-serif; font-size: 10px; fill: black; font-weight: bold;">6</text><text x="407.32034104750306" y="452.8" text-anchor="middle" alignment-baseline="middle" style="font-family: Arial, sans-serif; font-size: 10px; fill: black; font-weight: bold;">7</text><text x="348.9951278928136" y="492.8" text-anchor="middle" alignment-baseline="middle" style="font-family: Arial, sans-serif; font-size: 10px; fill: black; font-weight: bold;">8</text><text x="407.32034104750306" y="383.2" text-anchor="middle" alignment-baseline="middle" style="font-family: Arial, sans-serif; font-size: 10px; fill: black; font-weight: bold;">9</text><text x="407.32034104750306" y="260.8" text-anchor="middle" alignment-baseline="middle" style="font-family: Arial, sans-serif; font-size: 10px; fill: black; font-weight: bold;">10</text><text x="407.32034104750306" y="107.19999999999997" text-anchor="middle" alignment-baseline="middle" style="font-family: Arial, sans-serif; font-size: 10px; fill: black; font-weight: bold;">11</text><text x="377.67965895249694" y="159.2" text-anchor="middle" alignment-baseline="middle" style="font-family: Arial, sans-serif; font-size: 10px; fill: black; font-weight: bold;">12</text><text x="377.67965895249694" y="219.20000000000002" text-anchor="middle" alignment-baseline="middle" style="font-family: Arial, sans-serif; font-size: 10px; fill: black; font-weight: bold;">13</text><text x="377.67965895249694" y="266.40000000000003" text-anchor="middle" alignment-baseline="middle" style="font-family: Arial, sans-serif; font-size: 10px; fill: black; font-weight: bold;">14</text><text x="407.32034104750306" y="168.00000000000003" text-anchor="middle" alignment-baseline="middle" style="font-family: Arial, sans-serif; font-size: 10px; fill: black; font-weight: bold;">15</text></g></g><text x="4" y="4" style="font-family: Arial, sans-serif; font-size: 12px; fill: black; font-weight: bold; dominant-baseline: hanging;"/></g></g></svg>