<svg xmlns="http://www.w3.org/2000/svg" width="805" height="600"><rect width="805" height="600" x="0" y="0" fill="#FFFFFF" id="backgorund"/><g id="viz"><g transform="translate(0,0)"><g transform="translate(10,20)"><g><path fill="#1f77b4" d="M0,359.9328C14.342265529841656,359.9328,14.342265529841656,496.5390545454546,28.684531059683312,496.5390545454546C43.50487210718636,496.5390545454546,43.50487210718636,76.58865454545455,58.32521315468941,76.58865454545455C72.66747868453106,76.58865454545455,72.66747868453106,211.52538181818184,87.00974421437272,211.52538181818184C101.83008526187577,211.52538181818184,101.83008526187577,263.72247272727276,116.65042630937882,263.72247272727276C131.47076735688185,263.72247272727276,131.47076735688185,291.6500363636364,146.2911084043849,291.6500363636364C159.67722289890378,291.6500363636364,159.67722289890378,458.7946181818182,173.06333739342264,458.7946181818182C187.88367844092568,458.7946181818182,187.88367844092568,513.5854545454545,202.70401948842874,513.5854545454545C217.0462850182704,513.5854545454545,217.0462850182704,90.43796363636366,231.38855054811205,90.43796363636366C246.20889159561509,90.43796363636366,246.20889159561509,549.3476363636364,261.0292326431181,549.3476363636364C275.37149817295983,549.3476363636364,275.37149817295983,148.44683636363635,289.7137637028015,148.44683636363635C304.53410475030455,148.44683636363635,304.53410475030455,65.9557818181818,319.35444579780756,65.9557818181818C334.17478684531056,65.9557818181818,334.17478684531056,486.1287272727273,348.9951278928136,486.1287272727273C363.3373934226553,486.1287272727273,363.3373934226553,554.7685818181818,377.67965895249694,554.7685818181818C392.5,554.7685818181818,392.5,529.027490909091,407.32034104750306,529.027490909091C421.6626065773447,529.027490909091,421.6626065773447,517.8558545454546,436.0048721071864,517.8558545454546C450.82521315468944,517.8558545454546,450.82521315468944,384.3309090909091,465.64555420219244,384.3309090909091C480.4658952496955,384.3309090909091,480.4658952496955,526.3310545454545,495.28623629719857,526.3310545454545C508.6723507917174,526.3310545454545,508.6723507917174,508.0219636363636,522.0584652862362,508.0219636363636C536.8788063337392,508.0219636363636,536.8788063337392,465.83534545454546,551.6991473812424,465.83534545454546C566.0414129110841,465.83534545454546,566.0414129110841,489.2677818181818,580.3836784409257,489.2677818181818C595.2040194884287,489.2677818181818,595.2040194884287,259.49483636363635,610.0243605359318,259.49483636363635C624.3666260657735,259.49483636363635,624.3666260657735,268.8936727272727,638.7088915956151,268.8936727272727C653.5292326431181,268.8936727272727,653.5292326431181,527.9793454545454,668.3495736906211,527.9793454545454C683.1699147381241,527.9793454545454,683.1699147381241,556.4900363636364,697.9902557856273,556.4900363636364C712.332521315469,556.4900363636364,712.332521315469,554.7072000000001,726.6747868453107,554.7072000000001C741.4951278928137,554.7072000000001,741.4951278928137,379.7005090909091,756.3154689403167,379.7005090909091C770.6577344701584,379.7005090909091,770.6577344701584,486.6235636363636,785,486.6235636363636L785,499.72247272727276C770.6577344701584,499.72247272727276,770.6577344701584,426.30778181818187,756.3154689403167,426.30778181818187C741.4951278928137,426.30778181818187,741.4951278928137,556.1754181818181,726.6747868453107,556.1754181818181C712.332521315469,556.1754181818181,712.332521315469,557.7943272727273,697.9902557856273,557.7943272727273C683.1699147381241,557.7943272727273,683.1699147381241,535.1147636363636,668.3495736906211,535.1147636363636C653.5292326431181,535.1147636363636,653.5292326431181,331.16261818181823,638.7088915956151,331.16261818181823C624.3666260657735,331.16261818181823,624.3666260657735,347.4718545454545,610.0243605359318,347.4718545454545C595.2040194884287,347.4718545454545,595.2040194884287,501.66821818181813,580.3836784409257,501.66821818181813C566.0414129110841,501.66821818181813,566.0414129110841,482.1262545454545,551.6991473812424,482.1262545454545C536.8788063337392,482.1262545454545,536.8788063337392,518.6955636363637,522.0584652862362,518.6955636363637C508.6723507917174,518.6955636363637,508.6723507917174,538.2590545454545,495.28623629719857,538.2590545454545C480.4658952496955,538.2590545454545,480.4658952496955,414.0445090909091,465.64555420219244,414.0445090909091C450.82521315468944,414.0445090909091,450.82521315468944,528.3818181818182,436.0048721071864,528.3818181818182C421.6626065773447,528.3818181818182,421.6626065773447,537.1138909090909,407.32034104750306,537.1138909090909C392.5,537.1138909090909,392.5,560,377.67965895249694,560C363.3373934226553,560,363.3373934226553,498.9476363636364,348.9951278928136,498.9476363636364C334.17478684531056,498.9476363636364,334.17478684531056,231.2850909090909,319.35444579780756,231.2850909090909C304.53410475030455,231.2850909090909,304.53410475030455,209.92974545454547,289.7137637028015,209.92974545454547C275.37149817295983,209.92974545454547,275.37149817295983,556.2030545454545,261.0292326431181,556.2030545454545C246.20889159561509,556.2030545454545,246.20889159561509,211.63621818181818,231.38855054811205,211.63621818181818C217.0462850182704,211.63621818181818,217.0462850182704,526.4817454545455,202.70401948842874,526.4817454545455C187.88367844092568,526.4817454545455,187.88367844092568,478.99534545454543,173.06333739342264,478.99534545454543C159.67722289890378,478.99534545454543,159.67722289890378,342.4542545454546,146.2911084043849,342.4542545454546C131.47076735688185,342.4542545454546,131.47076735688185,330.77381818181817,116.65042630937882,330.77381818181817C101.83008526187577,330.77381818181817,101.83008526187577,279.1031272727273,87.00974421437272,279.1031272727273C72.66747868453106,279.1031272727273,72.66747868453106,204.33687272727275,58.32521315468941,204.33687272727275C43.50487210718636,204.33687272727275,43.50487210718636,511.87185454545454,28.684531059683312,511.87185454545454C14.342265529841656,511.87185454545454,14.342265529841656,386.4401454545455,0,386.4401454545455Z"><title>1</title></path><path fill="#7f7f7f" d="M0,557.0523636363637C14.342265529841656,557.0523636363637,14.342265529841656,540.8925090909091,28.684531059683312,540.8925090909091C43.50487210718636,540.8925090909091,43.50487210718636,522.497890909091,58.32521315468941,522.497890909091C72.66747868453106,522.497890909091,72.66747868453106,527.6661818181818,87.00974421437272,527.6661818181818C101.83008526187577,527.6661818181818,101.83008526187577,481.1378909090909,116.65042630937882,481.1378909090909C131.47076735688185,481.1378909090909,131.47076735688185,447.15650909090914,146.2911084043849,447.15650909090914C159.67722289890378,447.15650909090914,159.67722289890378,560,173.06333739342264,560C187.88367844092568,560,187.88367844092568,540.3751272727272,202.70401948842874,540.3751272727272C217.0462850182704,540.3751272727272,217.0462850182704,521.5640727272728,231.38855054811205,521.5640727272728C246.20889159561509,521.5640727272728,246.20889159561509,557.2030545454545,261.0292326431181,557.2030545454545C275.37149817295983,557.2030545454545,275.37149817295983,258.73454545454547,289.7137637028015,258.73454545454547C304.53410475030455,258.73454545454547,304.53410475030455,482.5927272727273,319.35444579780756,482.5927272727273C334.17478684531056,482.5927272727273,334.17478684531056,558.9746909090909,348.9951278928136,558.9746909090909C363.3373934226553,558.9746909090909,363.3373934226553,532.5922909090909,377.67965895249694,532.5922909090909C392.5,532.5922909090909,392.5,546.6402909090909,407.32034104750306,546.6402909090909C421.6626065773447,546.6402909090909,421.6626065773447,558.381090909091,436.0048721071864,558.381090909091C450.82521315468944,558.381090909091,450.82521315468944,545.3584,465.64555420219244,545.3584C480.4658952496955,545.3584,480.4658952496955,539.2590545454545,495.28623629719857,539.2590545454545C508.6723507917174,539.2590545454545,508.6723507917174,225.26050909090912,522.0584652862362,225.26050909090912C536.8788063337392,225.26050909090912,536.8788063337392,535.4848,551.6991473812424,535.4848C566.0414129110841,535.4848,566.0414129110841,515.1176727272727,580.3836784409257,515.1176727272727C595.2040194884287,515.1176727272727,595.2040194884287,545.3000727272727,610.0243605359318,545.3000727272727C624.3666260657735,545.3000727272727,624.3666260657735,481.2149818181818,638.7088915956151,481.2149818181818C653.5292326431181,481.2149818181818,653.5292326431181,556.048290909091,668.3495736906211,556.048290909091C683.1699147381241,556.048290909091,683.1699147381241,558.7943272727273,697.9902557856273,558.7943272727273C712.332521315469,558.7943272727273,712.332521315469,551.1831272727273,726.6747868453107,551.1831272727273C741.4951278928137,551.1831272727273,741.4951278928137,538.1409454545454,756.3154689403167,538.1409454545454C770.6577344701584,538.1409454545454,770.6577344701584,535.8125090909091,785,535.8125090909091L785,545.1156363636364C770.6577344701584,545.1156363636364,770.6577344701584,545.4331636363636,756.3154689403167,545.4331636363636C741.4951278928137,545.4331636363636,741.4951278928137,553.7072000000001,726.6747868453107,553.7072000000001C712.332521315469,553.7072000000001,712.332521315469,558.9277090909092,697.9902557856273,558.9277090909092C683.1699147381241,558.9277090909092,683.1699147381241,558.4379636363636,668.3495736906211,558.4379636363636C653.5292326431181,558.4379636363636,653.5292326431181,496.672,638.7088915956151,496.672C624.3666260657735,496.672,624.3666260657735,550.5050181818182,610.0243605359318,550.5050181818182C595.2040194884287,550.5050181818182,595.2040194884287,524.1326545454546,580.3836784409257,524.1326545454546C566.0414129110841,524.1326545454546,566.0414129110841,542.8686545454545,551.6991473812424,542.8686545454545C536.8788063337392,542.8686545454545,536.8788063337392,366.6248727272727,522.0584652862362,366.6248727272727C508.6723507917174,366.6248727272727,508.6723507917174,545.248,495.28623629719857,545.248C480.4658952496955,545.248,480.4658952496955,555.8354909090909,465.64555420219244,555.8354909090909C450.82521315468944,555.8354909090909,450.82521315468944,560,436.0048721071864,560C421.6626065773447,560,421.6626065773447,553.9426909090909,407.32034104750306,553.9426909090909C392.5,553.9426909090909,392.5,543.4573090909091,377.67965895249694,543.4573090909091C363.3373934226553,543.4573090909091,363.3373934226553,560,348.9951278928136,560C334.17478684531056,560,334.17478684531056,498.2605090909091,319.35444579780756,498.2605090909091C304.53410475030455,498.2605090909091,304.53410475030455,298.8254545454546,289.7137637028015,298.8254545454546C275.37149817295983,298.8254545454546,275.37149817295983,560,261.0292326431181,560C246.20889159561509,560,246.20889159561509,536.7074909090909,231.38855054811205,536.7074909090909C217.0462850182704,536.7074909090909,217.0462850182704,547.7620363636364,202.70401948842874,547.7620363636364C187.88367844092568,547.7620363636364,187.88367844092568,560,173.06333739342264,560C159.67722289890378,560,159.67722289890378,464.31185454545454,146.2911084043849,464.31185454545454C131.47076735688185,464.31185454545454,131.47076735688185,495.43927272727274,116.65042630937882,495.43927272727274C101.83008526187577,495.43927272727274,101.83008526187577,538.9496727272727,87.00974421437272,538.9496727272727C72.66747868453106,538.9496727272727,72.66747868453106,534.8097454545455,58.32521315468941,534.8097454545455C43.50487210718636,534.8097454545455,43.50487210718636,551.6272,28.684531059683312,551.6272C14.342265529841656,551.6272,14.342265529841656,560,0,560Z"><title>2</title></path><path fill="#4a90e2" d="M0,540.1645090909091C14.342265529841656,540.1645090909091,14.342265529841656,552.6272,28.684531059683312,552.6272C43.50487210718636,552.6272,43.50487210718636,494.7429818181819,58.32521315468941,494.7429818181819C72.66747868453106,494.7429818181819,72.66747868453106,515.1994181818181,87.00974421437272,515.1994181818181C101.83008526187577,515.1994181818181,101.83008526187577,538.0975999999999,116.65042630937882,538.0975999999999C131.47076735688185,538.0975999999999,131.47076735688185,528.3696,146.2911084043849,528.3696C159.67722289890378,528.3696,159.67722289890378,339.5802181818182,173.06333739342264,339.5802181818182C187.88367844092568,339.5802181818182,187.88367844092568,554.6238545454546,202.70401948842874,554.6238545454546C217.0462850182704,554.6238545454546,217.0462850182704,386.65207272727275,231.38855054811205,386.65207272727275C246.20889159561509,386.65207272727275,246.20889159561509,541.1490909090909,261.0292326431181,541.1490909090909C275.37149817295983,541.1490909090909,275.37149817295983,547.9415272727273,289.7137637028015,547.9415272727273C304.53410475030455,547.9415272727273,304.53410475030455,546.5994181818181,319.35444579780756,546.5994181818181C334.17478684531056,546.5994181818181,334.17478684531056,556.5675636363636,348.9951278928136,556.5675636363636C363.3373934226553,556.5675636363636,363.3373934226553,544.4573090909091,377.67965895249694,544.4573090909091C392.5,544.4573090909091,392.5,554.9426909090909,407.32034104750306,554.9426909090909C421.6626065773447,554.9426909090909,421.6626065773447,362.5914181818182,436.0048721071864,362.5914181818182C450.82521315468944,362.5914181818182,450.82521315468944,415.0445090909091,465.64555420219244,415.0445090909091C480.4658952496955,415.0445090909091,480.4658952496955,560,495.28623629719857,560C508.6723507917174,560,508.6723507917174,531.1991272727273,522.0584652862362,531.1991272727273C536.8788063337392,531.1991272727273,536.8788063337392,524.8680727272728,551.6991473812424,524.8680727272728C566.0414129110841,524.8680727272728,566.0414129110841,502.66821818181813,580.3836784409257,502.66821818181813C595.2040194884287,502.66821818181813,595.2040194884287,488.6171636363636,610.0243605359318,488.6171636363636C624.3666260657735,488.6171636363636,624.3666260657735,332.16261818181823,638.7088915956151,332.16261818181823C653.5292326431181,332.16261818181823,653.5292326431181,547.6042181818182,668.3495736906211,547.6042181818182C683.1699147381241,547.6042181818182,683.1699147381241,551.6250181818182,697.9902557856273,551.6250181818182C712.332521315469,551.6250181818182,712.332521315469,542.7034181818182,726.6747868453107,542.7034181818182C741.4951278928137,542.7034181818182,741.4951278928137,557.7710545454546,756.3154689403167,557.7710545454546C770.6577344701584,557.7710545454546,770.6577344701584,472.3108363636363,785,472.3108363636363L785,485.6235636363636C770.6577344701584,485.6235636363636,770.6577344701584,558.4654545454546,756.3154689403167,558.4654545454546C741.4951278928137,558.4654545454546,741.4951278928137,546.1194181818182,726.6747868453107,546.1194181818182C712.332521315469,546.1194181818182,712.332521315469,555.4900363636364,697.9902557856273,555.4900363636364C683.1699147381241,555.4900363636364,683.1699147381241,550.9336727272727,668.3495736906211,550.9336727272727C653.5292326431181,550.9336727272727,653.5292326431181,369.9799272727273,638.7088915956151,369.9799272727273C624.3666260657735,369.9799272727273,624.3666260657735,501.8983272727273,610.0243605359318,501.8983272727273C595.2040194884287,501.8983272727273,595.2040194884287,514.1176727272727,580.3836784409257,514.1176727272727C566.0414129110841,514.1176727272727,566.0414129110841,534.4848,551.6991473812424,534.4848C536.8788063337392,534.4848,536.8788063337392,539.8414545454546,522.0584652862362,539.8414545454546C508.6723507917174,539.8414545454546,508.6723507917174,560,495.28623629719857,560C480.4658952496955,560,480.4658952496955,444.1421090909091,465.64555420219244,444.1421090909091C450.82521315468944,444.1421090909091,450.82521315468944,394.09294545454543,436.0048721071864,394.09294545454543C421.6626065773447,394.09294545454543,421.6626065773447,560,407.32034104750306,560C392.5,560,392.5,553.7685818181818,377.67965895249694,553.7685818181818C363.3373934226553,553.7685818181818,363.3373934226553,557.9746909090909,348.9951278928136,557.9746909090909C334.17478684531056,557.9746909090909,334.17478684531056,553.401890909091,319.35444579780756,553.401890909091C304.53410475030455,553.401890909091,304.53410475030455,556.4677818181818,289.7137637028015,556.4677818181818C275.37149817295983,556.4677818181818,275.37149817295983,548.3476363636364,261.0292326431181,548.3476363636364C246.20889159561509,548.3476363636364,246.20889159561509,414.3649454545454,231.38855054811205,414.3649454545454C217.0462850182704,414.3649454545454,217.0462850182704,557.5409454545454,202.70401948842874,557.5409454545454C187.88367844092568,557.5409454545454,187.88367844092568,372.7474909090909,173.06333739342264,372.7474909090909C159.67722289890378,372.7474909090909,159.67722289890378,535.6292363636363,146.2911084043849,535.6292363636363C131.47076735688185,535.6292363636363,131.47076735688185,547.1960727272727,116.65042630937882,547.1960727272727C101.83008526187577,547.1960727272727,101.83008526187577,526.6661818181818,87.00974421437272,526.6661818181818C72.66747868453106,526.6661818181818,72.66747868453106,508.1025454545454,58.32521315468941,508.1025454545454C43.50487210718636,508.1025454545454,43.50487210718636,556.4046545454546,28.684531059683312,556.4046545454546C14.342265529841656,556.4046545454546,14.342265529841656,549.1092363636363,0,549.1092363636363Z"><title>3</title></path><path fill="#417505" d="M0,550.1092363636363C14.342265529841656,550.1092363636363,14.342265529841656,479.6197818181818,28.684531059683312,479.6197818181818C43.50487210718636,479.6197818181818,43.50487210718636,358.69570909090913,58.32521315468941,358.69570909090913C72.66747868453106,358.69570909090913,72.66747868453106,405.4213818181818,87.00974421437272,405.4213818181818C101.83008526187577,405.4213818181818,101.83008526187577,445.4727272727273,116.65042630937882,445.4727272727273C131.47076735688185,445.4727272727273,131.47076735688185,555.9293090909091,146.2911084043849,555.9293090909091C159.67722289890378,555.9293090909091,159.67722289890378,407.89541818181823,173.06333739342264,407.89541818181823C187.88367844092568,407.89541818181823,187.88367844092568,548.7620363636364,202.70401948842874,548.7620363636364C217.0462850182704,548.7620363636364,217.0462850182704,443.63287272727274,231.38855054811205,443.63287272727274C246.20889159561509,443.63287272727274,246.20889159561509,532.2317090909091,261.0292326431181,532.2317090909091C275.37149817295983,532.2317090909091,275.37149817295983,210.92974545454547,289.7137637028015,210.92974545454547C304.53410475030455,210.92974545454547,304.53410475030455,464.7296,319.35444579780756,464.7296C334.17478684531056,464.7296,334.17478684531056,333.4912,348.9951278928136,333.4912C363.3373934226553,333.4912,363.3373934226553,429.3947636363636,377.67965895249694,429.3947636363636C392.5,429.3947636363636,392.5,74.05541818181817,407.32034104750306,74.05541818181817C421.6626065773447,74.05541818181817,421.6626065773447,550.3312,436.0048721071864,550.3312C450.82521315468944,550.3312,450.82521315468944,496.9322181818182,465.64555420219244,496.9322181818182C480.4658952496955,496.9322181818182,480.4658952496955,546.248,495.28623629719857,546.248C508.6723507917174,546.248,508.6723507917174,540.8414545454546,522.0584652862362,540.8414545454546C536.8788063337392,540.8414545454546,536.8788063337392,498.34007272727274,551.6991473812424,498.34007272727274C566.0414129110841,498.34007272727274,566.0414129110841,551.3604363636364,580.3836784409257,551.3604363636364C595.2040194884287,551.3604363636364,595.2040194884287,555.6980363636364,610.0243605359318,555.6980363636364C624.3666260657735,555.6980363636364,624.3666260657735,526.2017454545454,638.7088915956151,526.2017454545454C653.5292326431181,526.2017454545454,653.5292326431181,493.9054545454546,668.3495736906211,493.9054545454546C683.1699147381241,493.9054545454546,683.1699147381241,526.5333818181819,697.9902557856273,526.5333818181819C712.332521315469,526.5333818181819,712.332521315469,491.1032727272727,726.6747868453107,491.1032727272727C741.4951278928137,491.1032727272727,741.4951278928137,551.6362181818182,756.3154689403167,551.6362181818182C770.6577344701584,551.6362181818182,770.6577344701584,436.8167272727273,785,436.8167272727273L785,456.15505454545456C770.6577344701584,456.15505454545456,770.6577344701584,554.261090909091,756.3154689403167,554.261090909091C741.4951278928137,554.261090909091,741.4951278928137,503.47316363636367,726.6747868453107,503.47316363636367C712.332521315469,503.47316363636367,712.332521315469,532.6608,697.9902557856273,532.6608C683.1699147381241,532.6608,683.1699147381241,505.8293818181818,668.3495736906211,505.8293818181818C653.5292326431181,505.8293818181818,653.5292326431181,535.7329454545454,638.7088915956151,535.7329454545454C624.3666260657735,535.7329454545454,624.3666260657735,558.0581818181818,610.0243605359318,558.0581818181818C595.2040194884287,558.0581818181818,595.2040194884287,555.2061090909091,580.3836784409257,555.2061090909091C566.0414129110841,555.2061090909091,566.0414129110841,511.77396363636365,551.6991473812424,511.77396363636365C536.8788063337392,511.77396363636365,536.8788063337392,547.6989090909091,522.0584652862362,547.6989090909091C508.6723507917174,547.6989090909091,508.6723507917174,552.0088727272727,495.28623629719857,552.0088727272727C480.4658952496955,552.0088727272727,480.4658952496955,514.2565818181819,465.64555420219244,514.2565818181819C450.82521315468944,514.2565818181819,450.82521315468944,557.381090909091,436.0048721071864,557.381090909091C421.6626065773447,557.381090909091,421.6626065773447,154.75243636363638,407.32034104750306,154.75243636363638C392.5,154.75243636363638,392.5,457.69410909090914,377.67965895249694,457.69410909090914C363.3373934226553,457.69410909090914,363.3373934226553,367.81716363636366,348.9951278928136,367.81716363636366C334.17478684531056,367.81716363636366,334.17478684531056,481.5927272727273,319.35444579780756,481.5927272727273C304.53410475030455,481.5927272727273,304.53410475030455,257.73454545454547,289.7137637028015,257.73454545454547C275.37149817295983,257.73454545454547,275.37149817295983,540.1490909090909,261.0292326431181,540.1490909090909C246.20889159561509,540.1490909090909,246.20889159561509,465.80479999999994,231.38855054811205,465.80479999999994C217.0462850182704,465.80479999999994,217.0462850182704,553.6238545454546,202.70401948842874,553.6238545454546C187.88367844092568,553.6238545454546,187.88367844092568,435.12567272727273,173.06333739342264,435.12567272727273C159.67722289890378,435.12567272727273,159.67722289890378,560,146.2911084043849,560C131.47076735688185,560,131.47076735688185,462.6606545454545,116.65042630937882,462.6606545454545C101.83008526187577,462.6606545454545,101.83008526187577,433.30225454545456,87.00974421437272,433.30225454545456C72.66747868453106,433.30225454545456,72.66747868453106,395.8389818181818,58.32521315468941,395.8389818181818C43.50487210718636,395.8389818181818,43.50487210718636,495.5390545454546,28.684531059683312,495.5390545454546C14.342265529841656,495.5390545454546,14.342265529841656,556.0523636363637,0,556.0523636363637Z"><title>4</title></path><path fill="#4a90e2" d="M0,328.8699636363636C14.342265529841656,328.8699636363636,14.342265529841656,370.78472727272725,28.684531059683312,370.78472727272725C43.50487210718636,370.78472727272725,43.50487210718636,460.82807272727274,58.32521315468941,460.82807272727274C72.66747868453106,460.82807272727274,72.66747868453106,539.9496727272727,87.00974421437272,539.9496727272727C101.83008526187577,539.9496727272727,101.83008526187577,525.7479272727273,116.65042630937882,525.7479272727273C131.47076735688185,525.7479272727273,131.47076735688185,536.6292363636363,146.2911084043849,536.6292363636363C159.67722289890378,536.6292363636363,159.67722289890378,525.7976727272727,173.06333739342264,525.7976727272727C187.88367844092568,525.7976727272727,187.88367844092568,527.4817454545455,202.70401948842874,527.4817454545455C217.0462850182704,527.4817454545455,217.0462850182704,503.7437090909091,231.38855054811205,503.7437090909091C246.20889159561509,503.7437090909091,246.20889159561509,396.03883636363634,261.0292326431181,396.03883636363634C275.37149817295983,396.03883636363634,275.37149817295983,501.38879999999995,289.7137637028015,501.38879999999995C304.53410475030455,501.38879999999995,304.53410475030455,499.2605090909091,319.35444579780756,499.2605090909091C334.17478684531056,499.2605090909091,334.17478684531056,526.3310545454545,348.9951278928136,526.3310545454545C363.3373934226553,526.3310545454545,363.3373934226553,360.2354909090909,377.67965895249694,360.2354909090909C392.5,360.2354909090909,392.5,512.6804363636363,407.32034104750306,512.6804363636363C421.6626065773447,512.6804363636363,421.6626065773447,395.09294545454543,436.0048721071864,395.09294545454543C450.82521315468944,395.09294545454543,450.82521315468944,235.96698181818184,465.64555420219244,235.96698181818184C480.4658952496955,235.96698181818184,480.4658952496955,553.0088727272727,495.28623629719857,553.0088727272727C508.6723507917174,553.0088727272727,508.6723507917174,555.7143272727272,522.0584652862362,555.7143272727272C536.8788063337392,555.7143272727272,536.8788063337392,337.3482181818182,551.6991473812424,337.3482181818182C566.0414129110841,337.3482181818182,566.0414129110841,544.1576727272727,580.3836784409257,544.1576727272727C595.2040194884287,544.1576727272727,595.2040194884287,527.5090909090909,610.0243605359318,527.5090909090909C624.3666260657735,527.5090909090909,624.3666260657735,555.6308363636364,638.7088915956151,555.6308363636364C653.5292326431181,555.6308363636364,653.5292326431181,506.8293818181818,668.3495736906211,506.8293818181818C683.1699147381241,506.8293818181818,683.1699147381241,540.4929454545454,697.9902557856273,540.4929454545454C712.332521315469,540.4929454545454,712.332521315469,448.87898181818184,726.6747868453107,448.87898181818184C741.4951278928137,448.87898181818184,741.4951278928137,511.23505454545455,756.3154689403167,511.23505454545455C770.6577344701584,511.23505454545455,770.6577344701584,555.1869090909091,785,555.1869090909091L785,557.4432C770.6577344701584,557.4432,770.6577344701584,519.6859636363636,756.3154689403167,519.6859636363636C741.4951278928137,519.6859636363636,741.4951278928137,473.0170181818182,726.6747868453107,473.0170181818182C712.332521315469,473.0170181818182,712.332521315469,545.687709090909,697.9902557856273,545.687709090909C683.1699147381241,545.687709090909,683.1699147381241,516.9307636363636,668.3495736906211,516.9307636363636C653.5292326431181,516.9307636363636,653.5292326431181,558.3972363636364,638.7088915956151,558.3972363636364C624.3666260657735,558.3972363636364,624.3666260657735,535.7685818181818,610.0243605359318,535.7685818181818C595.2040194884287,535.7685818181818,595.2040194884287,550.3604363636364,580.3836784409257,550.3604363636364C566.0414129110841,550.3604363636364,566.0414129110841,365.06821818181817,551.6991473812424,365.06821818181817C536.8788063337392,365.06821818181817,536.8788063337392,557.7985454545454,522.0584652862362,557.7985454545454C508.6723507917174,557.7985454545454,508.6723507917174,557.6263272727273,495.28623629719857,557.6263272727273C480.4658952496955,557.6263272727273,480.4658952496955,273.55316363636365,465.64555420219244,273.55316363636365C450.82521315468944,273.55316363636365,450.82521315468944,424.7851636363637,436.0048721071864,424.7851636363637C421.6626065773447,424.7851636363637,421.6626065773447,528.027490909091,407.32034104750306,528.027490909091C392.5,528.027490909091,392.5,394.82923636363637,377.67965895249694,394.82923636363637C363.3373934226553,394.82923636363637,363.3373934226553,538.1216,348.9951278928136,538.1216C334.17478684531056,538.1216,334.17478684531056,512.2402909090908,319.35444579780756,512.2402909090908C304.53410475030455,512.2402909090908,304.53410475030455,519.2731636363636,289.7137637028015,519.2731636363636C275.37149817295983,519.2731636363636,275.37149817295983,427.20334545454546,261.0292326431181,427.20334545454546C246.20889159561509,427.20334545454546,246.20889159561509,520.5640727272728,231.38855054811205,520.5640727272728C217.0462850182704,520.5640727272728,217.0462850182704,539.3751272727272,202.70401948842874,539.3751272727272C187.88367844092568,539.3751272727272,187.88367844092568,536.1189818181819,173.06333739342264,536.1189818181819C159.67722289890378,536.1189818181819,159.67722289890378,542.8279272727273,146.2911084043849,542.8279272727273C131.47076735688185,542.8279272727273,131.47076735688185,537.0975999999999,116.65042630937882,537.0975999999999C101.83008526187577,537.0975999999999,101.83008526187577,550.7108363636364,87.00974421437272,550.7108363636364C72.66747868453106,550.7108363636364,72.66747868453106,477.2391272727273,58.32521315468941,477.2391272727273C43.50487210718636,477.2391272727273,43.50487210718636,406.8039272727273,28.684531059683312,406.8039272727273C14.342265529841656,406.8039272727273,14.342265529841656,358.9328,0,358.9328Z"><title>5</title></path><path fill="#4a90e2" d="M0,411.728C14.342265529841656,411.728,14.342265529841656,512.8718545454545,28.684531059683312,512.8718545454545C43.50487210718636,512.8718545454545,43.50487210718636,442.0282181818182,58.32521315468941,442.0282181818182C72.66747868453106,442.0282181818182,72.66747868453106,434.30225454545456,87.00974421437272,434.30225454545456C101.83008526187577,434.30225454545456,101.83008526187577,331.77381818181817,116.65042630937882,331.77381818181817C131.47076735688185,331.77381818181817,131.47076735688185,506.53134545454543,146.2911084043849,506.53134545454543C159.67722289890378,506.53134545454543,159.67722289890378,497.6466909090909,173.06333739342264,497.6466909090909C187.88367844092568,497.6466909090909,187.88367844092568,475.1121454545455,202.70401948842874,475.1121454545455C217.0462850182704,475.1121454545455,217.0462850182704,485.2839272727273,231.38855054811205,485.2839272727273C246.20889159561509,485.2839272727273,246.20889159561509,22.700363636363626,261.0292326431181,22.700363636363626C275.37149817295983,22.700363636363626,275.37149817295983,482.4545454545455,289.7137637028015,482.4545454545455C304.53410475030455,482.4545454545455,304.53410475030455,525.093090909091,319.35444579780756,525.093090909091C334.17478684531056,525.093090909091,334.17478684531056,470.83040000000005,348.9951278928136,470.83040000000005C363.3373934226553,470.83040000000005,363.3373934226553,279.6888727272727,377.67965895249694,279.6888727272727C392.5,279.6888727272727,392.5,367.5552,407.32034104750306,367.5552C421.6626065773447,367.5552,421.6626065773447,329.93716363636366,436.0048721071864,329.93716363636366C450.82521315468944,329.93716363636366,450.82521315468944,127.17599999999999,465.64555420219244,127.17599999999999C480.4658952496955,127.17599999999999,480.4658952496955,492.95374545454547,495.28623629719857,492.95374545454547C508.6723507917174,492.95374545454547,508.6723507917174,422.4746181818182,522.0584652862362,422.4746181818182C536.8788063337392,422.4746181818182,536.8788063337392,483.1262545454545,551.6991473812424,483.1262545454545C566.0414129110841,483.1262545454545,566.0414129110841,444.2027636363636,580.3836784409257,444.2027636363636C595.2040194884287,444.2027636363636,595.2040194884287,403.8427636363636,610.0243605359318,403.8427636363636C624.3666260657735,403.8427636363636,624.3666260657735,543.9316363636364,638.7088915956151,543.9316363636364C653.5292326431181,543.9316363636364,653.5292326431181,436.0030545454546,668.3495736906211,436.0030545454546C683.1699147381241,436.0030545454546,683.1699147381241,546.687709090909,697.9902557856273,546.687709090909C712.332521315469,546.687709090909,712.332521315469,474.0170181818182,726.6747868453107,474.0170181818182C741.4951278928137,474.0170181818182,741.4951278928137,529.5045818181818,756.3154689403167,529.5045818181818C770.6577344701584,529.5045818181818,770.6577344701584,525.0053818181818,785,525.0053818181818L785,534.8125090909091C770.6577344701584,534.8125090909091,770.6577344701584,537.1409454545454,756.3154689403167,537.1409454545454C741.4951278928137,537.1409454545454,741.4951278928137,490.1032727272727,726.6747868453107,490.1032727272727C712.332521315469,490.1032727272727,712.332521315469,550.6250181818182,697.9902557856273,550.6250181818182C683.1699147381241,550.6250181818182,683.1699147381241,460.63592727272726,668.3495736906211,460.63592727272726C653.5292326431181,460.63592727272726,653.5292326431181,549.3585454545455,638.7088915956151,549.3585454545455C624.3666260657735,549.3585454545455,624.3666260657735,427.65090909090907,610.0243605359318,427.65090909090907C595.2040194884287,427.65090909090907,595.2040194884287,466.8797090909091,580.3836784409257,466.8797090909091C566.0414129110841,466.8797090909091,566.0414129110841,497.34007272727274,551.6991473812424,497.34007272727274C536.8788063337392,497.34007272727274,536.8788063337392,444.1333818181818,522.0584652862362,444.1333818181818C508.6723507917174,444.1333818181818,508.6723507917174,508.71825454545456,495.28623629719857,508.71825454545456C480.4658952496955,508.71825454545456,480.4658952496955,183.92945454545452,465.64555420219244,183.92945454545452C450.82521315468944,183.92945454545452,450.82521315468944,361.5914181818182,436.0048721071864,361.5914181818182C421.6626065773447,361.5914181818182,421.6626065773447,404.7463272727273,407.32034104750306,404.7463272727273C392.5,404.7463272727273,392.5,318.9682909090909,377.67965895249694,318.9682909090909C363.3373934226553,318.9682909090909,363.3373934226553,485.1287272727273,348.9951278928136,485.1287272727273C334.17478684531056,485.1287272727273,334.17478684531056,535.5335272727273,319.35444579780756,535.5335272727273C304.53410475030455,535.5335272727273,304.53410475030455,500.38879999999995,289.7137637028015,500.38879999999995C275.37149817295983,500.38879999999995,275.37149817295983,192.5921454545455,261.0292326431181,192.5921454545455C246.20889159561509,192.5921454545455,246.20889159561509,502.7437090909091,231.38855054811205,502.7437090909091C217.0462850182704,502.7437090909091,217.0462850182704,494.2081454545455,202.70401948842874,494.2081454545455C187.88367844092568,494.2081454545455,187.88367844092568,512.2687999999999,173.06333739342264,512.2687999999999C159.67722289890378,512.2687999999999,159.67722289890378,517.7924363636364,146.2911084043849,517.7924363636364C131.47076735688185,517.7924363636364,131.47076735688185,364.1173818181818,116.65042630937882,364.1173818181818C101.83008526187577,364.1173818181818,101.83008526187577,460.71083636363636,87.00974421437272,460.71083636363636C72.66747868453106,460.71083636363636,72.66747868453106,459.82807272727274,58.32521315468941,459.82807272727274C43.50487210718636,459.82807272727274,43.50487210718636,526.3220363636364,28.684531059683312,526.3220363636364C14.342265529841656,526.3220363636364,14.342265529841656,433.9172363636364,0,433.9172363636364Z"><title>6</title></path><path fill="#4a90e2" d="M0,498.08770909090913C14.342265529841656,498.08770909090913,14.342265529841656,455.9428363636364,28.684531059683312,455.9428363636364C43.50487210718636,455.9428363636364,43.50487210718636,535.8097454545455,58.32521315468941,535.8097454545455C72.66747868453106,535.8097454545455,72.66747868453106,461.71083636363636,87.00974421437272,461.71083636363636C101.83008526187577,461.71083636363636,101.83008526187577,511.69687272727276,116.65042630937882,511.69687272727276C131.47076735688185,511.69687272727276,131.47076735688185,465.31185454545454,146.2911084043849,465.31185454545454C159.67722289890378,465.31185454545454,159.67722289890378,513.2687999999999,173.06333739342264,513.2687999999999C187.88367844092568,513.2687999999999,187.88367844092568,148.72174545454544,202.70401948842874,148.72174545454544C217.0462850182704,148.72174545454544,217.0462850182704,545.7054545454546,231.38855054811205,545.7054545454546C246.20889159561509,545.7054545454546,246.20889159561509,320.76334545454546,261.0292326431181,320.76334545454546C275.37149817295983,320.76334545454546,275.37149817295983,404.6802909090909,289.7137637028015,404.6802909090909C304.53410475030455,404.6802909090909,304.53410475030455,513.2402909090908,319.35444579780756,513.2402909090908C334.17478684531056,513.2402909090908,334.17478684531056,553.4955636363636,348.9951278928136,553.4955636363636C363.3373934226553,553.4955636363636,363.3373934226553,458.69410909090914,377.67965895249694,458.69410909090914C392.5,458.69410909090914,392.5,443.8468363636363,407.32034104750306,443.8468363636363C421.6626065773447,443.8468363636363,421.6626065773447,529.3818181818182,436.0048721071864,529.3818181818182C450.82521315468944,529.3818181818182,450.82521315468944,311.47869090909086,465.64555420219244,311.47869090909086C480.4658952496955,311.47869090909086,480.4658952496955,413.4842181818182,495.28623629719857,413.4842181818182C508.6723507917174,413.4842181818182,508.6723507917174,464.14807272727273,522.0584652862362,464.14807272727273C536.8788063337392,464.14807272727273,536.8788063337392,556.2256,551.6991473812424,556.2256C566.0414129110841,556.2256,566.0414129110841,467.8797090909091,580.3836784409257,467.8797090909091C595.2040194884287,467.8797090909091,595.2040194884287,515.9413818181818,610.0243605359318,515.9413818181818C624.3666260657735,515.9413818181818,624.3666260657735,463.02807272727273,638.7088915956151,463.02807272727273C653.5292326431181,463.02807272727273,653.5292326431181,517.9307636363636,668.3495736906211,517.9307636363636C683.1699147381241,517.9307636363636,683.1699147381241,518.6199272727273,697.9902557856273,518.6199272727273C712.332521315469,518.6199272727273,712.332521315469,559.1600000000001,726.6747868453107,559.1600000000001C741.4951278928137,559.1600000000001,741.4951278928137,555.261090909091,756.3154689403167,555.261090909091C770.6577344701584,555.261090909091,770.6577344701584,546.1156363636364,785,546.1156363636364L785,550.5182545454545C770.6577344701584,550.5182545454545,770.6577344701584,556.7710545454546,756.3154689403167,556.7710545454546C741.4951278928137,556.7710545454546,741.4951278928137,560,726.6747868453107,560C712.332521315469,560,712.332521315469,525.5333818181819,697.9902557856273,525.5333818181819C683.1699147381241,525.5333818181819,683.1699147381241,526.9793454545454,668.3495736906211,526.9793454545454C653.5292326431181,526.9793454545454,653.5292326431181,480.2149818181818,638.7088915956151,480.2149818181818C624.3666260657735,480.2149818181818,624.3666260657735,526.5090909090909,610.0243605359318,526.5090909090909C595.2040194884287,526.5090909090909,595.2040194884287,488.2677818181818,580.3836784409257,488.2677818181818C566.0414129110841,488.2677818181818,566.0414129110841,560,551.6991473812424,560C536.8788063337392,560,536.8788063337392,478.3710545454545,522.0584652862362,478.3710545454545C508.6723507917174,478.3710545454545,508.6723507917174,446.5954909090909,495.28623629719857,446.5954909090909C480.4658952496955,446.5954909090909,480.4658952496955,347.1364363636364,465.64555420219244,347.1364363636364C450.82521315468944,347.1364363636364,450.82521315468944,539.6206545454546,436.0048721071864,539.6206545454546C421.6626065773447,539.6206545454546,421.6626065773447,469.16698181818185,407.32034104750306,469.16698181818185C392.5,469.16698181818185,392.5,482.18356363636366,377.67965895249694,482.18356363636366C363.3373934226553,482.18356363636366,363.3373934226553,555.5675636363636,348.9951278928136,555.5675636363636C334.17478684531056,555.5675636363636,334.17478684531056,524.093090909091,319.35444579780756,524.093090909091C304.53410475030455,524.093090909091,304.53410475030455,434.2920727272727,289.7137637028015,434.2920727272727C275.37149817295983,434.2920727272727,275.37149817295983,359.22414545454546,261.0292326431181,359.22414545454546C246.20889159561509,359.22414545454546,246.20889159561509,552.4498909090909,231.38855054811205,552.4498909090909C217.0462850182704,552.4498909090909,217.0462850182704,227.42618181818185,202.70401948842874,227.42618181818185C187.88367844092568,227.42618181818185,187.88367844092568,524.7976727272727,173.06333739342264,524.7976727272727C159.67722289890378,524.7976727272727,159.67722289890378,478.85978181818183,146.2911084043849,478.85978181818183C131.47076735688185,478.85978181818183,131.47076735688185,524.7479272727273,116.65042630937882,524.7479272727273C101.83008526187577,524.7479272727273,101.83008526187577,479.4210909090909,87.00974421437272,479.4210909090909C72.66747868453106,479.4210909090909,72.66747868453106,548.0401454545455,58.32521315468941,548.0401454545455C43.50487210718636,548.0401454545455,43.50487210718636,478.6197818181818,28.684531059683312,478.6197818181818C14.342265529841656,478.6197818181818,14.342265529841656,511.6010181818182,0,511.6010181818182Z"><title>7</title></path><path fill="#417505" d="M0,512.6010181818182C14.342265529841656,512.6010181818182,14.342265529841656,557.4046545454546,28.684531059683312,557.4046545454546C43.50487210718636,557.4046545454546,43.50487210718636,559.2445090909091,58.32521315468941,559.2445090909091C72.66747868453106,559.2445090909091,72.66747868453106,558.7008,87.00974421437272,558.7008C101.83008526187577,558.7008,101.83008526187577,557.5512727272727,116.65042630937882,557.5512727272727C131.47076735688185,557.5512727272727,131.47076735688185,550.3617454545455,146.2911084043849,550.3617454545455C159.67722289890378,550.3617454545455,159.67722289890378,556.1582545454545,173.06333739342264,556.1582545454545C187.88367844092568,556.1582545454545,187.88367844092568,558.5409454545454,202.70401948842874,558.5409454545454C217.0462850182704,558.5409454545454,217.0462850182704,559.5357090909091,231.38855054811205,559.5357090909091C246.20889159561509,559.5357090909091,246.20889159561509,519.8352,261.0292326431181,519.8352C275.37149817295983,519.8352,275.37149817295983,557.4677818181818,289.7137637028015,557.4677818181818C304.53410475030455,557.4677818181818,304.53410475030455,559.3728,319.35444579780756,559.3728C334.17478684531056,559.3728,334.17478684531056,399.8565818181818,348.9951278928136,399.8565818181818C363.3373934226553,399.8565818181818,363.3373934226553,483.18356363636366,377.67965895249694,483.18356363636366C392.5,483.18356363636366,392.5,538.1138909090909,407.32034104750306,538.1138909090909C421.6626065773447,538.1138909090909,421.6626065773447,480.0688,436.0048721071864,480.0688C450.82521315468944,480.0688,450.82521315468944,556.8354909090909,465.64555420219244,556.8354909090909C480.4658952496955,556.8354909090909,480.4658952496955,558.6263272727273,495.28623629719857,558.6263272727273C508.6723507917174,558.6263272727273,508.6723507917174,558.7985454545454,522.0584652862362,558.7985454545454C536.8788063337392,558.7985454545454,536.8788063337392,420.26429090909096,551.6991473812424,420.26429090909096C566.0414129110841,420.26429090909096,566.0414129110841,559.8462545454546,580.3836784409257,559.8462545454546C595.2040194884287,559.8462545454546,595.2040194884287,559.0581818181818,610.0243605359318,559.0581818181818C624.3666260657735,559.0581818181818,624.3666260657735,559.3972363636364,638.7088915956151,559.3972363636364C653.5292326431181,559.3972363636364,653.5292326431181,559.4379636363636,668.3495736906211,559.4379636363636C683.1699147381241,559.4379636363636,683.1699147381241,559.9277090909092,697.9902557856273,559.9277090909092C712.332521315469,559.9277090909092,712.332521315469,557.1754181818181,726.6747868453107,557.1754181818181C741.4951278928137,557.1754181818181,741.4951278928137,559.4654545454546,756.3154689403167,559.4654545454546C770.6577344701584,559.4654545454546,770.6577344701584,558.4432,785,558.4432L785,560C770.6577344701584,560,770.6577344701584,560,756.3154689403167,560C741.4951278928137,560,741.4951278928137,558.1600000000001,726.6747868453107,558.1600000000001C712.332521315469,558.1600000000001,712.332521315469,560,697.9902557856273,560C683.1699147381241,560,683.1699147381241,560,668.3495736906211,560C653.5292326431181,560,653.5292326431181,560,638.7088915956151,560C624.3666260657735,560,624.3666260657735,560,610.0243605359318,560C595.2040194884287,560,595.2040194884287,560,580.3836784409257,560C566.0414129110841,560,566.0414129110841,443.8453818181818,551.6991473812424,443.8453818181818C536.8788063337392,443.8453818181818,536.8788063337392,560,522.0584652862362,560C508.6723507917174,560,508.6723507917174,559,495.28623629719857,559C480.4658952496955,559,480.4658952496955,560,465.64555420219244,560C450.82521315468944,560,450.82521315468944,502.4820363636363,436.0048721071864,502.4820363636363C421.6626065773447,502.4820363636363,421.6626065773447,545.6402909090909,407.32034104750306,545.6402909090909C392.5,545.6402909090909,392.5,499.11505454545454,377.67965895249694,499.11505454545454C363.3373934226553,499.11505454545454,363.3373934226553,428.1824,348.9951278928136,428.1824C334.17478684531056,428.1824,334.17478684531056,560,319.35444579780756,560C304.53410475030455,560,304.53410475030455,560,289.7137637028015,560C275.37149817295983,560,275.37149817295983,531.2317090909091,261.0292326431181,531.2317090909091C246.20889159561509,531.2317090909091,246.20889159561509,560,231.38855054811205,560C217.0462850182704,560,217.0462850182704,560,202.70401948842874,560C187.88367844092568,560,187.88367844092568,559,173.06333739342264,559C159.67722289890378,559,159.67722289890378,554.9293090909091,146.2911084043849,554.9293090909091C131.47076735688185,554.9293090909091,131.47076735688185,560,116.65042630937882,560C101.83008526187577,560,101.83008526187577,560,87.00974421437272,560C72.66747868453106,560,72.66747868453106,560,58.32521315468941,560C43.50487210718636,560,43.50487210718636,560,28.684531059683312,560C14.342265529841656,560,14.342265529841656,525.5044363636364,0,525.5044363636364Z"><title>8</title></path><path fill="#417505" d="M0,526.5044363636364C14.342265529841656,526.5044363636364,14.342265529841656,527.3220363636364,28.684531059683312,527.3220363636364C43.50487210718636,527.3220363636364,43.50487210718636,478.2391272727273,58.32521315468941,478.2391272727273C72.66747868453106,478.2391272727273,72.66747868453106,551.7108363636364,87.00974421437272,551.7108363636364C101.83008526187577,551.7108363636364,101.83008526187577,548.1960727272727,116.65042630937882,548.1960727272727C131.47076735688185,548.1960727272727,131.47076735688185,543.8279272727273,146.2911084043849,543.8279272727273C159.67722289890378,543.8279272727273,159.67722289890378,537.1189818181819,173.06333739342264,537.1189818181819C187.88367844092568,537.1189818181819,187.88367844092568,454.27389090909094,202.70401948842874,454.27389090909094C217.0462850182704,454.27389090909094,217.0462850182704,553.4498909090909,231.38855054811205,553.4498909090909C246.20889159561509,553.4498909090909,246.20889159561509,459.43927272727274,261.0292326431181,459.43927272727274C275.37149817295983,459.43927272727274,275.37149817295983,535.4778181818182,289.7137637028015,535.4778181818182C304.53410475030455,535.4778181818182,304.53410475030455,554.401890909091,319.35444579780756,554.401890909091C334.17478684531056,554.401890909091,334.17478684531056,547.2783999999999,348.9951278928136,547.2783999999999C363.3373934226553,547.2783999999999,363.3373934226553,516.9722181818182,377.67965895249694,516.9722181818182C392.5,516.9722181818182,392.5,470.16698181818185,407.32034104750306,470.16698181818185C421.6626065773447,470.16698181818185,421.6626065773447,425.7851636363637,436.0048721071864,425.7851636363637C450.82521315468944,425.7851636363637,450.82521315468944,533.4852363636364,465.64555420219244,533.4852363636364C480.4658952496955,533.4852363636364,480.4658952496955,509.71825454545456,495.28623629719857,509.71825454545456C508.6723507917174,509.71825454545456,508.6723507917174,548.6989090909091,522.0584652862362,548.6989090909091C536.8788063337392,548.6989090909091,536.8788063337392,543.8686545454545,551.6991473812424,543.8686545454545C566.0414129110841,543.8686545454545,566.0414129110841,556.2061090909091,580.3836784409257,556.2061090909091C595.2040194884287,556.2061090909091,595.2040194884287,551.5050181818182,610.0243605359318,551.5050181818182C624.3666260657735,551.5050181818182,624.3666260657735,550.3585454545455,638.7088915956151,550.3585454545455C653.5292326431181,550.3585454545455,653.5292326431181,536.1147636363636,668.3495736906211,536.1147636363636C683.1699147381241,536.1147636363636,683.1699147381241,498.5074909090909,697.9902557856273,498.5074909090909C712.332521315469,498.5074909090909,712.332521315469,528.7346909090909,726.6747868453107,528.7346909090909C741.4951278928137,528.7346909090909,741.4951278928137,546.4331636363636,756.3154689403167,546.4331636363636C770.6577344701584,546.4331636363636,770.6577344701584,551.5182545454545,785,551.5182545454545L785,554.1869090909091C770.6577344701584,554.1869090909091,770.6577344701584,550.6362181818182,756.3154689403167,550.6362181818182C741.4951278928137,550.6362181818182,741.4951278928137,535.4954181818182,726.6747868453107,535.4954181818182C712.332521315469,535.4954181818182,712.332521315469,508.05090909090904,697.9902557856273,508.05090909090904C683.1699147381241,508.05090909090904,683.1699147381241,541.7544727272727,668.3495736906211,541.7544727272727C653.5292326431181,541.7544727272727,653.5292326431181,554.6308363636364,638.7088915956151,554.6308363636364C624.3666260657735,554.6308363636364,624.3666260657735,554.6980363636364,610.0243605359318,554.6980363636364C595.2040194884287,554.6980363636364,595.2040194884287,558.8462545454546,580.3836784409257,558.8462545454546C566.0414129110841,558.8462545454546,566.0414129110841,549.561309090909,551.6991473812424,549.561309090909C536.8788063337392,549.561309090909,536.8788063337392,554.7143272727272,522.0584652862362,554.7143272727272C508.6723507917174,554.7143272727272,508.6723507917174,525.3310545454545,495.28623629719857,525.3310545454545C480.4658952496955,525.3310545454545,480.4658952496955,544.3584,465.64555420219244,544.3584C450.82521315468944,544.3584,450.82521315468944,452.4890181818182,436.0048721071864,452.4890181818182C421.6626065773447,452.4890181818182,421.6626065773447,490.81876363636366,407.32034104750306,490.81876363636366C392.5,490.81876363636366,392.5,531.5922909090909,377.67965895249694,531.5922909090909C363.3373934226553,531.5922909090909,363.3373934226553,552.4955636363636,348.9951278928136,552.4955636363636C334.17478684531056,552.4955636363636,334.17478684531056,558.3728,319.35444579780756,558.3728C304.53410475030455,558.3728,304.53410475030455,546.9415272727273,289.7137637028015,546.9415272727273C275.37149817295983,546.9415272727273,275.37149817295983,481.3485090909091,261.0292326431181,481.3485090909091C246.20889159561509,481.3485090909091,246.20889159561509,558.5357090909091,231.38855054811205,558.5357090909091C217.0462850182704,558.5357090909091,217.0462850182704,474.1121454545455,202.70401948842874,474.1121454545455C187.88367844092568,474.1121454545455,187.88367844092568,545.7969454545455,173.06333739342264,545.7969454545455C159.67722289890378,545.7969454545455,159.67722289890378,549.3617454545455,146.2911084043849,549.3617454545455C131.47076735688185,549.3617454545455,131.47076735688185,556.5512727272727,116.65042630937882,556.5512727272727C101.83008526187577,556.5512727272727,101.83008526187577,557.7008,87.00974421437272,557.7008C72.66747868453106,557.7008,72.66747868453106,493.7429818181819,58.32521315468941,493.7429818181819C43.50487210718636,493.7429818181819,43.50487210718636,539.8925090909091,28.684531059683312,539.8925090909091C14.342265529841656,539.8925090909091,14.342265529841656,539.1645090909091,0,539.1645090909091Z"><title>9</title></path><path fill="#417505" d="M0,479.10763636363635C14.342265529841656,479.10763636363635,14.342265529841656,407.8039272727273,28.684531059683312,407.8039272727273C43.50487210718636,407.8039272727273,43.50487210718636,509.1025454545454,58.32521315468941,509.1025454545454C72.66747868453106,509.1025454545454,72.66747868453106,498.4104727272727,87.00974421437272,498.4104727272727C101.83008526187577,498.4104727272727,101.83008526187577,423.376,116.65042630937882,423.376C131.47076735688185,423.376,131.47076735688185,518.7924363636364,146.2911084043849,518.7924363636364C159.67722289890378,518.7924363636364,159.67722289890378,546.7969454545455,173.06333739342264,546.7969454545455C187.88367844092568,546.7969454545455,187.88367844092568,495.2081454545455,202.70401948842874,495.2081454545455C217.0462850182704,495.2081454545455,217.0462850182704,537.7074909090909,231.38855054811205,537.7074909090909C246.20889159561509,537.7074909090909,246.20889159561509,501.9761454545455,261.0292326431181,501.9761454545455C275.37149817295983,501.9761454545455,275.37149817295983,463.336,289.7137637028015,463.336C304.53410475030455,463.336,304.53410475030455,536.5335272727273,319.35444579780756,536.5335272727273C334.17478684531056,536.5335272727273,334.17478684531056,539.1216,348.9951278928136,539.1216C363.3373934226553,539.1216,363.3373934226553,500.11505454545454,377.67965895249694,500.11505454545454C392.5,500.11505454545454,392.5,220.56290909090907,407.32034104750306,220.56290909090907C421.6626065773447,220.56290909090907,421.6626065773447,292.93323636363635,436.0048721071864,292.93323636363635C450.82521315468944,292.93323636363635,450.82521315468944,515.2565818181819,465.64555420219244,515.2565818181819C480.4658952496955,515.2565818181819,480.4658952496955,447.5954909090909,495.28623629719857,447.5954909090909C508.6723507917174,447.5954909090909,508.6723507917174,519.6955636363637,522.0584652862362,519.6955636363637C536.8788063337392,519.6955636363637,536.8788063337392,550.561309090909,551.6991473812424,550.561309090909C566.0414129110841,550.561309090909,566.0414129110841,525.1326545454546,580.3836784409257,525.1326545454546C595.2040194884287,525.1326545454546,595.2040194884287,536.7685818181818,610.0243605359318,536.7685818181818C624.3666260657735,536.7685818181818,624.3666260657735,536.7329454545454,638.7088915956151,536.7329454545454C653.5292326431181,536.7329454545454,653.5292326431181,551.9336727272727,668.3495736906211,551.9336727272727C683.1699147381241,551.9336727272727,683.1699147381241,533.6608,697.9902557856273,533.6608C712.332521315469,533.6608,712.332521315469,547.1194181818182,726.6747868453107,547.1194181818182C741.4951278928137,547.1194181818182,741.4951278928137,208.7170909090909,756.3154689403167,208.7170909090909C770.6577344701584,208.7170909090909,770.6577344701584,513.9508363636364,785,513.9508363636364L785,524.0053818181818C770.6577344701584,524.0053818181818,770.6577344701584,378.7005090909091,756.3154689403167,378.7005090909091C741.4951278928137,378.7005090909091,741.4951278928137,550.1831272727273,726.6747868453107,550.1831272727273C712.332521315469,550.1831272727273,712.332521315469,539.4929454545454,697.9902557856273,539.4929454545454C683.1699147381241,539.4929454545454,683.1699147381241,555.048290909091,668.3495736906211,555.048290909091C653.5292326431181,555.048290909091,653.5292326431181,542.9316363636364,638.7088915956151,542.9316363636364C624.3666260657735,542.9316363636364,624.3666260657735,544.3000727272727,610.0243605359318,544.3000727272727C595.2040194884287,544.3000727272727,595.2040194884287,533.9144727272727,580.3836784409257,533.9144727272727C566.0414129110841,533.9144727272727,566.0414129110841,555.2256,551.6991473812424,555.2256C536.8788063337392,555.2256,536.8788063337392,530.1991272727273,522.0584652862362,530.1991272727273C508.6723507917174,530.1991272727273,508.6723507917174,475.12101818181816,495.28623629719857,475.12101818181816C480.4658952496955,475.12101818181816,480.4658952496955,532.4852363636364,465.64555420219244,532.4852363636364C450.82521315468944,532.4852363636364,450.82521315468944,328.93716363636366,436.0048721071864,328.93716363636366C421.6626065773447,328.93716363636366,421.6626065773447,277.30312727272724,407.32034104750306,277.30312727272724C392.5,277.30312727272724,392.5,515.9722181818182,377.67965895249694,515.9722181818182C363.3373934226553,515.9722181818182,363.3373934226553,546.2783999999999,348.9951278928136,546.2783999999999C334.17478684531056,546.2783999999999,334.17478684531056,545.5994181818181,319.35444579780756,545.5994181818181C304.53410475030455,545.5994181818181,304.53410475030455,481.4545454545455,289.7137637028015,481.4545454545455C275.37149817295983,481.4545454545455,275.37149817295983,518.8352,261.0292326431181,518.8352C246.20889159561509,518.8352,246.20889159561509,544.7054545454546,231.38855054811205,544.7054545454546C217.0462850182704,544.7054545454546,217.0462850182704,512.5854545454545,202.70401948842874,512.5854545454545C187.88367844092568,512.5854545454545,187.88367844092568,555.1582545454545,173.06333739342264,555.1582545454545C159.67722289890378,555.1582545454545,159.67722289890378,527.3696,146.2911084043849,527.3696C131.47076735688185,527.3696,131.47076735688185,444.4727272727273,116.65042630937882,444.4727272727273C101.83008526187577,444.4727272727273,101.83008526187577,514.1994181818181,87.00974421437272,514.1994181818181C72.66747868453106,514.1994181818181,72.66747868453106,521.497890909091,58.32521315468941,521.497890909091C43.50487210718636,521.497890909091,43.50487210718636,430.9716363636364,28.684531059683312,430.9716363636364C14.342265529841656,430.9716363636364,14.342265529841656,497.08770909090913,0,497.08770909090913Z"><title>10</title></path><path fill="#4a90e2" d="M0,434.9172363636364C14.342265529841656,434.9172363636364,14.342265529841656,431.9716363636364,28.684531059683312,431.9716363636364C43.50487210718636,431.9716363636364,43.50487210718636,420.02618181818184,58.32521315468941,420.02618181818184C72.66747868453106,420.02618181818184,72.66747868453106,480.4210909090909,87.00974421437272,480.4210909090909C101.83008526187577,480.4210909090909,101.83008526187577,496.43927272727274,116.65042630937882,496.43927272727274C131.47076735688185,496.43927272727274,131.47076735688185,493.7173818181818,146.2911084043849,493.7173818181818C159.67722289890378,493.7173818181818,159.67722289890378,436.12567272727273,173.06333739342264,436.12567272727273C187.88367844092568,436.12567272727273,187.88367844092568,377.69105454545456,202.70401948842874,377.69105454545456C217.0462850182704,377.69105454545456,217.0462850182704,415.3649454545454,231.38855054811205,415.3649454545454C246.20889159561509,415.3649454545454,246.20889159561509,482.3485090909091,261.0292326431181,482.3485090909091C275.37149817295983,482.3485090909091,275.37149817295983,435.2920727272727,289.7137637028015,435.2920727272727C304.53410475030455,435.2920727272727,304.53410475030455,309.3636363636364,319.35444579780756,309.3636363636364C334.17478684531056,309.3636363636364,334.17478684531056,452.64349090909093,348.9951278928136,452.64349090909093C363.3373934226553,452.64349090909093,363.3373934226553,395.82923636363637,377.67965895249694,395.82923636363637C392.5,395.82923636363637,392.5,327.1698909090909,407.32034104750306,327.1698909090909C421.6626065773447,327.1698909090909,421.6626065773447,503.4820363636363,436.0048721071864,503.4820363636363C450.82521315468944,503.4820363636363,450.82521315468944,472.55578181818186,465.64555420219244,472.55578181818186C480.4658952496955,472.55578181818186,480.4658952496955,237.05003636363637,495.28623629719857,237.05003636363637C508.6723507917174,237.05003636363637,508.6723507917174,445.1333818181818,522.0584652862362,445.1333818181818C536.8788063337392,445.1333818181818,536.8788063337392,512.7739636363636,551.6991473812424,512.7739636363636C566.0414129110841,512.7739636363636,566.0414129110841,389.6411636363637,580.3836784409257,389.6411636363637C595.2040194884287,389.6411636363637,595.2040194884287,451.85032727272727,610.0243605359318,451.85032727272727C624.3666260657735,451.85032727272727,624.3666260657735,497.672,638.7088915956151,497.672C653.5292326431181,497.672,653.5292326431181,480.55490909090906,668.3495736906211,480.55490909090906C683.1699147381241,480.55490909090906,683.1699147381241,466.57803636363633,697.9902557856273,466.57803636363633C712.332521315469,466.57803636363633,712.332521315469,504.47316363636367,726.6747868453107,504.47316363636367C741.4951278928137,504.47316363636367,741.4951278928137,482.46298181818185,756.3154689403167,482.46298181818185C770.6577344701584,482.46298181818185,770.6577344701584,298.0319999999999,785,298.0319999999999L785,354.7508363636364C770.6577344701584,354.7508363636364,770.6577344701584,500.5845818181818,756.3154689403167,500.5845818181818C741.4951278928137,500.5845818181818,741.4951278928137,516.7422545454546,726.6747868453107,516.7422545454546C712.332521315469,516.7422545454546,712.332521315469,484.53978181818184,697.9902557856273,484.53978181818184C683.1699147381241,484.53978181818184,683.1699147381241,492.9054545454546,668.3495736906211,492.9054545454546C653.5292326431181,492.9054545454546,653.5292326431181,511.5803636363637,638.7088915956151,511.5803636363637C624.3666260657735,511.5803636363637,624.3666260657735,469.64203636363635,610.0243605359318,469.64203636363635C595.2040194884287,469.64203636363635,595.2040194884287,415.9336727272727,580.3836784409257,415.9336727272727C566.0414129110841,415.9336727272727,566.0414129110841,523.8680727272728,551.6991473812424,523.8680727272728C536.8788063337392,523.8680727272728,536.8788063337392,463.14807272727273,522.0584652862362,463.14807272727273C508.6723507917174,463.14807272727273,508.6723507917174,290.63185454545453,495.28623629719857,290.63185454545453C480.4658952496955,290.63185454545453,480.4658952496955,495.9322181818182,465.64555420219244,495.9322181818182C450.82521315468944,495.9322181818182,450.82521315468944,516.8558545454546,436.0048721071864,516.8558545454546C421.6626065773447,516.8558545454546,421.6626065773447,366.5552,407.32034104750306,366.5552C392.5,366.5552,392.5,428.3947636363636,377.67965895249694,428.3947636363636C363.3373934226553,428.3947636363636,363.3373934226553,469.83040000000005,348.9951278928136,469.83040000000005C334.17478684531056,469.83040000000005,334.17478684531056,353.94167272727276,319.35444579780756,353.94167272727276C304.53410475030455,353.94167272727276,304.53410475030455,462.336,289.7137637028015,462.336C275.37149817295983,462.336,275.37149817295983,500.9761454545455,261.0292326431181,500.9761454545455C246.20889159561509,500.9761454545455,246.20889159561509,442.63287272727274,231.38855054811205,442.63287272727274C217.0462850182704,442.63287272727274,217.0462850182704,418.68101818181816,202.70401948842874,418.68101818181816C187.88367844092568,418.68101818181816,187.88367844092568,457.7946181818182,173.06333739342264,457.7946181818182C159.67722289890378,457.7946181818182,159.67722289890378,505.53134545454543,146.2911084043849,505.53134545454543C131.47076735688185,505.53134545454543,131.47076735688185,510.69687272727276,116.65042630937882,510.69687272727276C101.83008526187577,510.69687272727276,101.83008526187577,497.4104727272727,87.00974421437272,497.4104727272727C72.66747868453106,497.4104727272727,72.66747868453106,441.0282181818182,58.32521315468941,441.0282181818182C43.50487210718636,441.0282181818182,43.50487210718636,454.9428363636364,28.684531059683312,454.9428363636364C14.342265529841656,454.9428363636364,14.342265529841656,456.21250909090907,0,456.21250909090907Z"><title>11</title></path><path fill="#4a90e2" d="M0,387.4401454545455C14.342265529841656,387.4401454545455,14.342265529841656,326.83985454545456,28.684531059683312,326.83985454545456C43.50487210718636,326.83985454545456,43.50487210718636,284.3326545454545,58.32521315468941,284.3326545454545C72.66747868453106,284.3326545454545,72.66747868453106,327.6421818181818,87.00974421437272,327.6421818181818C101.83008526187577,327.6421818181818,101.83008526187577,463.6606545454545,116.65042630937882,463.6606545454545C131.47076735688185,463.6606545454545,131.47076735688185,343.4542545454546,146.2911084043849,343.4542545454546C159.67722289890378,343.4542545454546,159.67722289890378,479.99534545454543,173.06333739342264,479.99534545454543C187.88367844092568,479.99534545454543,187.88367844092568,333.7248,202.70401948842874,333.7248C217.0462850182704,333.7248,217.0462850182704,212.63621818181818,231.38855054811205,212.63621818181818C246.20889159561509,212.63621818181818,246.20889159561509,193.5921454545455,261.0292326431181,193.5921454545455C275.37149817295983,193.5921454545455,275.37149817295983,520.2731636363636,289.7137637028015,520.2731636363636C304.53410475030455,520.2731636363636,304.53410475030455,430.3597090909091,319.35444579780756,430.3597090909091C334.17478684531056,430.3597090909091,334.17478684531056,499.9476363636364,348.9951278928136,499.9476363636364C363.3373934226553,499.9476363636364,363.3373934226553,229.04945454545455,377.67965895249694,229.04945454545455C392.5,229.04945454545455,392.5,491.81876363636366,407.32034104750306,491.81876363636366C421.6626065773447,491.81876363636366,421.6626065773447,41.4512,436.0048721071864,41.4512C450.82521315468944,41.4512,450.82521315468944,445.1421090909091,465.64555420219244,445.1421090909091C480.4658952496955,445.1421090909091,480.4658952496955,476.12101818181816,495.28623629719857,476.12101818181816C508.6723507917174,476.12101818181816,508.6723507917174,367.6248727272727,522.0584652862362,367.6248727272727C536.8788063337392,367.6248727272727,536.8788063337392,393.67839999999995,551.6991473812424,393.67839999999995C566.0414129110841,393.67839999999995,566.0414129110841,309.1872,580.3836784409257,309.1872C595.2040194884287,309.1872,595.2040194884287,348.4718545454545,610.0243605359318,348.4718545454545C624.3666260657735,348.4718545454545,624.3666260657735,370.9799272727273,638.7088915956151,370.9799272727273C653.5292326431181,370.9799272727273,653.5292326431181,322.1191272727273,668.3495736906211,322.1191272727273C683.1699147381241,322.1191272727273,683.1699147381241,446.72334545454544,697.9902557856273,446.72334545454544C712.332521315469,446.72334545454544,712.332521315469,517.7422545454546,726.6747868453107,517.7422545454546C741.4951278928137,517.7422545454546,741.4951278928137,501.5845818181818,756.3154689403167,501.5845818181818C770.6577344701584,501.5845818181818,770.6577344701584,457.15505454545456,785,457.15505454545456L785,471.3108363636363C770.6577344701584,471.3108363636363,770.6577344701584,510.23505454545455,756.3154689403167,510.23505454545455C741.4951278928137,510.23505454545455,741.4951278928137,527.7346909090909,726.6747868453107,527.7346909090909C712.332521315469,527.7346909090909,712.332521315469,465.57803636363633,697.9902557856273,465.57803636363633C683.1699147381241,465.57803636363633,683.1699147381241,400.14952727272725,668.3495736906211,400.14952727272725C653.5292326431181,400.14952727272725,653.5292326431181,404.2785454545454,638.7088915956151,404.2785454545454C624.3666260657735,404.2785454545454,624.3666260657735,402.8427636363636,610.0243605359318,402.8427636363636C595.2040194884287,402.8427636363636,595.2040194884287,353.9597090909091,580.3836784409257,353.9597090909091C566.0414129110841,353.9597090909091,566.0414129110841,419.26429090909096,551.6991473812424,419.26429090909096C536.8788063337392,419.26429090909096,536.8788063337392,395.07607272727273,522.0584652862362,395.07607272727273C508.6723507917174,395.07607272727273,508.6723507917174,491.95374545454547,495.28623629719857,491.95374545454547C480.4658952496955,491.95374545454547,480.4658952496955,471.55578181818186,465.64555420219244,471.55578181818186C450.82521315468944,471.55578181818186,450.82521315468944,223.91549090909092,436.0048721071864,223.91549090909092C421.6626065773447,223.91549090909092,421.6626065773447,511.6804363636363,407.32034104750306,511.6804363636363C392.5,511.6804363636363,392.5,278.6888727272727,377.67965895249694,278.6888727272727C363.3373934226553,278.6888727272727,363.3373934226553,512.294109090909,348.9951278928136,512.294109090909C334.17478684531056,512.294109090909,334.17478684531056,463.7296,319.35444579780756,463.7296C304.53410475030455,463.7296,304.53410475030455,534.4778181818182,289.7137637028015,534.4778181818182C275.37149817295983,534.4778181818182,275.37149817295983,264.56349090909094,261.0292326431181,264.56349090909094C246.20889159561509,264.56349090909094,246.20889159561509,280.5733818181818,231.38855054811205,280.5733818181818C217.0462850182704,280.5733818181818,217.0462850182704,376.69105454545456,202.70401948842874,376.69105454545456C187.88367844092568,376.69105454545456,187.88367844092568,496.6466909090909,173.06333739342264,496.6466909090909C159.67722289890378,496.6466909090909,159.67722289890378,386.71680000000003,146.2911084043849,386.71680000000003C131.47076735688185,386.71680000000003,131.47076735688185,480.1378909090909,116.65042630937882,480.1378909090909C101.83008526187577,480.1378909090909,101.83008526187577,372.07563636363636,87.00974421437272,372.07563636363636C72.66747868453106,372.07563636363636,72.66747868453106,357.69570909090913,58.32521315468941,357.69570909090913C43.50487210718636,357.69570909090913,43.50487210718636,369.78472727272725,28.684531059683312,369.78472727272725C14.342265529841656,369.78472727272725,14.342265529841656,410.728,0,410.728Z"><title>12</title></path><path fill="#f5a623" d="M0,231.1690181818182C14.342265529841656,231.1690181818182,14.342265529841656,280.53076363636364,28.684531059683312,280.53076363636364C43.50487210718636,280.53076363636364,43.50487210718636,549.0401454545455,58.32521315468941,549.0401454545455C72.66747868453106,549.0401454545455,72.66747868453106,373.07563636363636,87.00974421437272,373.07563636363636C101.83008526187577,373.07563636363636,101.83008526187577,365.1173818181818,116.65042630937882,365.1173818181818C131.47076735688185,365.1173818181818,131.47076735688185,479.85978181818183,146.2911084043849,479.85978181818183C159.67722289890378,479.85978181818183,159.67722289890378,373.7474909090909,173.06333739342264,373.7474909090909C187.88367844092568,373.7474909090909,187.88367844092568,228.42618181818185,202.70401948842874,228.42618181818185C217.0462850182704,228.42618181818185,217.0462850182704,466.80479999999994,231.38855054811205,466.80479999999994C246.20889159561509,466.80479999999994,246.20889159561509,428.20334545454546,261.0292326431181,428.20334545454546C275.37149817295983,428.20334545454546,275.37149817295983,299.8254545454546,289.7137637028015,299.8254545454546C304.53410475030455,299.8254545454546,304.53410475030455,232.2850909090909,319.35444579780756,232.2850909090909C334.17478684531056,232.2850909090909,334.17478684531056,513.294109090909,348.9951278928136,513.294109090909C363.3373934226553,513.294109090909,363.3373934226553,43.96203636363636,377.67965895249694,43.96203636363636C392.5,43.96203636363636,392.5,278.30312727272724,407.32034104750306,278.30312727272724C421.6626065773447,278.30312727272724,421.6626065773447,540.6206545454546,436.0048721071864,540.6206545454546C450.82521315468944,540.6206545454546,450.82521315468944,274.55316363636365,465.64555420219244,274.55316363636365C480.4658952496955,274.55316363636365,480.4658952496955,291.63185454545453,495.28623629719857,291.63185454545453C508.6723507917174,291.63185454545453,508.6723507917174,494.3058909090909,522.0584652862362,494.3058909090909C536.8788063337392,494.3058909090909,536.8788063337392,366.06821818181817,551.6991473812424,366.06821818181817C566.0414129110841,366.06821818181817,566.0414129110841,534.9144727272727,580.3836784409257,534.9144727272727C595.2040194884287,534.9144727272727,595.2040194884287,470.64203636363635,610.0243605359318,470.64203636363635C624.3666260657735,470.64203636363635,624.3666260657735,512.5803636363637,638.7088915956151,512.5803636363637C653.5292326431181,512.5803636363637,653.5292326431181,461.63592727272726,668.3495736906211,461.63592727272726C683.1699147381241,461.63592727272726,683.1699147381241,402.1522909090909,697.9902557856273,402.1522909090909C712.332521315469,402.1522909090909,712.332521315469,403.1533090909091,726.6747868453107,403.1533090909091C741.4951278928137,403.1533090909091,741.4951278928137,457.43287272727275,756.3154689403167,457.43287272727275C770.6577344701584,457.43287272727275,770.6577344701584,397.55447272727275,785,397.55447272727275L785,435.8167272727273C770.6577344701584,435.8167272727273,770.6577344701584,481.46298181818185,756.3154689403167,481.46298181818185C741.4951278928137,481.46298181818185,741.4951278928137,447.87898181818184,726.6747868453107,447.87898181818184C712.332521315469,447.87898181818184,712.332521315469,445.72334545454544,697.9902557856273,445.72334545454544C683.1699147381241,445.72334545454544,683.1699147381241,479.55490909090906,668.3495736906211,479.55490909090906C653.5292326431181,479.55490909090906,653.5292326431181,525.2017454545454,638.7088915956151,525.2017454545454C624.3666260657735,525.2017454545454,624.3666260657735,487.6171636363636,610.0243605359318,487.6171636363636C595.2040194884287,487.6171636363636,595.2040194884287,543.1576727272727,580.3836784409257,543.1576727272727C566.0414129110841,543.1576727272727,566.0414129110841,392.67839999999995,551.6991473812424,392.67839999999995C536.8788063337392,392.67839999999995,536.8788063337392,507.0219636363636,522.0584652862362,507.0219636363636C508.6723507917174,507.0219636363636,508.6723507917174,337.5885090909091,495.28623629719857,337.5885090909091C480.4658952496955,337.5885090909091,480.4658952496955,310.47869090909086,465.64555420219244,310.47869090909086C450.82521315468944,310.47869090909086,450.82521315468944,549.3312,436.0048721071864,549.3312C421.6626065773447,549.3312,421.6626065773447,326.1698909090909,407.32034104750306,326.1698909090909C392.5,326.1698909090909,392.5,149.23185454545452,377.67965895249694,149.23185454545452C363.3373934226553,149.23185454545452,363.3373934226553,525.3310545454545,348.9951278928136,525.3310545454545C334.17478684531056,525.3310545454545,334.17478684531056,308.3636363636364,319.35444579780756,308.3636363636364C304.53410475030455,308.3636363636364,304.53410475030455,335.88232727272725,289.7137637028015,335.88232727272725C275.37149817295983,335.88232727272725,275.37149817295983,458.43927272727274,261.0292326431181,458.43927272727274C246.20889159561509,458.43927272727274,246.20889159561509,484.2839272727273,231.38855054811205,484.2839272727273C217.0462850182704,484.2839272727273,217.0462850182704,281.3248,202.70401948842874,281.3248C187.88367844092568,281.3248,187.88367844092568,406.89541818181823,173.06333739342264,406.89541818181823C159.67722289890378,406.89541818181823,159.67722289890378,492.7173818181818,146.2911084043849,492.7173818181818C131.47076735688185,492.7173818181818,131.47076735688185,397.17483636363636,116.65042630937882,397.17483636363636C101.83008526187577,397.17483636363636,101.83008526187577,404.4213818181818,87.00974421437272,404.4213818181818C72.66747868453106,404.4213818181818,72.66747868453106,558.2445090909091,58.32521315468941,558.2445090909091C43.50487210718636,558.2445090909091,43.50487210718636,325.83985454545456,28.684531059683312,325.83985454545456C14.342265529841656,325.83985454545456,14.342265529841656,280.6740363636364,0,280.6740363636364Z"><title>13</title></path><path fill="#f5a623" d="M0,281.6740363636364C14.342265529841656,281.6740363636364,14.342265529841656,130.0248727272727,28.684531059683312,130.0248727272727C43.50487210718636,130.0248727272727,43.50487210718636,205.33687272727275,58.32521315468941,205.33687272727275C72.66747868453106,205.33687272727275,72.66747868453106,126.0376727272727,87.00974421437272,126.0376727272727C101.83008526187577,126.0376727272727,101.83008526187577,173.74865454545454,116.65042630937882,173.74865454545454C131.47076735688185,173.74865454545454,131.47076735688185,387.71680000000003,146.2911084043849,387.71680000000003C159.67722289890378,387.71680000000003,159.67722289890378,300.37905454545455,173.06333739342264,300.37905454545455C187.88367844092568,300.37905454545455,187.88367844092568,282.3248,202.70401948842874,282.3248C217.0462850182704,282.3248,217.0462850182704,342.3488,231.38855054811205,342.3488C246.20889159561509,342.3488,246.20889159561509,265.56349090909094,261.0292326431181,265.56349090909094C275.37149817295983,265.56349090909094,275.37149817295983,373.30487272727277,289.7137637028015,373.30487272727277C304.53410475030455,373.30487272727277,304.53410475030455,394.9024,319.35444579780756,394.9024C334.17478684531056,394.9024,334.17478684531056,368.81716363636366,348.9951278928136,368.81716363636366C363.3373934226553,368.81716363636366,363.3373934226553,150.23185454545452,377.67965895249694,150.23185454545452C392.5,150.23185454545452,392.5,155.75243636363638,407.32034104750306,155.75243636363638C421.6626065773447,155.75243636363638,421.6626065773447,224.91549090909092,436.0048721071864,224.91549090909092C450.82521315468944,224.91549090909092,450.82521315468944,184.92945454545452,465.64555420219244,184.92945454545452C480.4658952496955,184.92945454545452,480.4658952496955,376.55054545454544,495.28623629719857,376.55054545454544C508.6723507917174,376.55054545454544,508.6723507917174,396.07607272727273,522.0584652862362,396.07607272727273C536.8788063337392,396.07607272727273,536.8788063337392,444.8453818181818,551.6991473812424,444.8453818181818C566.0414129110841,444.8453818181818,566.0414129110841,354.9597090909091,580.3836784409257,354.9597090909091C595.2040194884287,354.9597090909091,595.2040194884287,502.8983272727273,610.0243605359318,502.8983272727273C624.3666260657735,502.8983272727273,624.3666260657735,434.2072727272727,638.7088915956151,434.2072727272727C653.5292326431181,434.2072727272727,653.5292326431181,401.14952727272725,668.3495736906211,401.14952727272725C683.1699147381241,401.14952727272725,683.1699147381241,509.05090909090904,697.9902557856273,509.05090909090904C712.332521315469,509.05090909090904,712.332521315469,536.4954181818182,726.6747868453107,536.4954181818182C741.4951278928137,536.4954181818182,741.4951278928137,427.30778181818187,756.3154689403167,427.30778181818187C770.6577344701584,427.30778181818187,770.6577344701584,355.7508363636364,785,355.7508363636364L785,396.55447272727275C770.6577344701584,396.55447272727275,770.6577344701584,456.43287272727275,756.3154689403167,456.43287272727275C741.4951278928137,456.43287272727275,741.4951278928137,541.7034181818182,726.6747868453107,541.7034181818182C712.332521315469,541.7034181818182,712.332521315469,517.6199272727273,697.9902557856273,517.6199272727273C683.1699147381241,517.6199272727273,683.1699147381241,435.0030545454546,668.3495736906211,435.0030545454546C653.5292326431181,435.0030545454546,653.5292326431181,462.02807272727273,638.7088915956151,462.02807272727273C624.3666260657735,462.02807272727273,624.3666260657735,514.9413818181818,610.0243605359318,514.9413818181818C595.2040194884287,514.9413818181818,595.2040194884287,388.6411636363637,580.3836784409257,388.6411636363637C566.0414129110841,388.6411636363637,566.0414129110841,464.83534545454546,551.6991473812424,464.83534545454546C536.8788063337392,464.83534545454546,536.8788063337392,421.4746181818182,522.0584652862362,421.4746181818182C508.6723507917174,421.4746181818182,508.6723507917174,412.4842181818182,495.28623629719857,412.4842181818182C480.4658952496955,412.4842181818182,480.4658952496955,234.96698181818184,465.64555420219244,234.96698181818184C450.82521315468944,234.96698181818184,450.82521315468944,291.93323636363635,436.0048721071864,291.93323636363635C421.6626065773447,291.93323636363635,421.6626065773447,219.56290909090907,407.32034104750306,219.56290909090907C392.5,219.56290909090907,392.5,228.04945454545455,377.67965895249694,228.04945454545455C363.3373934226553,228.04945454545455,363.3373934226553,398.8565818181818,348.9951278928136,398.8565818181818C334.17478684531056,398.8565818181818,334.17478684531056,429.3597090909091,319.35444579780756,429.3597090909091C304.53410475030455,429.3597090909091,304.53410475030455,403.6802909090909,289.7137637028015,403.6802909090909C275.37149817295983,403.6802909090909,275.37149817295983,319.76334545454546,261.0292326431181,319.76334545454546C246.20889159561509,319.76334545454546,246.20889159561509,385.65207272727275,231.38855054811205,385.65207272727275C217.0462850182704,385.65207272727275,217.0462850182704,332.7248,202.70401948842874,332.7248C187.88367844092568,332.7248,187.88367844092568,338.5802181818182,173.06333739342264,338.5802181818182C159.67722289890378,338.5802181818182,159.67722289890378,427.7456,146.2911084043849,427.7456C131.47076735688185,427.7456,131.47076735688185,262.72247272727276,116.65042630937882,262.72247272727276C101.83008526187577,262.72247272727276,101.83008526187577,210.52538181818184,87.00974421437272,210.52538181818184C72.66747868453106,210.52538181818184,72.66747868453106,283.3326545454545,58.32521315468941,283.3326545454545C43.50487210718636,283.3326545454545,43.50487210718636,224.4052363636364,28.684531059683312,224.4052363636364C14.342265529841656,224.4052363636364,14.342265529841656,327.8699636363636,0,327.8699636363636Z"><title>14</title></path><path fill="#4a90e2" d="M0,457.21250909090907C14.342265529841656,457.21250909090907,14.342265529841656,225.4052363636364,28.684531059683312,225.4052363636364C43.50487210718636,225.4052363636364,43.50487210718636,396.8389818181818,58.32521315468941,396.8389818181818C72.66747868453106,396.8389818181818,72.66747868453106,280.1031272727273,87.00974421437272,280.1031272727273C101.83008526187577,280.1031272727273,101.83008526187577,398.17483636363636,116.65042630937882,398.17483636363636C131.47076735688185,398.17483636363636,131.47076735688185,428.7456,146.2911084043849,428.7456C159.67722289890378,428.7456,159.67722289890378,183.34298181818184,173.06333739342264,183.34298181818184C187.88367844092568,183.34298181818184,187.88367844092568,419.68101818181816,202.70401948842874,419.68101818181816C217.0462850182704,419.68101818181816,217.0462850182704,281.5733818181818,231.38855054811205,281.5733818181818C246.20889159561509,281.5733818181818,246.20889159561509,360.22414545454546,261.0292326431181,360.22414545454546C275.37149817295983,360.22414545454546,275.37149817295983,336.88232727272725,289.7137637028015,336.88232727272725C304.53410475030455,336.88232727272725,304.53410475030455,354.94167272727276,319.35444579780756,354.94167272727276C334.17478684531056,354.94167272727276,334.17478684531056,429.1824,348.9951278928136,429.1824C363.3373934226553,429.1824,363.3373934226553,319.9682909090909,377.67965895249694,319.9682909090909C392.5,319.9682909090909,392.5,405.7463272727273,407.32034104750306,405.7463272727273C421.6626065773447,405.7463272727273,421.6626065773447,453.4890181818182,436.0048721071864,453.4890181818182C450.82521315468944,453.4890181818182,450.82521315468944,348.1364363636364,465.64555420219244,348.1364363636364C480.4658952496955,348.1364363636364,480.4658952496955,338.5885090909091,495.28623629719857,338.5885090909091C508.6723507917174,338.5885090909091,508.6723507917174,479.3710545454545,522.0584652862362,479.3710545454545C536.8788063337392,479.3710545454545,536.8788063337392,194.1000727272727,551.6991473812424,194.1000727272727C566.0414129110841,194.1000727272727,566.0414129110841,416.9336727272727,580.3836784409257,416.9336727272727C595.2040194884287,416.9336727272727,595.2040194884287,428.65090909090907,610.0243605359318,428.65090909090907C624.3666260657735,428.65090909090907,624.3666260657735,405.2785454545454,638.7088915956151,405.2785454545454C653.5292326431181,405.2785454545454,653.5292326431181,542.7544727272727,668.3495736906211,542.7544727272727C683.1699147381241,542.7544727272727,683.1699147381241,485.53978181818184,697.9902557856273,485.53978181818184C712.332521315469,485.53978181818184,712.332521315469,342.16305454545454,726.6747868453107,342.16305454545454C741.4951278928137,342.16305454545454,741.4951278928137,520.6859636363636,756.3154689403167,520.6859636363636C770.6577344701584,520.6859636363636,770.6577344701584,500.72247272727276,785,500.72247272727276L785,512.9508363636364C770.6577344701584,512.9508363636364,770.6577344701584,528.5045818181818,756.3154689403167,528.5045818181818C741.4951278928137,528.5045818181818,741.4951278928137,402.1533090909091,726.6747868453107,402.1533090909091C712.332521315469,402.1533090909091,712.332521315469,497.5074909090909,697.9902557856273,497.5074909090909C683.1699147381241,497.5074909090909,683.1699147381241,546.6042181818182,668.3495736906211,546.6042181818182C653.5292326431181,546.6042181818182,653.5292326431181,433.2072727272727,638.7088915956151,433.2072727272727C624.3666260657735,433.2072727272727,624.3666260657735,450.85032727272727,610.0243605359318,450.85032727272727C595.2040194884287,450.85032727272727,595.2040194884287,443.2027636363636,580.3836784409257,443.2027636363636C566.0414129110841,443.2027636363636,566.0414129110841,336.3482181818182,551.6991473812424,336.3482181818182C536.8788063337392,336.3482181818182,536.8788063337392,493.3058909090909,522.0584652862362,493.3058909090909C508.6723507917174,493.3058909090909,508.6723507917174,375.55054545454544,495.28623629719857,375.55054545454544C480.4658952496955,375.55054545454544,480.4658952496955,383.3309090909091,465.64555420219244,383.3309090909091C450.82521315468944,383.3309090909091,450.82521315468944,479.0688,436.0048721071864,479.0688C421.6626065773447,479.0688,421.6626065773447,442.8468363636363,407.32034104750306,442.8468363636363C392.5,442.8468363636363,392.5,359.2354909090909,377.67965895249694,359.2354909090909C363.3373934226553,359.2354909090909,363.3373934226553,451.64349090909093,348.9951278928136,451.64349090909093C334.17478684531056,451.64349090909093,334.17478684531056,393.9024,319.35444579780756,393.9024C304.53410475030455,393.9024,304.53410475030455,372.30487272727277,289.7137637028015,372.30487272727277C275.37149817295983,372.30487272727277,275.37149817295983,395.03883636363634,261.0292326431181,395.03883636363634C246.20889159561509,395.03883636363634,246.20889159561509,341.3488,231.38855054811205,341.3488C217.0462850182704,341.3488,217.0462850182704,453.27389090909094,202.70401948842874,453.27389090909094C187.88367844092568,453.27389090909094,187.88367844092568,299.37905454545455,173.06333739342264,299.37905454545455C159.67722289890378,299.37905454545455,159.67722289890378,446.15650909090914,146.2911084043849,446.15650909090914C131.47076735688185,446.15650909090914,131.47076735688185,422.376,116.65042630937882,422.376C101.83008526187577,422.376,101.83008526187577,326.6421818181818,87.00974421437272,326.6421818181818C72.66747868453106,326.6421818181818,72.66747868453106,419.02618181818184,58.32521315468941,419.02618181818184C43.50487210718636,419.02618181818184,43.50487210718636,279.53076363636364,28.684531059683312,279.53076363636364C14.342265529841656,279.53076363636364,14.342265529841656,478.10763636363635,0,478.10763636363635Z"><title>15</title></path></g><g id="xAxis" transform="translate(0,560)" fill="none" font-size="10" font-family="sans-serif" text-anchor="middle"><path class="domain" stroke="currentColor" d="M0,0H785"/><g class="tick" opacity="1" transform="translate(28.684531059683312,0)"><line stroke="currentColor" y2="6"/><text fill="currentColor" y="9" dy="0.71em">October</text></g><g class="tick" opacity="1" transform="translate(116.65042630937882,0)"><line stroke="currentColor" y2="6"/><text fill="currentColor" y="9" dy="0.71em">2018</text></g><g class="tick" opacity="1" transform="translate(202.70401948842874,0)"><line stroke="currentColor" y2="6"/><text fill="currentColor" y="9" dy="0.71em">April</text></g><g class="tick" opacity="1" transform="translate(289.7137637028015,0)"><line stroke="currentColor" y2="6"/><text fill="currentColor" y="9" dy="0.71em">July</text></g><g class="tick" opacity="1" transform="translate(377.67965895249694,0)"><line stroke="currentColor" y2="6"/><text fill="currentColor" y="9" dy="0.71em">October</text></g><g class="tick" opacity="1" transform="translate(465.64555420219244,0)"><line stroke="currentColor" y2="6"/><text fill="currentColor" y="9" dy="0.71em">2019</text></g><g class="tick" opacity="1" transform="translate(551.6991473812424,0)"><line stroke="currentColor" y2="6"/><text fill="currentColor" y="9" dy="0.71em">April</text></g><g class="tick" opacity="1" transform="translate(638.7088915956151,0)"><line stroke="currentColor" y2="6"/><text fill="currentColor" y="9" dy="0.71em">July</text></g><g class="tick" opacity="1" transform="translate(726.6747868453107,0)"><line stroke="currentColor" y2="6"/><text fill="currentColor" y="9" dy="0.71em">October</text></g></g><text y="556" x="785" text-anchor="end" style="font-family: Arial, sans-serif; font-size: 12px; fill: rgb(123, 123, 123); font-weight: bold;">Mes-Ao</text><text x="4" text-anchor="start" dominant-baseline="hanging" style="font-family: Arial, sans-serif; font-size: 12px; fill: rgb(123, 123, 123); font-weight: bold;">M2</text><g id="labels"><text x="319.35444579780756" y="162.62043636363637" text-anchor="middle" alignment-baseline="middle" style="font-family: Arial, sans-serif; font-size: 10px; fill: black; font-weight: bold;">1</text><text x="522.0584652862362" y="309.9426909090909" text-anchor="middle" alignment-baseline="middle" style="font-family: Arial, sans-serif; font-size: 10px; fill: black; font-weight: bold;">2</text><text x="638.7088915956151" y="364.0712727272727" text-anchor="middle" alignment-baseline="middle" style="font-family: Arial, sans-serif; font-size: 10px; fill: black; font-weight: bold;">3</text><text x="407.32034104750306" y="128.4039272727273" text-anchor="middle" alignment-baseline="middle" style="font-family: Arial, sans-serif; font-size: 10px; fill: black; font-weight: bold;">4</text><text x="465.64555420219244" y="266.7600727272727" text-anchor="middle" alignment-baseline="middle" style="font-family: Arial, sans-serif; font-size: 10px; fill: black; font-weight: bold;">5</text><text x="261.0292326431181" y="121.64625454545452" text-anchor="middle" alignment-baseline="middle" style="font-family: Arial, sans-serif; font-size: 10px; fill: black; font-weight: bold;">6</text><text x="202.70401948842874" y="202.07396363636366" text-anchor="middle" alignment-baseline="middle" style="font-family: Arial, sans-serif; font-size: 10px; fill: black; font-weight: bold;">7</text><text x="348.9951278928136" y="426.0194909090909" text-anchor="middle" alignment-baseline="middle" style="font-family: Arial, sans-serif; font-size: 10px; fill: black; font-weight: bold;">8</text><text x="436.0048721071864" y="447.13709090909094" text-anchor="middle" alignment-baseline="middle" style="font-family: Arial, sans-serif; font-size: 10px; fill: black; font-weight: bold;">9</text><text x="756.3154689403167" y="307.7088" text-anchor="middle" alignment-baseline="middle" style="font-family: Arial, sans-serif; font-size: 10px; fill: black; font-weight: bold;">10</text><text x="785" y="340.39141818181815" text-anchor="end" alignment-baseline="middle" style="font-family: Arial, sans-serif; font-size: 10px; fill: black; font-weight: bold;">11</text><text x="436.0048721071864" y="146.68334545454545" text-anchor="middle" alignment-baseline="middle" style="font-family: Arial, sans-serif; font-size: 10px; fill: black; font-weight: bold;">12</text><text x="377.67965895249694" y="110.59694545454546" text-anchor="middle" alignment-baseline="middle" style="font-family: Arial, sans-serif; font-size: 10px; fill: black; font-weight: bold;">13</text><text x="28.684531059683312" y="191.21505454545456" text-anchor="middle" alignment-baseline="middle" style="font-family: Arial, sans-serif; font-size: 10px; fill: black; font-weight: bold;">14</text><text x="551.6991473812424" y="279.22414545454546" text-anchor="middle" alignment-baseline="middle" style="font-family: Arial, sans-serif; font-size: 10px; fill: black; font-weight: bold;">15</text></g></g><text x="4" y="4" style="font-family: Arial, sans-serif; font-size: 12px; fill: black; font-weight: bold; dominant-baseline: hanging;"/></g></g></svg>