<svg xmlns="http://www.w3.org/2000/svg" width="805" height="600"><rect width="805" height="600" x="0" y="0" fill="#FFFFFF" id="backgorund"/><g id="viz"><g transform="translate(0,0)"><g transform="translate(10,20)"><g><path fill="#1f77b4" d="M0,243.1690181818182C14.342265529841656,243.1690181818182,14.342265529841656,142.0248727272727,28.684531059683312,142.0248727272727C43.50487210718636,142.0248727272727,43.50487210718636,88.58865454545455,58.32521315468941,88.58865454545455C72.66747868453106,88.58865454545455,72.66747868453106,138.0376727272727,87.00974421437272,138.0376727272727C101.83008526187577,138.0376727272727,101.83008526187577,185.74865454545454,116.65042630937882,185.74865454545454C131.47076735688185,185.74865454545454,131.47076735688185,303.6500363636364,146.2911084043849,303.6500363636364C159.67722289890378,303.6500363636364,159.67722289890378,195.34298181818184,173.06333739342264,195.34298181818184C187.88367844092568,195.34298181818184,187.88367844092568,160.72174545454544,202.70401948842874,160.72174545454544C217.0462850182704,160.72174545454544,217.0462850182704,102.43796363636366,231.38855054811205,102.43796363636366C246.20889159561509,102.43796363636366,246.20889159561509,34.700363636363626,261.0292326431181,34.700363636363626C275.37149817295983,34.700363636363626,275.37149817295983,160.44683636363635,289.7137637028015,160.44683636363635C304.53410475030455,160.44683636363635,304.53410475030455,77.9557818181818,319.35444579780756,77.9557818181818C334.17478684531056,77.9557818181818,334.17478684531056,345.4912,348.9951278928136,345.4912C363.3373934226553,345.4912,363.3373934226553,55.96203636363636,377.67965895249694,55.96203636363636C392.5,55.96203636363636,392.5,86.05541818181817,407.32034104750306,86.05541818181817C421.6626065773447,86.05541818181817,421.6626065773447,53.4512,436.0048721071864,53.4512C450.82521315468944,53.4512,450.82521315468944,139.176,465.64555420219244,139.176C480.4658952496955,139.176,480.4658952496955,249.05003636363637,495.28623629719857,249.05003636363637C508.6723507917174,249.05003636363637,508.6723507917174,417.73949090909093,522.0584652862362,417.73949090909093C536.8788063337392,417.73949090909093,536.8788063337392,206.1000727272727,551.6991473812424,206.1000727272727C566.0414129110841,206.1000727272727,566.0414129110841,321.1872,580.3836784409257,321.1872C595.2040194884287,321.1872,595.2040194884287,271.49483636363635,610.0243605359318,271.49483636363635C624.3666260657735,271.49483636363635,624.3666260657735,280.8936727272727,638.7088915956151,280.8936727272727C653.5292326431181,280.8936727272727,653.5292326431181,334.1191272727273,668.3495736906211,334.1191272727273C683.1699147381241,334.1191272727273,683.1699147381241,414.1522909090909,697.9902557856273,414.1522909090909C712.332521315469,414.1522909090909,712.332521315469,354.16305454545454,726.6747868453107,354.16305454545454C741.4951278928137,354.16305454545454,741.4951278928137,399.0629818181818,756.3154689403167,399.0629818181818C770.6577344701584,399.0629818181818,770.6577344701584,310.0319999999999,785,310.0319999999999L785,436.01265454545455C770.6577344701584,436.01265454545455,770.6577344701584,498.55258181818186,756.3154689403167,498.55258181818186C741.4951278928137,498.55258181818186,741.4951278928137,482.3633454545454,726.6747868453107,482.3633454545454C712.332521315469,482.3633454545454,712.332521315469,484.1512727272727,697.9902557856273,484.1512727272727C683.1699147381241,484.1512727272727,683.1699147381241,482.5975272727273,668.3495736906211,482.5975272727273C653.5292326431181,482.5975272727273,653.5292326431181,481.49585454545456,638.7088915956151,481.49585454545456C624.3666260657735,481.49585454545456,624.3666260657735,509.7504,610.0243605359318,509.7504C595.2040194884287,509.7504,595.2040194884287,491.63898181818183,580.3836784409257,491.63898181818183C566.0414129110841,491.63898181818183,566.0414129110841,456.6440727272727,551.6991473812424,456.6440727272727C536.8788063337392,456.6440727272727,536.8788063337392,534.4221090909091,522.0584652862362,534.4221090909091C508.6723507917174,534.4221090909091,508.6723507917174,420.84785454545454,495.28623629719857,420.84785454545454C480.4658952496955,420.84785454545454,480.4658952496955,412.9691636363636,465.64555420219244,412.9691636363636C450.82521315468944,412.9691636363636,450.82521315468944,388.48189090909096,436.0048721071864,388.48189090909096C421.6626065773447,388.48189090909096,421.6626065773447,273.4049454545455,407.32034104750306,273.4049454545455C392.5,273.4049454545455,392.5,289.3394909090909,377.67965895249694,289.3394909090909C363.3373934226553,289.3394909090909,363.3373934226553,439.87258181818186,348.9951278928136,439.87258181818186C334.17478684531056,439.87258181818186,334.17478684531056,401.2692363636363,319.35444579780756,401.2692363636363C304.53410475030455,401.2692363636363,304.53410475030455,372.55752727272727,289.7137637028015,372.55752727272727C275.37149817295983,372.55752727272727,275.37149817295983,412.6850909090909,261.0292326431181,412.6850909090909C246.20889159561509,412.6850909090909,246.20889159561509,447.3541818181818,231.38855054811205,447.3541818181818C217.0462850182704,447.3541818181818,217.0462850182704,403.7780363636364,202.70401948842874,403.7780363636364C187.88367844092568,403.7780363636364,187.88367844092568,439.53963636363636,173.06333739342264,439.53963636363636C159.67722289890378,439.53963636363636,159.67722289890378,465.2090181818182,146.2911084043849,465.2090181818182C131.47076735688185,465.2090181818182,131.47076735688185,373.57876363636365,116.65042630937882,373.57876363636365C101.83008526187577,373.57876363636365,101.83008526187577,379.92407272727274,87.00974421437272,379.92407272727274C72.66747868453106,379.92407272727274,72.66747868453106,392.69003636363635,58.32521315468941,392.69003636363635C43.50487210718636,392.69003636363635,43.50487210718636,353.3230545454545,28.684531059683312,353.3230545454545C14.342265529841656,353.3230545454545,14.342265529841656,409.8647272727273,0,409.8647272727273Z"><title>Centro</title></path><path fill="#ff7f0e" d="M0,410.8647272727273C14.342265529841656,410.8647272727273,14.342265529841656,354.3230545454545,28.684531059683312,354.3230545454545C43.50487210718636,354.3230545454545,43.50487210718636,393.69003636363635,58.32521315468941,393.69003636363635C72.66747868453106,393.69003636363635,72.66747868453106,380.92407272727274,87.00974421437272,380.92407272727274C101.83008526187577,380.92407272727274,101.83008526187577,374.57876363636365,116.65042630937882,374.57876363636365C131.47076735688185,374.57876363636365,131.47076735688185,466.2090181818182,146.2911084043849,466.2090181818182C159.67722289890378,466.2090181818182,159.67722289890378,440.53963636363636,173.06333739342264,440.53963636363636C187.88367844092568,440.53963636363636,187.88367844092568,404.7780363636364,202.70401948842874,404.7780363636364C217.0462850182704,404.7780363636364,217.0462850182704,448.3541818181818,231.38855054811205,448.3541818181818C246.20889159561509,448.3541818181818,246.20889159561509,413.6850909090909,261.0292326431181,413.6850909090909C275.37149817295983,413.6850909090909,275.37149817295983,373.55752727272727,289.7137637028015,373.55752727272727C304.53410475030455,373.55752727272727,304.53410475030455,402.2692363636363,319.35444579780756,402.2692363636363C334.17478684531056,402.2692363636363,334.17478684531056,516.8983272727272,348.9951278928136,516.8983272727272C363.3373934226553,516.8983272727272,363.3373934226553,290.3394909090909,377.67965895249694,290.3394909090909C392.5,290.3394909090909,392.5,441.0203636363637,407.32034104750306,441.0203636363637C421.6626065773447,441.0203636363637,421.6626065773447,482.6528,436.0048721071864,482.6528C450.82521315468944,482.6528,450.82521315468944,413.9691636363636,465.64555420219244,413.9691636363636C480.4658952496955,413.9691636363636,480.4658952496955,421.84785454545454,495.28623629719857,421.84785454545454C508.6723507917174,421.84785454545454,508.6723507917174,237.26050909090912,522.0584652862362,237.26050909090912C536.8788063337392,237.26050909090912,536.8788063337392,457.6440727272727,551.6991473812424,457.6440727272727C566.0414129110841,457.6440727272727,566.0414129110841,492.63898181818183,580.3836784409257,492.63898181818183C595.2040194884287,492.63898181818183,595.2040194884287,510.7504,610.0243605359318,510.7504C624.3666260657735,510.7504,624.3666260657735,482.49585454545456,638.7088915956151,482.49585454545456C653.5292326431181,482.49585454545456,653.5292326431181,483.5975272727273,668.3495736906211,483.5975272727273C683.1699147381241,483.5975272727273,683.1699147381241,485.1512727272727,697.9902557856273,485.1512727272727C712.332521315469,485.1512727272727,712.332521315469,483.3633454545454,726.6747868453107,483.3633454545454C741.4951278928137,483.3633454545454,741.4951278928137,499.55258181818186,756.3154689403167,499.55258181818186C770.6577344701584,499.55258181818186,770.6577344701584,437.01265454545455,785,437.01265454545455L785,525.3816727272728C770.6577344701584,525.3816727272728,770.6577344701584,560,756.3154689403167,560C741.4951278928137,560,741.4951278928137,535.8210909090909,726.6747868453107,535.8210909090909C712.332521315469,535.8210909090909,712.332521315469,537.4247272727273,697.9902557856273,537.4247272727273C683.1699147381241,537.4247272727273,683.1699147381241,537.759709090909,668.3495736906211,537.759709090909C653.5292326431181,537.759709090909,653.5292326431181,538.3950545454545,638.7088915956151,538.3950545454545C624.3666260657735,538.3950545454545,624.3666260657735,544.9735272727273,610.0243605359318,544.9735272727273C595.2040194884287,544.9735272727273,595.2040194884287,543.5786181818182,580.3836784409257,543.5786181818182C566.0414129110841,543.5786181818182,566.0414129110841,511.62807272727275,551.6991473812424,511.62807272727275C536.8788063337392,511.62807272727275,536.8788063337392,416.73949090909093,522.0584652862362,416.73949090909093C508.6723507917174,416.73949090909093,508.6723507917174,509.7271272727273,495.28623629719857,509.7271272727273C480.4658952496955,509.7271272727273,480.4658952496955,510.4093090909091,465.64555420219244,510.4093090909091C450.82521315468944,510.4093090909091,450.82521315468944,560,436.0048721071864,560C421.6626065773447,560,421.6626065773447,560,407.32034104750306,560C392.5,560,392.5,484.29192727272726,377.67965895249694,484.29192727272726C363.3373934226553,484.29192727272726,363.3373934226553,560,348.9951278928136,560C334.17478684531056,560,334.17478684531056,528.4728727272727,319.35444579780756,528.4728727272727C304.53410475030455,528.4728727272727,304.53410475030455,480.08072727272724,289.7137637028015,480.08072727272724C275.37149817295983,480.08072727272724,275.37149817295983,500.9178181818182,261.0292326431181,500.9178181818182C246.20889159561509,500.9178181818182,246.20889159561509,524.28,231.38855054811205,524.28C217.0462850182704,524.28,217.0462850182704,515.4635636363637,202.70401948842874,515.4635636363637C187.88367844092568,515.4635636363637,187.88367844092568,511.88872727272724,173.06333739342264,511.88872727272724C159.67722289890378,511.88872727272724,159.67722289890378,536.2507636363637,146.2911084043849,536.2507636363637C131.47076735688185,536.2507636363637,131.47076735688185,509.91141818181814,116.65042630937882,509.91141818181814C101.83008526187577,509.91141818181814,101.83008526187577,508.04101818181823,87.00974421437272,508.04101818181823C72.66747868453106,508.04101818181823,72.66747868453106,493.20203636363635,58.32521315468941,493.20203636363635C43.50487210718636,493.20203636363635,43.50487210718636,504.7472,28.684531059683312,504.7472C14.342265529841656,504.7472,14.342265529841656,509.51330909090905,0,509.51330909090905Z"><title>Norte</title></path><path fill="#2ca02c" d="M0,510.51330909090905C14.342265529841656,510.51330909090905,14.342265529841656,505.7472,28.684531059683312,505.7472C43.50487210718636,505.7472,43.50487210718636,494.20203636363635,58.32521315468941,494.20203636363635C72.66747868453106,494.20203636363635,72.66747868453106,509.04101818181823,87.00974421437272,509.04101818181823C101.83008526187577,509.04101818181823,101.83008526187577,510.91141818181814,116.65042630937882,510.91141818181814C131.47076735688185,510.91141818181814,131.47076735688185,537.2507636363637,146.2911084043849,537.2507636363637C159.67722289890378,537.2507636363637,159.67722289890378,512.8887272727272,173.06333739342264,512.8887272727272C187.88367844092568,512.8887272727272,187.88367844092568,516.4635636363637,202.70401948842874,516.4635636363637C217.0462850182704,516.4635636363637,217.0462850182704,525.28,231.38855054811205,525.28C246.20889159561509,525.28,246.20889159561509,501.9178181818182,261.0292326431181,501.9178181818182C275.37149817295983,501.9178181818182,275.37149817295983,481.08072727272724,289.7137637028015,481.08072727272724C304.53410475030455,481.08072727272724,304.53410475030455,529.4728727272727,319.35444579780756,529.4728727272727C334.17478684531056,529.4728727272727,334.17478684531056,440.87258181818186,348.9951278928136,440.87258181818186C363.3373934226553,440.87258181818186,363.3373934226553,485.29192727272726,377.67965895249694,485.29192727272726C392.5,485.29192727272726,392.5,274.4049454545455,407.32034104750306,274.4049454545455C421.6626065773447,274.4049454545455,421.6626065773447,389.48189090909096,436.0048721071864,389.48189090909096C450.82521315468944,389.48189090909096,450.82521315468944,511.4093090909091,465.64555420219244,511.4093090909091C480.4658952496955,511.4093090909091,480.4658952496955,510.7271272727273,495.28623629719857,510.7271272727273C508.6723507917174,510.7271272727273,508.6723507917174,535.4221090909091,522.0584652862362,535.4221090909091C536.8788063337392,535.4221090909091,536.8788063337392,512.6280727272728,551.6991473812424,512.6280727272728C566.0414129110841,512.6280727272728,566.0414129110841,544.5786181818182,580.3836784409257,544.5786181818182C595.2040194884287,544.5786181818182,595.2040194884287,545.9735272727273,610.0243605359318,545.9735272727273C624.3666260657735,545.9735272727273,624.3666260657735,539.3950545454545,638.7088915956151,539.3950545454545C653.5292326431181,539.3950545454545,653.5292326431181,538.759709090909,668.3495736906211,538.759709090909C683.1699147381241,538.759709090909,683.1699147381241,538.4247272727273,697.9902557856273,538.4247272727273C712.332521315469,538.4247272727273,712.332521315469,536.8210909090909,726.6747868453107,536.8210909090909C741.4951278928137,536.8210909090909,741.4951278928137,220.7170909090909,756.3154689403167,220.7170909090909C770.6577344701584,220.7170909090909,770.6577344701584,526.3816727272728,785,526.3816727272728L785,560C770.6577344701584,560,770.6577344701584,398.0629818181818,756.3154689403167,398.0629818181818C741.4951278928137,398.0629818181818,741.4951278928137,560,726.6747868453107,560C712.332521315469,560,712.332521315469,560,697.9902557856273,560C683.1699147381241,560,683.1699147381241,560,668.3495736906211,560C653.5292326431181,560,653.5292326431181,560,638.7088915956151,560C624.3666260657735,560,624.3666260657735,560,610.0243605359318,560C595.2040194884287,560,595.2040194884287,560,580.3836784409257,560C566.0414129110841,560,566.0414129110841,560,551.6991473812424,560C536.8788063337392,560,536.8788063337392,560,522.0584652862362,560C508.6723507917174,560,508.6723507917174,560,495.28623629719857,560C480.4658952496955,560,480.4658952496955,560,465.64555420219244,560C450.82521315468944,560,450.82521315468944,481.6528,436.0048721071864,481.6528C421.6626065773447,481.6528,421.6626065773447,440.0203636363637,407.32034104750306,440.0203636363637C392.5,440.0203636363637,392.5,560,377.67965895249694,560C363.3373934226553,560,363.3373934226553,515.8983272727272,348.9951278928136,515.8983272727272C334.17478684531056,515.8983272727272,334.17478684531056,560,319.35444579780756,560C304.53410475030455,560,304.53410475030455,560,289.7137637028015,560C275.37149817295983,560,275.37149817295983,560,261.0292326431181,560C246.20889159561509,560,246.20889159561509,560,231.38855054811205,560C217.0462850182704,560,217.0462850182704,560,202.70401948842874,560C187.88367844092568,560,187.88367844092568,560,173.06333739342264,560C159.67722289890378,560,159.67722289890378,560,146.2911084043849,560C131.47076735688185,560,131.47076735688185,560,116.65042630937882,560C101.83008526187577,560,101.83008526187577,560,87.00974421437272,560C72.66747868453106,560,72.66747868453106,560,58.32521315468941,560C43.50487210718636,560,43.50487210718636,560,28.684531059683312,560C14.342265529841656,560,14.342265529841656,560,0,560Z"><title>SUR</title></path></g><g id="xAxis" transform="translate(0,560)" fill="none" font-size="10" font-family="sans-serif" text-anchor="middle"><path class="domain" stroke="currentColor" d="M0,0H785"/><g class="tick" opacity="1" transform="translate(28.684531059683312,0)"><line stroke="currentColor" y2="6"/><text fill="currentColor" y="9" dy="0.71em">October</text></g><g class="tick" opacity="1" transform="translate(116.65042630937882,0)"><line stroke="currentColor" y2="6"/><text fill="currentColor" y="9" dy="0.71em">2018</text></g><g class="tick" opacity="1" transform="translate(202.70401948842874,0)"><line stroke="currentColor" y2="6"/><text fill="currentColor" y="9" dy="0.71em">April</text></g><g class="tick" opacity="1" transform="translate(289.7137637028015,0)"><line stroke="currentColor" y2="6"/><text fill="currentColor" y="9" dy="0.71em">July</text></g><g class="tick" opacity="1" transform="translate(377.67965895249694,0)"><line stroke="currentColor" y2="6"/><text fill="currentColor" y="9" dy="0.71em">October</text></g><g class="tick" opacity="1" transform="translate(465.64555420219244,0)"><line stroke="currentColor" y2="6"/><text fill="currentColor" y="9" dy="0.71em">2019</text></g><g class="tick" opacity="1" transform="translate(551.6991473812424,0)"><line stroke="currentColor" y2="6"/><text fill="currentColor" y="9" dy="0.71em">April</text></g><g class="tick" opacity="1" transform="translate(638.7088915956151,0)"><line stroke="currentColor" y2="6"/><text fill="currentColor" y="9" dy="0.71em">July</text></g><g class="tick" opacity="1" transform="translate(726.6747868453107,0)"><line stroke="currentColor" y2="6"/><text fill="currentColor" y="9" dy="0.71em">October</text></g></g><text y="556" x="785" text-anchor="end" style="font-family: Arial, sans-serif; font-size: 12px; fill: rgb(123, 123, 123); font-weight: bold;">Mes-Año</text><text x="4" text-anchor="start" dominant-baseline="hanging" style="font-family: Arial, sans-serif; font-size: 12px; fill: rgb(123, 123, 123); font-weight: bold;">M2</text><g id="labels"><text x="261.0292326431181" y="225.69272727272727" text-anchor="middle" alignment-baseline="middle" style="font-family: Arial, sans-serif; font-size: 10px; fill: black; font-weight: bold;">Centro</text><text x="377.67965895249694" y="388.31570909090914" text-anchor="middle" alignment-baseline="middle" style="font-family: Arial, sans-serif; font-size: 10px; fill: black; font-weight: bold;">Norte</text><text x="756.3154689403167" y="311.39003636363634" text-anchor="middle" alignment-baseline="middle" style="font-family: Arial, sans-serif; font-size: 10px; fill: black; font-weight: bold;">SUR</text></g></g><text x="4" y="4" style="font-family: Arial, sans-serif; font-size: 12px; fill: black; font-weight: bold; dominant-baseline: hanging;"/></g></g></svg>